<?xml version="1.0" encoding="UTF-8"?>
<!-- Generator: visioncortex VTracer 0.6.4 -->
<svg version="1.1" xmlns="http://www.w3.org/2000/svg" width="1024" height="1024">
<path d="M0 0 C1.74157787 -0.00300173 3.48315508 -0.00640654 5.22473145 -0.01017761 C9.89773735 -0.01890965 14.57072489 -0.02135084 19.24373817 -0.0219934 C22.17046418 -0.02270903 25.09718565 -0.02485275 28.02391052 -0.02749062 C38.25292249 -0.03670172 48.48192152 -0.04083003 58.7109375 -0.04003906 C68.220648 -0.03943643 77.73030212 -0.0500353 87.23999834 -0.06578273 C95.43659496 -0.07886864 103.63317312 -0.08422266 111.8297801 -0.08358365 C116.71194423 -0.08332938 121.59405791 -0.08614292 126.47621155 -0.0967617 C131.05970881 -0.10646276 135.64310749 -0.10650814 140.22660828 -0.09924507 C141.90312851 -0.09820238 143.57965496 -0.10054328 145.25616455 -0.10660553 C165.52138436 -0.17511807 165.52138436 -0.17511807 171.31054688 3.83276367 C173.44144112 6.98648716 174.30563344 9.36250745 174.87304688 13.14526367 C173.13640928 21.42768914 167.54920913 26.18079271 161.26661682 31.50720215 C155.56274254 36.37338581 150.28165441 41.63229085 145.01373672 46.95997429 C143.4107293 48.58059604 141.8040113 50.19745628 140.19625854 51.81336975 C135.63202723 56.40188182 131.07372789 60.99625545 126.51953125 65.59472656 C123.71996639 68.42099326 120.91561355 71.24243408 118.10821152 74.06091499 C117.04175724 75.13358575 115.97720532 76.20815126 114.91458511 77.28462029 C113.43793485 78.78037834 111.95532635 80.2699745 110.47119141 81.75830078 C109.62928253 82.60766708 108.78737366 83.45703339 107.91995239 84.33213806 C105.87304688 86.14526367 105.87304688 86.14526367 103.87304688 86.14526367 C103.50179687 87.01151367 103.50179687 87.01151367 103.12304688 87.89526367 C101.69004699 90.47466346 100.08880011 92.20647959 97.87304688 94.14526367 C97.21304687 94.14526367 96.55304688 94.14526367 95.87304688 94.14526367 C95.50179687 95.01151367 95.50179687 95.01151367 95.12304688 95.89526367 C93.69004699 98.47466346 92.08880011 100.20647959 89.87304688 102.14526367 C89.21304687 102.14526367 88.55304688 102.14526367 87.87304688 102.14526367 C87.66164063 102.69569336 87.45023438 103.24612305 87.23242188 103.81323242 C85.39759036 106.96091751 82.83765773 109.09172793 80.12304688 111.45776367 C76.2372132 114.92077452 72.66066272 118.36372464 69.39058113 122.4264822 C67.77167146 124.26008295 66.0520813 125.78768228 64.18624878 127.36842346 C59.97272287 131.01260864 56.02978766 134.86730231 52.11181641 138.82470703 C51.38234299 139.55724701 50.65286957 140.28978699 49.90129089 141.04452515 C48.33264124 142.62027832 46.76512312 144.1971586 45.19864273 145.77506828 C42.72184854 148.26935851 40.24143506 150.7599969 37.75997925 153.24964905 C30.710697 160.32330754 23.6671992 167.40270592 16.62792969 174.48632812 C12.31113832 178.82981408 7.98955976 183.16848819 3.6649437 187.50418282 C2.01794972 189.15740089 0.37285765 190.81251591 -1.27032089 192.46952629 C-3.55642746 194.77472719 -5.84851531 197.07381491 -8.14208984 199.37158203 C-8.82363632 200.06189011 -9.5051828 200.75219818 -10.2073822 201.46342468 C-10.82963181 202.08437012 -11.45188141 202.70531555 -12.09298706 203.34507751 C-12.63382872 203.88906157 -13.17467037 204.43304564 -13.73190117 204.99351406 C-15.12695312 206.14526367 -15.12695312 206.14526367 -17.12695312 206.14526367 C-17.37445312 206.72276367 -17.62195313 207.30026367 -17.87695312 207.89526367 C-19.30995301 210.47466346 -20.91119989 212.20647959 -23.12695312 214.14526367 C-23.78695313 214.14526367 -24.44695312 214.14526367 -25.12695312 214.14526367 C-25.37445312 214.72276367 -25.62195313 215.30026367 -25.87695312 215.89526367 C-27.30995301 218.47466346 -28.91119989 220.20647959 -31.12695312 222.14526367 C-31.78695313 222.14526367 -32.44695312 222.14526367 -33.12695312 222.14526367 C-33.33320312 222.70213867 -33.53945313 223.25901367 -33.75195312 223.83276367 C-35.29993178 226.43618232 -37.2042982 227.93922556 -39.56054688 229.80151367 C-41.55525664 231.51268614 -43.10399849 233.52268192 -44.7408905 235.56936646 C-46.27018029 237.30810717 -47.90885896 238.74190129 -49.67895508 240.23461914 C-54.6582599 244.542155 -59.28015669 249.17302114 -63.91992188 253.84057617 C-64.82897781 254.75104706 -65.73803375 255.66151794 -66.67463684 256.59957886 C-69.07013614 258.99885826 -71.46261913 261.40112268 -73.85443115 263.80407715 C-76.28394158 266.24384553 -78.71630377 268.68076712 -81.1484375 271.11791992 C-84.71076758 274.6881653 -88.27157821 278.25991811 -91.83081055 281.83325195 C-92.58373383 282.58656799 -93.3366571 283.33988403 -94.11239624 284.11602783 C-95.33481719 285.34735589 -96.54941141 286.58661286 -97.74917603 287.84002686 C-98.84059495 288.97596559 -99.97776457 290.06780475 -101.12695312 291.14526367 C-101.78695313 291.14526367 -102.44695312 291.14526367 -103.12695312 291.14526367 C-103.45695312 292.13526367 -103.78695313 293.12526367 -104.12695312 294.14526367 C-105.63032532 295.62863159 -105.63032532 295.62863159 -107.57739258 297.22680664 C-112.62210245 301.51053331 -117.25637171 306.1490937 -121.91992188 310.84057617 C-122.82897781 311.75104706 -123.73803375 312.66151794 -124.67463684 313.59957886 C-127.07013614 315.99885826 -129.46261913 318.40112268 -131.85443115 320.80407715 C-134.28394158 323.24384553 -136.71630377 325.68076712 -139.1484375 328.11791992 C-142.71076758 331.6881653 -146.27157821 335.25991811 -149.83081055 338.83325195 C-150.58381439 339.5889447 -151.33681824 340.34463745 -152.11264038 341.12322998 C-153.32470476 342.33994025 -154.53630091 343.55711759 -155.74697876 344.77520752 C-158.73362315 347.77513315 -161.84805916 350.5520156 -165.06445312 353.30151367 C-166.95982859 354.99586447 -168.74996958 356.76350323 -170.54281616 358.5645752 C-172.41127212 360.42896374 -174.29634742 362.27571049 -176.18286133 364.12182617 C-180.38035695 368.23023693 -184.5624682 372.35394771 -188.73950195 376.4831543 C-190.54401404 378.26237482 -192.35296652 380.03710269 -194.16625977 381.80737305 C-196.78603758 384.36667803 -199.3894862 386.94164128 -201.99023438 389.52026367 C-202.80575272 390.30997559 -203.62127106 391.0996875 -204.46150208 391.91333008 C-205.57847725 393.02973877 -205.57847725 393.02973877 -206.71801758 394.16870117 C-207.37800247 394.81758301 -208.03798737 395.46646484 -208.7179718 396.13500977 C-210.4678102 398.63157903 -210.40940638 400.16047941 -210.12695312 403.14526367 C-207.83955615 404.28896216 -206.57381391 404.2724549 -204.03174686 404.27669144 C-203.16921616 404.28053258 -202.30668545 404.28437373 -201.41801745 404.28833127 C-200.46482526 404.28746479 -199.51163307 404.28659831 -198.52955627 404.28570557 C-197.52132669 404.28867669 -196.5130971 404.29164781 -195.47431511 404.29470897 C-192.07409569 404.30342534 -188.67391136 404.30490668 -185.27368164 404.30639648 C-182.84478683 404.31102251 -180.41589274 404.31604688 -177.98699951 404.32144165 C-171.3734919 404.33458683 -164.75999161 404.34105089 -158.14647412 404.34545231 C-154.01933428 404.34821282 -149.89219678 404.35244978 -145.76505852 404.35695648 C-134.34461521 404.36914958 -122.92417378 404.3794493 -111.5037241 404.38283157 C-110.40696152 404.38316092 -110.40696152 404.38316092 -109.28804212 404.38349693 C-108.55509255 404.3837152 -107.82214297 404.38393348 -107.06698281 404.38415837 C-105.5816832 404.38460184 -104.09638359 404.38504841 -102.61108398 404.38549805 C-101.50593811 404.38583019 -101.50593811 404.38583019 -100.37846606 404.38616905 C-88.43368412 404.39011914 -76.48896311 404.40757939 -64.54420472 404.43085757 C-52.28913999 404.45454833 -40.03410587 404.46703236 -27.77901787 404.46819949 C-20.89478007 404.46911746 -14.01062169 404.47490034 -7.12640572 404.4930191 C-0.65452133 404.50999233 5.81725232 404.5116898 12.28915405 404.5028801 C14.66964687 404.50210596 17.05014758 404.5065015 19.43062019 404.51633835 C22.67015209 404.52894417 25.90913927 404.52324318 29.14866638 404.51275635 C30.09962785 404.52081275 31.05058931 404.52886916 32.03036779 404.53716969 C33.32807547 404.52728493 33.32807547 404.52728493 34.65199947 404.51720047 C35.40010354 404.51779756 36.14820761 404.51839465 36.91898149 404.51900983 C39.42314463 404.04004871 40.31500037 403.12455321 41.87304688 401.14526367 C42.32056942 399.12876029 42.32056942 399.12876029 42.25158691 396.87663269 C42.26389091 395.57084511 42.26389091 395.57084511 42.27644348 394.23867798 C42.27029526 393.28641327 42.26414703 392.33414856 42.2578125 391.35302734 C42.26318527 390.34785568 42.26855804 389.34268402 42.27409363 388.30705261 C42.28388623 386.12175102 42.28681132 383.93641047 42.28373718 381.7510891 C42.27926933 378.29190321 42.2932314 374.8332317 42.31213379 371.37409973 C42.34897332 364.02699621 42.36263145 356.67994596 42.37304688 349.33276367 C42.38511943 340.82993545 42.40666123 332.32735652 42.45304871 323.82464027 C42.46662902 320.41784027 42.46244544 317.01135447 42.4576416 313.60453796 C42.46698329 311.51158244 42.47715238 309.41863038 42.48828125 307.32568359 C42.47905891 305.90639557 42.47905891 305.90639557 42.46965027 304.45843506 C42.52775948 298.23154641 43.49738819 293.9528603 47.63476562 289.06323242 C48.27027344 288.49217773 48.90578125 287.92112305 49.56054688 287.33276367 C50.18316406 286.74881836 50.80578125 286.16487305 51.44726562 285.56323242 C57.21099168 282.19409787 65.19369053 282.99664873 71.71044922 283 C72.66115799 282.99664139 73.61186676 282.99328278 74.59138489 282.98982239 C77.71393158 282.98037392 80.83642431 282.97837245 83.95898438 282.97729492 C86.14319887 282.97407844 88.32741315 282.97071408 90.5116272 282.96720886 C95.08262634 282.9612331 99.65360661 282.9593674 104.22460938 282.95996094 C110.06386939 282.96006255 115.90300779 282.94640437 121.742239 282.92918873 C126.25141957 282.91803777 130.760571 282.91604267 135.26976395 282.91657066 C137.42180425 282.91539545 139.57384542 282.91099958 141.72587204 282.9032383 C144.74295183 282.89337442 147.75977094 282.89634146 150.77685547 282.90234375 C151.65405746 282.89672424 152.53125946 282.89110474 153.43504333 282.88531494 C160.4238337 282.92041416 168.5624308 282.9678645 174.31054688 287.39526367 C182.14466515 295.80261012 181.02465224 307.08889088 181.00675964 317.9609375 C181.01015798 319.50697647 181.01015798 319.50697647 181.01362497 321.08424854 C181.01990969 324.50694236 181.01913919 327.92959601 181.01831055 331.35229492 C181.02130541 333.81879731 181.02470869 336.28529923 181.02848816 338.75180054 C181.03638377 344.73710191 181.03954124 350.72238773 181.04010054 356.70769286 C181.04057729 361.57528176 181.04263992 366.44286744 181.04580116 371.31045532 C181.05459566 385.13480219 181.05922217 398.95914133 181.05847069 412.78349102 C181.05841075 413.89891125 181.05841075 413.89891125 181.05834961 415.03686523 C181.05828829 416.15365872 181.05828829 416.15365872 181.05822573 417.29301369 C181.0578191 429.36436796 181.06739607 441.43569107 181.08148798 453.50703633 C181.09586952 465.92514618 181.10275725 478.34324083 181.1018942 490.76135921 C181.10156295 497.72394568 181.10427852 504.68649943 181.11507225 511.64907837 C181.12515706 518.19578298 181.12482383 524.74243042 181.11755562 531.28914261 C181.11651148 533.6872429 181.1188625 536.08534752 181.12491608 538.4834404 C181.13266277 541.76557081 181.12797347 545.04746433 181.12028503 548.32958984 C181.1254286 549.27056424 181.13057216 550.21153864 181.13587159 551.18102741 C181.05136031 567.59031288 176.19990469 577.51750918 164.87304688 589.14526367 C164.19967285 589.83910156 163.52629883 590.53293945 162.83251953 591.24780273 C160.54262737 593.59775927 158.2416245 595.93619264 155.93554688 598.27026367 C155.17725586 599.04176758 154.41896484 599.81327148 153.63769531 600.6081543 C152.56503418 601.68226563 152.56503418 601.68226563 151.47070312 602.77807617 C150.82625244 603.42663574 150.18180176 604.07519531 149.51782227 604.7434082 C147.87304688 606.14526367 147.87304688 606.14526367 145.87304688 606.14526367 C145.61112549 606.73766846 145.3492041 607.33007324 145.0793457 607.94042969 C143.8073142 610.26540773 142.52411515 611.64514995 140.57226562 613.42260742 C139.92451172 614.01879883 139.27675781 614.61499023 138.609375 615.22924805 C137.93326172 615.8409082 137.25714844 616.45256836 136.56054688 617.08276367 C135.23037611 618.29939901 133.90093466 619.51683225 132.57226562 620.73510742 C131.93595215 621.31752197 131.29963867 621.89993652 130.64404297 622.5 C128.32462609 624.65474915 126.09417048 626.88973367 123.87304688 629.14526367 C111.77467313 641.40904487 98.07681861 645.32332805 81.25090027 645.50582886 C79.70211008 645.51289549 78.15329846 645.51619248 76.60449219 645.51586914 C74.24537283 645.52026866 71.88809019 645.55676916 69.52929688 645.59448242 C61.81804108 645.65203139 55.42921167 645.69443924 48.87304688 641.14526367 C43.62574304 635.89795984 42.63035496 630.23868845 42.57006836 623.01000977 C42.56162903 622.32305527 42.5531897 621.63610077 42.54449463 620.92832947 C42.51886575 618.67511238 42.50661181 616.42202598 42.49414062 614.16870117 C42.47795146 612.59501121 42.46076999 611.02133118 42.44264221 609.44766235 C42.3970799 605.31633091 42.36221018 601.1849859 42.33044434 597.05352783 C42.27845349 590.43426434 42.21331589 583.81514703 42.14222908 577.196064 C42.11944713 574.88726346 42.10314559 572.57848137 42.08750916 570.2696228 C42.07409995 568.85365597 42.06048492 567.43769107 42.04663086 566.02172852 C42.03711899 564.78740082 42.02760712 563.55307312 42.01780701 562.28134155 C41.89760329 559.67725282 41.54945881 557.63072584 40.87304688 555.14526367 C29.28745027 554.40252669 17.76772419 554.00203904 6.15966797 554.03173828 C4.56321178 554.03201925 2.96675546 554.03185345 1.37029934 554.03128719 C-2.95934363 554.03099529 -7.28895838 554.03687327 -11.61859488 554.0438571 C-16.30971853 554.05028991 -21.00084345 554.05080478 -25.69197083 554.05203247 C-33.80294234 554.05490588 -41.91390464 554.06132296 -50.02487183 554.07009888 C-61.76255813 554.08270511 -73.50024107 554.08874151 -85.23793304 554.09303224 C-104.30038904 554.10008364 -123.36284077 554.11087415 -142.42529297 554.12475586 C-143.56387752 554.12558367 -144.70246208 554.12641148 -145.8755492 554.12726438 C-153.95935058 554.1331661 -162.04315186 554.13920148 -170.12695312 554.14526367 C-179.37516269 554.15219591 -188.6233723 554.15906183 -197.87158203 554.16577148 C-199.01119227 554.16659961 -200.15080252 554.16742774 -201.3249464 554.16828096 C-220.33011186 554.18196912 -239.33527739 554.19172599 -258.34044647 554.19868183 C-270.04960252 554.20315843 -281.75874591 554.21118894 -293.46789604 554.22382665 C-301.48477913 554.23225589 -309.5016593 554.23714394 -317.51854652 554.23925185 C-322.14157605 554.24059566 -326.76458919 554.24359656 -331.3876133 554.25101089 C-335.62242584 554.25777703 -339.85721475 554.25989241 -344.09203219 554.25837529 C-345.62060004 554.25864588 -347.14916876 554.26060704 -348.67773175 554.26446807 C-372.57142847 554.32200256 -372.57142847 554.32200256 -380.87695312 546.58276367 C-387.15029844 538.47248271 -385.40740215 525.47889738 -385.36987305 515.77270508 C-385.37094808 514.14687524 -385.37289004 512.52104579 -385.37562561 510.8952179 C-385.38044252 506.50873424 -385.37285703 502.1223535 -385.36267257 497.73588228 C-385.35383469 493.12554845 -385.35565065 488.51521729 -385.35603333 483.90487671 C-385.35509892 476.16304828 -385.34644669 468.42125921 -385.33276367 460.67944336 C-385.31705173 451.75730162 -385.31176536 442.83520297 -385.31249923 433.91304839 C-385.31317743 424.37636387 -385.30622005 414.83969573 -385.29705262 405.30301619 C-385.29493205 402.57242869 -385.29421291 399.84184388 -385.29381371 397.11125565 C-385.29280086 392.80198051 -385.28662832 388.4927408 -385.27664757 384.1834774 C-385.27375438 382.61184977 -385.27249065 381.04021806 -385.2730751 379.46858788 C-385.27975893 350.52586199 -379.07189795 334.12513217 -358.67114258 313.62792969 C-354.6504623 309.60553794 -350.61647315 305.59629198 -346.5637207 301.60620117 C-344.66512778 299.72872295 -342.93786667 297.89749522 -341.31445312 295.77026367 C-338.78347501 292.73308994 -335.96167867 290.32063856 -332.93164062 287.79370117 C-330.90923057 286.07894036 -330.90923057 286.07894036 -329.12695312 283.14526367 C-328.46695313 283.14526367 -327.80695313 283.14526367 -327.12695312 283.14526367 C-327.12695312 282.48526367 -327.12695312 281.82526367 -327.12695312 281.14526367 C-326.46695313 281.14526367 -325.80695313 281.14526367 -325.12695312 281.14526367 C-324.81757813 280.30995117 -324.81757813 280.30995117 -324.50195312 279.45776367 C-322.6156568 276.28535622 -319.97210508 274.46783669 -317.12695312 272.14526367 C-316.12121534 270.81625303 -315.11899904 269.48452566 -314.12695312 268.14526367 C-313.46695313 268.14526367 -312.80695313 268.14526367 -312.12695312 268.14526367 C-312.12695312 267.48526367 -312.12695312 266.82526367 -312.12695312 266.14526367 C-310.50720754 264.43296119 -308.83105853 262.77363106 -307.12695312 261.14526367 C-304.48012107 258.51189009 -301.84811622 255.8643308 -299.22460938 253.20776367 C-298.21291421 252.18690697 -297.20119522 251.16607387 -296.18945312 250.14526367 C-295.68994141 249.63737305 -295.19042969 249.12948242 -294.67578125 248.60620117 C-292.16875077 246.0829963 -289.63696374 243.69909474 -286.87304688 241.45776367 C-283.99920188 239.25604103 -283.99920188 239.25604103 -282.12695312 236.14526367 C-281.46695313 236.14526367 -280.80695313 236.14526367 -280.12695312 236.14526367 C-279.86527344 235.55616211 -279.60359375 234.96706055 -279.33398438 234.36010742 C-278.06272563 232.02740933 -276.72464781 230.54171999 -274.81445312 228.70776367 C-274.19570313 228.10963867 -273.57695312 227.51151367 -272.93945312 226.89526367 C-272.34132813 226.31776367 -271.74320312 225.74026367 -271.12695312 225.14526367 C-270.1881513 224.1673451 -269.25046771 223.18835038 -268.31445312 222.20776367 C-266.12695312 220.14526367 -266.12695312 220.14526367 -264.12695312 220.14526367 C-263.46695313 218.82526367 -262.80695313 217.50526367 -262.12695312 216.14526367 C-261.46695313 216.14526367 -260.80695313 216.14526367 -260.12695312 216.14526367 C-259.86036449 215.55375076 -259.59377586 214.96223785 -259.31910878 214.35280031 C-258.10152424 212.09817653 -256.85930022 210.62901751 -255.05246258 208.82467747 C-254.41758598 208.18581877 -253.78270938 207.54696008 -253.1285941 206.88874203 C-252.42967779 206.1956514 -251.73076148 205.50256078 -251.01066589 204.78846741 C-250.26927834 204.04537101 -249.52789079 203.30227461 -248.76403695 202.53666013 C-246.27149612 200.04081772 -243.77186038 197.55220389 -241.2722168 195.06347656 C-239.48652425 193.27834801 -237.70127169 191.49277925 -235.91642761 189.70680237 C-232.06813741 185.85805625 -228.21679815 182.01240243 -224.36266136 178.1695118 C-218.78478428 172.6078988 -213.2124474 167.04076197 -207.64144114 161.47226756 C-198.59551557 152.43072041 -189.54513308 143.39364821 -180.49194336 134.359375 C-171.70999207 125.59575429 -162.93012212 116.83005712 -154.15307617 108.06152344 C-153.61279544 107.52176815 -153.07251471 106.98201287 -152.51586183 106.42590136 C-149.80472309 103.71737328 -147.09362587 101.00880363 -144.38254964 98.30021298 C-125.68508535 79.6199748 -106.98321118 60.94416147 -88.27679443 42.27288818 C-87.48750292 41.48507585 -86.6982114 40.69726353 -85.88500196 39.8855781 C-84.43220984 38.43553383 -82.97939214 36.98551521 -81.52654237 35.53552872 C-80.88384253 34.89406228 -80.24114269 34.25259584 -79.57896709 33.59169102 C-78.98331176 32.99774701 -78.38765643 32.40380301 -77.77395093 31.7918607 C-76.29273587 30.31100607 -74.81883588 28.82284321 -73.34587574 27.33377743 C-70.73951372 24.76313387 -67.93857169 22.48827914 -65.12695312 20.14526367 C-64.38445312 19.38213867 -63.64195312 18.61901367 -62.87695312 17.83276367 C-52.56878957 7.75887656 -42.02719225 1.38530556 -27.5098877 0.59184265 C-26.76011044 0.5497422 -26.01033319 0.50764175 -25.23783541 0.46426553 C-16.82571904 0.02759313 -8.42138859 -0.00295175 0 0 Z " fill="#9008FA" transform="translate(609.126953125,193.854736328125)"/>
<path d="M0 0 C2.09086903 -0.002311 4.18173725 -0.00549178 6.27260381 -0.00945449 C11.95558199 -0.01772365 17.63849211 -0.01371345 23.32147038 -0.00748205 C29.47503479 -0.00292581 35.62858812 -0.00995704 41.78215027 -0.01544189 C53.12019398 -0.02379381 64.45821031 -0.02310879 75.7962533 -0.01761896 C86.27691441 -0.01256979 96.75756768 -0.0112828 107.23822975 -0.01366425 C108.28472131 -0.0138934 108.28472131 -0.0138934 109.35235412 -0.01412719 C112.18508656 -0.01474996 115.01781899 -0.01538677 117.85055142 -0.01604671 C144.38038119 -0.02215348 170.91019736 -0.01663627 197.44002503 -0.00585292 C220.95345761 0.00363179 244.46686851 0.00279212 267.9803009 -0.0067749 C294.45687053 -0.01751179 320.93342816 -0.02171503 347.40999967 -0.01555037 C350.23885143 -0.01490904 353.06770319 -0.01428335 355.89655495 -0.01366425 C356.94119663 -0.01342701 356.94119663 -0.01342701 358.00694218 -0.01318499 C368.47146074 -0.01092089 378.93597056 -0.01355033 389.4004879 -0.01862335 C401.31658649 -0.02437161 413.23265959 -0.02265943 425.14875724 -0.01206186 C431.21781248 -0.0068406 437.28682401 -0.00468714 443.35587883 -0.01136017 C506.75367218 -0.07505764 506.75367218 -0.07505764 529.40193176 6.25396729 C530.57497864 6.56720947 531.74802551 6.88045166 532.95661926 7.20318604 C549.90164367 12.27914546 567.29293715 20.55059206 581.40193176 31.25396729 C582.43704895 32.00935791 583.47216614 32.76474854 584.53865051 33.54302979 C595.40411545 41.57669301 606.03770399 50.59367698 614.40193176 61.25396729 C614.99240295 62.00057617 614.99240295 62.00057617 615.59480286 62.76226807 C636.6685181 89.65641706 649.60873987 122.17087825 649.53335953 156.60928822 C649.53643848 157.94422031 649.53643848 157.94422031 649.53957963 159.30612072 C649.5452118 162.27351709 649.54379708 165.24086648 649.54237366 168.20826721 C649.54495947 170.36332715 649.54797323 172.5183866 649.55137706 174.6734454 C649.55942502 180.58473609 649.5612354 186.49601461 649.56197453 192.40731013 C649.56382895 198.78728536 649.57137828 205.16725435 649.57810974 211.54722595 C649.59238563 226.22084602 649.59821783 240.89446361 649.60280169 255.56808941 C649.60514089 262.82655771 649.60874392 270.08502521 649.61249706 277.34349289 C649.62533057 302.21251897 649.63604939 327.08154461 649.63949966 351.95057392 C649.63972129 353.51056815 649.63994308 355.07056237 649.64016502 356.63055659 C649.64038565 358.19422033 649.64060614 359.75788407 649.64082646 361.32154781 C649.641269 364.45828203 649.64171612 367.59501626 649.64216614 370.73175049 C649.64227553 371.50947326 649.64238492 372.28719602 649.64249763 373.08848615 C649.64612593 398.2898317 649.66203844 423.49114845 649.6853565 448.69248298 C649.70999093 475.36550482 649.7236742 502.0385102 649.72486758 528.71154374 C649.72503902 531.64354877 649.72525445 534.5755538 649.72550201 537.50755882 C649.72555778 538.22944879 649.72561355 538.95133875 649.72567101 539.69510417 C649.72681837 551.27800093 649.73781356 562.86086797 649.75238907 574.44375472 C649.76680495 586.10202983 649.76971141 597.76025838 649.76194909 609.41854093 C649.75805493 615.72590417 649.75891168 622.03316808 649.77300644 628.34051895 C649.78581956 634.12754906 649.78448328 639.91440595 649.77241573 645.70143607 C649.77047148 647.78225239 649.77347741 649.8630813 649.78226009 651.94388 C649.85007347 669.1131514 648.75110151 686.41632656 643.71443176 702.94146729 C643.46096985 703.79684082 643.20750793 704.65221436 642.94636536 705.5335083 C630.29028259 746.61832646 600.15866324 781.89799071 562.53083801 802.41021729 C558.55136069 804.50034764 554.50221632 806.41365177 550.40193176 808.25396729 C549.71292786 808.56463135 549.02392395 808.87529541 548.31404114 809.19537354 C530.75484642 816.94541515 511.39805738 821.42659594 492.17779827 821.38539505 C491.27773342 821.38744768 490.37766858 821.38950032 489.45032904 821.39161515 C486.43651733 821.39726631 483.4227516 821.39583023 480.40893555 821.39440918 C478.22530274 821.39699391 476.04167041 821.40000737 473.85803872 821.40341258 C467.85855713 821.4114734 461.85908751 821.41327165 455.85960114 821.41401005 C449.38828532 821.41586224 442.91697569 821.42341048 436.44566345 821.43014526 C421.55663323 821.44469926 406.66760431 821.45025469 391.77856826 821.45483721 C384.41559358 821.45717523 377.05261968 821.46077815 369.68964561 821.46453259 C344.46906585 821.47736755 319.24848651 821.488086 294.02790356 821.49153519 C292.44533696 821.49175682 290.86277037 821.4919786 289.28020378 821.49220054 C287.6938817 821.49242118 286.10755963 821.49264166 284.52123755 821.49286199 C281.33897221 821.49330453 278.15670687 821.49375165 274.97444153 821.49420166 C274.18542757 821.49431105 273.39641361 821.49442044 272.58349014 821.49453315 C247.01528646 821.49816159 221.44711116 821.51407387 195.87891834 821.53739202 C168.82619389 821.5620188 141.77348566 821.57570938 114.72074968 821.5769031 C111.74774539 821.57707455 108.77474111 821.57728997 105.80173683 821.57753754 C105.06973697 821.57759331 104.3377371 821.57764907 103.58355542 821.57770653 C91.83092433 821.5788546 80.07832249 821.58985591 68.32570126 821.60442459 C56.49918723 821.61883068 44.67271367 821.62175213 32.84619322 821.61398461 C26.44592997 821.61008688 20.04576463 821.61096487 13.64551353 821.62504196 C7.77585681 821.63783347 1.90637102 821.63653741 -3.96328565 821.62445125 C-6.07642741 821.6225033 -8.1895815 821.62553047 -10.30270598 821.63429561 C-26.98280323 821.69905241 -43.17769818 820.34621885 -59.22306824 815.50396729 C-60.09221863 815.24647705 -60.96136902 814.98898682 -61.8568573 814.72369385 C-81.81060625 808.64637287 -99.28170091 799.24619665 -115.59806824 786.25396729 C-116.5274823 785.5282251 -117.45689636 784.80248291 -118.41447449 784.05474854 C-124.47272114 779.28398953 -129.65648198 774.26626792 -134.68791199 768.43365479 C-135.92604016 767.02082141 -137.18804239 765.62842296 -138.47697449 764.26177979 C-155.28900167 746.26102341 -166.33093713 722.80306457 -172.41056824 699.12896729 C-172.70290344 698.00421997 -172.70290344 698.00421997 -173.00114441 696.85675049 C-176.62453632 681.82502372 -176.88930024 666.8166127 -176.85876465 651.45079041 C-176.8617903 649.27675156 -176.86568185 647.10271378 -176.87035722 644.92867786 C-176.88059248 638.99286118 -176.87846684 633.0571052 -176.87417662 627.12128365 C-176.87170126 620.7046387 -176.88073358 614.28800806 -176.88821411 607.87136841 C-176.90136134 595.31540888 -176.90276315 582.75946849 -176.90041385 570.20350345 C-176.8985772 559.99428186 -176.90034858 549.78506653 -176.90463829 539.57584572 C-176.90524071 538.10618734 -176.9058419 536.63652895 -176.90644189 535.16687057 C-176.9073492 532.95191388 -176.90825787 530.7369572 -176.90917424 528.52200052 C-176.91759683 507.94383129 -176.92194425 487.36566442 -176.91776752 466.78749371 C-176.91761115 466.01266175 -176.91745477 465.2378298 -176.91729366 464.4395181 C-176.91648794 460.51286113 -176.91564217 456.58620418 -176.91478036 452.65954723 C-176.91460927 451.87977821 -176.91443818 451.1000092 -176.91426191 450.29661082 C-176.91391525 448.71973107 -176.91356672 447.14285132 -176.91321632 445.56597157 C-176.90785985 421.03300084 -176.91579028 396.50006607 -176.93424988 371.96710205 C-176.95499215 344.36849359 -176.9656884 316.76990739 -176.96167439 289.1712907 C-176.96127908 286.22537252 -176.96091753 283.27945433 -176.96057701 280.33353615 C-176.96048628 279.60824089 -176.96039555 278.88294563 -176.96030207 278.13567172 C-176.95913893 267.21445358 -176.96576264 256.29325802 -176.97638893 245.37204552 C-176.98846982 232.94361372 -176.98968982 220.51523501 -176.97759876 208.08680233 C-176.97172135 201.75129427 -176.97057925 195.41588293 -176.98260117 189.08038139 C-176.99349765 183.27025269 -176.99031193 177.460301 -176.97633948 171.65018044 C-176.97370292 169.5588137 -176.97602599 167.46743291 -176.98407535 165.37608 C-177.04362312 148.73739992 -175.65451645 132.57638748 -170.84806824 116.56646729 C-170.5913031 115.69546387 -170.33453796 114.82446045 -170.06999207 113.92706299 C-162.20573002 88.10626636 -147.53457199 65.35943092 -128.59806824 46.25396729 C-127.87828796 45.52016846 -127.87828796 45.52016846 -127.14396667 44.77154541 C-107.33044312 24.81529183 -81.06006076 10.89205874 -53.78556824 4.44146729 C-52.58081848 4.14913208 -52.58081848 4.14913208 -51.35173035 3.85089111 C-34.53603095 0.15908444 -17.13531212 -0.04196721 0 0 Z M-89.59806824 89.25396729 C-105.0381044 105.56569607 -114.77685035 127.81720816 -114.729496 150.33688259 C-114.73154864 151.24596838 -114.73360127 152.15505417 -114.7357161 153.09168801 C-114.7413857 156.14819031 -114.73992889 159.20464754 -114.73851013 162.26115417 C-114.7410938 164.47066044 -114.74410696 166.68016624 -114.74751353 168.88967139 C-114.75558677 174.96980355 -114.75737329 181.04992391 -114.758111 187.13006079 C-114.75977108 193.0115775 -114.76608882 198.89308806 -114.77218941 204.77460157 C-114.78824395 220.53221549 -114.79415232 236.28982843 -114.79893816 252.04744906 C-114.80127491 259.504304 -114.80487768 266.96115817 -114.80863354 274.4180125 C-114.82146929 299.95130409 -114.83218788 325.48459524 -114.83563614 351.01788998 C-114.83585777 352.62053956 -114.83607955 354.22318914 -114.83630149 355.82583872 C-114.83652213 357.43233021 -114.83674261 359.03882171 -114.83696294 360.6453132 C-114.83740549 363.86813605 -114.8378526 367.09095889 -114.83830261 370.31378174 C-114.838412 371.11285356 -114.83852139 371.91192538 -114.8386341 372.7352115 C-114.84226343 398.63575109 -114.85817866 424.53626267 -114.88149298 450.43679153 C-114.90610563 477.82985088 -114.91980967 505.22289422 -114.92100406 532.61596495 C-114.92117551 535.62487734 -114.92139093 538.63378972 -114.92163849 541.6427021 C-114.92169426 542.38356356 -114.92175003 543.12442502 -114.92180748 543.88773683 C-114.92295676 555.79561992 -114.93396835 567.7034742 -114.94852554 579.61134757 C-114.96291342 591.58814312 -114.96611463 603.56490187 -114.95808557 615.54170369 C-114.95418134 622.02651813 -114.95509773 628.51123592 -114.96914291 634.99603844 C-114.98189521 640.93834837 -114.98067245 646.88048917 -114.9685522 652.82279892 C-114.96659751 654.96688465 -114.96966301 657.11098241 -114.97839656 659.25505125 C-115.08721339 687.78714893 -108.23979965 712.44815367 -88.23039246 733.6260376 C-80.8122618 741.02419722 -72.02418957 746.74638065 -62.59806824 751.25396729 C-61.50752136 751.77861572 -60.41697449 752.30326416 -59.29338074 752.84381104 C-45.51659447 759.11853886 -31.37515586 761.42058805 -16.34344864 761.38260174 C-15.45225098 761.38435478 -14.56105333 761.38610781 -13.64284968 761.38791397 C-10.66528065 761.39255508 -7.68776085 761.39011335 -4.71018982 761.38768005 C-2.55029153 761.38954897 -0.39039358 761.39185 1.76950383 761.39454538 C7.69850023 761.4006597 13.62748253 761.40053021 19.55648136 761.399351 C25.95336181 761.3991469 32.35023774 761.40466661 38.74711609 761.40940857 C51.27728603 761.41771359 63.80745112 761.4204763 76.33762357 761.42102095 C86.52274896 761.42148076 96.70787284 761.42354053 106.89299774 761.42672157 C109.82642595 761.42761914 112.75985416 761.42850895 115.69328237 761.42939645 C116.42257299 761.4296175 117.15186361 761.42983855 117.90325395 761.43006629 C138.41247062 761.43621913 158.92168676 761.44016699 179.43090439 761.43972301 C180.20390118 761.43970744 180.97689797 761.43969186 181.77331891 761.43967581 C185.69104978 761.4395927 189.60878065 761.43949366 193.52651152 761.4393911 C194.69359216 761.43936118 194.69359216 761.43936118 195.88425019 761.43933066 C197.45766394 761.43929022 199.03107769 761.43924842 200.60449145 761.43920527 C225.08255041 761.43859256 249.56059552 761.44609888 274.03865051 761.45977783 C301.54961713 761.47514537 329.06057465 761.48374366 356.57154584 761.48281461 C359.50623147 761.48273998 362.44091709 761.48269127 365.37560272 761.48266029 C366.09817857 761.48264864 366.82075442 761.48263698 367.56522651 761.48262498 C379.1822943 761.48259423 390.79935005 761.48897411 402.41641426 761.49759256 C414.09595049 761.50607803 425.77546518 761.50688071 437.45500323 761.50048324 C443.77957438 761.49721713 450.10410196 761.4971647 456.42866898 761.50583649 C462.22207415 761.51369824 468.01540116 761.51227329 473.80880442 761.50355235 C475.90094702 761.50201667 477.99309543 761.50383611 480.08523116 761.50941243 C511.17987057 761.58678044 537.59338801 754.00211351 560.65193176 732.44146729 C569.27484134 723.38287385 575.30217815 712.57195833 580.40193176 701.25396729 C580.8028302 700.36451416 581.20372864 699.47506104 581.61677551 698.55865479 C587.80918486 683.27625588 587.83923108 666.63935813 587.77615356 650.42460632 C587.77889989 648.27216412 587.78295686 646.11972327 587.78819722 643.96728569 C587.79870884 638.10050091 587.79070421 632.23387017 587.77944672 626.36709225 C587.77055878 620.02141444 587.77906142 613.67575579 587.78530884 607.33007812 C587.7942262 595.6340117 587.78965546 583.93800068 587.77814502 572.24193789 C587.76758285 561.43505656 587.76307284 550.62819267 587.76444054 539.82130623 C587.76452457 539.10272399 587.7646086 538.38414175 587.76469517 537.64378429 C587.76504746 534.7263795 587.76543148 531.80897471 587.76586075 528.89156992 C587.76982012 501.55996904 587.75713462 474.22839896 587.73633419 446.89680689 C587.71796467 422.64549126 587.712153 398.39420514 587.71760559 374.1428833 C587.71795203 372.5854249 587.71829812 371.02796649 587.71864388 369.47050809 C587.71881488 368.70050814 587.71898587 367.93050819 587.71916205 367.13717491 C587.72001567 363.26060856 587.72083945 359.38404221 587.72163105 355.50747585 C587.72178813 354.74258819 587.72194521 353.97770053 587.72210705 353.18963446 C587.72610213 332.88894656 587.7206148 312.58826148 587.71211976 292.2875753 C587.71121278 290.10175122 587.71030713 287.91592713 587.70940453 285.73010304 C587.70880342 284.28026056 587.7081948 282.83041808 587.70757862 281.3805756 C587.70336685 271.29711659 587.70277497 261.21366316 587.70468411 251.13020356 C587.7071329 238.13271896 587.70279517 225.13526899 587.68747411 212.13779192 C587.68025057 205.87544922 587.67613565 199.61314763 587.68071747 193.35080147 C587.68481544 187.60996893 587.67956749 181.86922103 587.66709139 176.12840129 C587.66418108 174.06001187 587.66457038 171.99161439 587.66873447 169.92322712 C587.72392998 139.74955029 583.35003568 113.12636895 561.83943176 90.56646729 C561.03505676 89.80334229 560.23068176 89.04021729 559.40193176 88.25396729 C558.96236145 87.75896729 558.52279114 87.26396729 558.06990051 86.75396729 C539.76765091 66.73732974 513.31542665 60.90021565 487.40193176 59.25396729 C480.19083859 58.95052262 472.97704623 58.98650787 465.76107788 59.00672913 C463.66578162 59.00513632 461.57048587 59.00266809 459.47519153 58.99941272 C453.78044451 58.99306466 448.08576977 58.99901596 442.39102757 59.007177 C436.22542495 59.01380532 430.05982975 59.0087945 423.89422607 59.0052948 C413.22959996 59.00085164 402.56499919 59.00369907 391.90037727 59.01194191 C380.7171007 59.02058342 369.53383357 59.02546143 358.35055351 59.02527428 C357.65253732 59.02526663 356.95452113 59.02525899 356.23535293 59.02525111 C353.40139258 59.02521019 350.56743224 59.02514458 347.7334719 59.0250453 C321.19953478 59.02414109 294.665612 59.03405641 268.13167986 59.04947496 C244.58479885 59.06310733 221.03792801 59.06933571 197.49104309 59.06866455 C195.97792499 59.06862414 194.46480688 59.06858378 192.95168877 59.06854347 C192.20361082 59.06852312 191.45553287 59.06850277 190.68478588 59.0684818 C186.91863667 59.068381 183.15248745 59.06829042 179.38633823 59.06821156 C178.64324449 59.06819484 177.90015076 59.06817813 177.13453902 59.06816091 C157.42161489 59.06779542 137.70869203 59.07233755 117.99576896 59.07853812 C117.29423217 59.07875839 116.59269538 59.07897866 115.86989989 59.07920561 C113.04925061 59.08009377 110.22860132 59.08098218 107.40795204 59.08189657 C97.61541148 59.08505001 87.82287192 59.08656497 78.03033089 59.08700806 C65.41330314 59.08760618 52.79628439 59.0917338 40.17925955 59.10143951 C34.09955143 59.10604676 28.01985357 59.10910694 21.94014359 59.10784531 C16.36985002 59.10674544 10.79957909 59.11029802 5.22929024 59.11749383 C3.21958875 59.11929788 1.2098849 59.11944657 -0.79981666 59.11772654 C-35.13266007 59.09160657 -64.25704754 64.28798781 -89.59806824 89.25396729 Z " fill="#8D09F8" transform="translate(275.5980682373047,101.74603271484375)"/>
<path d="M0 0 C0.33 0 0.66 0 1 0 C1.15291055 22.15714605 1.30042063 44.31432502 1.44488156 66.4715277 C1.48137051 72.05766972 1.51846787 77.64380732 1.55605233 83.22994208 C2.0650761 158.89431752 2.0650761 158.89431752 1.9609375 190.8515625 C1.95496186 192.97842403 1.94900041 195.1052856 1.9430542 197.23214722 C1.91732563 205.63060523 1.88169858 214.02864168 1.80809402 222.42682552 C1.60170951 247.38349155 2.20160503 271.33614543 11 295 C11.23662354 295.66628418 11.47324707 296.33256836 11.71704102 297.01904297 C13.46434267 301.86343239 15.58940755 306.42010159 17.9375 311 C18.61328125 312.33333333 19.2890625 313.66666667 19.96484375 315 C20.2985498 315.65097656 20.63225586 316.30195312 20.97607422 316.97265625 C21.69151887 318.38921618 22.38974285 319.81454663 23.07470703 321.24609375 C23.42259277 321.96925781 23.77047852 322.69242188 24.12890625 323.4375 C24.44029541 324.09621094 24.75168457 324.75492188 25.07250977 325.43359375 C25.91850877 327.18499427 25.91850877 327.18499427 28 328 C28 328.99 28 329.98 28 331 C28.66 331 29.32 331 30 331 C30.7734375 332.485 30.7734375 332.485 31.5625 334 C33.76414955 337.90256292 36.55868146 341.03859004 39.609375 344.30078125 C41 346 41 346 41 348 C41.66 348 42.32 348 43 348 C43 348.66 43 349.32 43 350 C43.66 350 44.32 350 45 350 C46.2265625 351.28515625 46.2265625 351.28515625 47.625 353.0625 C58.98768946 366.61136011 76.68171483 378.41542879 93 385 C94.09248047 385.53367187 94.09248047 385.53367187 95.20703125 386.078125 C113.04221221 394.73544786 132.01452709 398.78350307 151.72408581 399.56628227 C152.72613785 399.60756919 153.72818988 399.64885611 154.76060713 399.69139414 C165.06299932 400.08664652 175.35601095 400.13976888 185.66462708 400.12698364 C187.73817414 400.12813965 189.811721 400.12973037 191.88526744 400.13171089 C197.51074546 400.13583813 203.13620626 400.13384384 208.7616843 400.13072467 C214.85643363 400.12844361 220.95118019 400.13196349 227.04592896 400.13470459 C238.26952826 400.13887707 249.49312213 400.13854 260.71672132 400.13579312 C271.08597099 400.13326806 281.45521869 400.13262528 291.82446861 400.13381577 C292.86001833 400.13393034 292.86001833 400.13393034 293.91648825 400.13404724 C296.71952627 400.13435862 299.52256429 400.13467702 302.32560231 400.135007 C328.56347794 400.13805885 354.80135013 400.13530361 381.03922523 400.1299101 C404.31122686 400.12516264 427.58322302 400.12559217 450.85522461 400.13037109 C477.05558868 400.13573349 503.25594972 400.13784496 529.45631427 400.13475883 C532.25241291 400.13443815 535.04851156 400.13412531 537.84461021 400.13381577 C538.53298548 400.13373669 539.22136075 400.13365761 539.93059588 400.13357614 C550.2926323 400.13244213 560.65466653 400.1337624 571.01670265 400.13629532 C582.80341836 400.13916229 594.59012884 400.13832756 606.37684415 400.13301457 C612.3841531 400.13039548 618.39145098 400.12934205 624.39875984 400.13266373 C629.90750078 400.13566357 635.41622047 400.133973 640.9249595 400.12868617 C642.90775525 400.12757767 644.89055283 400.12811796 646.87334738 400.13056196 C670.61152726 400.21112054 670.61152726 400.21112054 694.125 397.3125 C695.04676025 397.13952393 695.96852051 396.96654785 696.91821289 396.78833008 C705.35651207 395.1027214 713.14046178 392.46390543 721 389 C721.65081543 388.71721191 722.30163086 388.43442383 722.97216797 388.14306641 C733.50783584 383.52451462 743.38992515 378.30723195 752.40625 371.1015625 C754 370 754 370 756 370 C756 369.34 756 368.68 756 368 C756.94875 367.54625 757.8975 367.0925 758.875 366.625 C763.65503061 363.94661884 767.13303215 359.9999108 770.86328125 356.046875 C773 354 773 354 775 354 C775 353.34 775 352.68 775 352 C776.6436814 350.31066078 778.3142876 348.64740076 780 347 C780.66 346.175 781.32 345.35 782 344.5 C784 342 784 342 786.35546875 339.71875 C797.17562162 328.59492962 809.40247089 310.31175055 812 295 C812.66 295 813.32 295 814 295 C814.10957031 294.42894531 814.21914063 293.85789062 814.33203125 293.26953125 C815.49876159 287.30308098 816.81614125 281.38409996 818.21875 275.46875 C818.4765625 274.3240625 818.734375 273.179375 819 272 C819.16474823 271.27365073 819.32949646 270.54730146 819.49923706 269.79894161 C820.73124319 264.06454435 821.32935826 258.60718687 821.4140625 252.75024414 C821.43347397 251.8680036 821.45288544 250.98576305 821.47288513 250.07678795 C821.53388269 247.12550702 821.58016937 244.17422447 821.625 241.22265625 C821.64368134 240.17583239 821.66236267 239.12900852 821.68161011 238.05046272 C822.25652265 205.76007366 822.06878222 173.46023143 821.99479675 141.16633606 C821.96907792 129.9012603 821.94833892 118.63619439 821.9375 107.37109375 C821.93631605 106.27211549 821.93631605 106.27211549 821.93510818 105.15093565 C821.90266851 72.76062325 822.36920218 40.38367482 823 8 C823.33 8 823.66 8 824 8 C824.83660894 57.1124235 825.21506912 106.2177178 825.23882818 155.33716476 C825.2436007 165.02508003 825.26144083 174.71285939 825.2898953 184.40073365 C825.31160764 192.07039329 825.32160236 199.74001452 825.32293582 207.40970451 C825.32396745 211.92034979 825.32952727 216.43086164 825.34775543 220.94147301 C825.51364394 264.34175938 825.51364394 264.34175938 819.3125 284.6875 C819.05903809 285.54287354 818.80557617 286.39824707 818.54443359 287.27954102 C805.88835083 328.36435918 775.75673147 363.64402343 738.12890625 384.15625 C734.14942893 386.24638036 730.10028456 388.15968449 726 390 C725.31099609 390.31066406 724.62199219 390.62132812 723.91210938 390.94140625 C706.35291466 398.69144787 686.99612562 403.17262865 667.77586651 403.13142776 C666.42576924 403.13450672 666.42576924 403.13450672 665.04839727 403.13764787 C662.03458557 403.14329902 659.02081984 403.14186294 656.00700378 403.14044189 C653.82337098 403.14302662 651.63973864 403.14604008 649.45610696 403.1494453 C643.45662537 403.15750611 637.45715574 403.15930436 631.45766938 403.16004276 C624.98635356 403.16189495 618.51504393 403.1694432 612.04373169 403.17617798 C597.15470147 403.19073198 582.26567254 403.1962874 567.37663649 403.20086992 C560.01366182 403.20320795 552.65068792 403.20681086 545.28771385 403.2105653 C520.06713409 403.22340026 494.84655475 403.23411871 469.62597179 403.2375679 C468.0434052 403.23778953 466.46083861 403.23801132 464.87827202 403.23823325 C463.29194994 403.23845389 461.70562786 403.23867437 460.11930579 403.2388947 C456.93704045 403.23933724 453.75477511 403.23978436 450.57250977 403.24023438 C449.78349581 403.24034377 448.99448185 403.24045316 448.18155838 403.24056586 C422.61335469 403.2441943 397.0451794 403.26010658 371.47698658 403.28342474 C344.42426213 403.30805151 317.3715539 403.32174209 290.31881791 403.32293582 C287.34581363 403.32310726 284.37280935 403.32332269 281.39980507 403.32357025 C280.6678052 403.32362602 279.93580534 403.32368179 279.18162366 403.32373925 C267.42899257 403.32488732 255.67639073 403.33588862 243.9237695 403.35045731 C232.09725547 403.36486339 220.2707819 403.36778484 208.44426145 403.36001733 C202.04399821 403.35611959 195.64383287 403.35699758 189.24358177 403.37107468 C183.37392505 403.38386618 177.50443926 403.38257013 171.63478259 403.37048396 C169.52164083 403.36853602 167.40848674 403.37156319 165.29536226 403.38032833 C148.615265 403.44508513 132.42037006 402.09225157 116.375 397.25 C115.50584961 396.99250977 114.63669922 396.73501953 113.74121094 396.46972656 C93.78746199 390.39240558 76.31636732 380.99222936 60 368 C59.07058594 367.27425781 58.14117187 366.54851562 57.18359375 365.80078125 C51.1253471 361.03002224 45.94158626 356.01230063 40.91015625 350.1796875 C39.67202808 348.76685413 38.41002584 347.37445568 37.12109375 346.0078125 C20.30906657 328.00705612 9.26713111 304.54909728 3.1875 280.875 C2.89516479 279.75025269 2.89516479 279.75025269 2.59692383 278.6027832 C-1.23042897 262.72491988 -1.28499402 246.86561662 -1.24291992 230.63671875 C-1.24399482 228.21387175 -1.24593657 225.79102501 -1.24867249 223.36817932 C-1.25299059 217.50954729 -1.2481258 211.65097736 -1.23882218 205.79235226 C-1.22836416 198.95787421 -1.22851028 192.12340804 -1.22899476 185.2889235 C-1.2294936 173.09348261 -1.22037987 160.8980681 -1.20581055 148.70263672 C-1.19170189 136.88655111 -1.18464099 125.07048868 -1.18530273 113.25439453 C-1.18534269 112.52533342 -1.18538265 111.79627232 -1.18542381 111.04511845 C-1.18546417 110.31727489 -1.18550452 109.58943133 -1.1855461 108.8395319 C-1.18623659 95.35094237 -1.18034549 81.86236261 -1.17139288 68.37377626 C-1.16838372 63.61591359 -1.16731421 58.85805272 -1.16686058 54.10018921 C-1.16610568 47.6978917 -1.1597448 41.29561364 -1.14969444 34.8933239 C-1.14677668 32.54556362 -1.14554261 30.19780055 -1.14612198 27.85003853 C-1.14661376 24.6438151 -1.14094636 21.4376593 -1.13371277 18.23144531 C-1.13526137 17.30459773 -1.13680997 16.37775015 -1.1384055 15.42281628 C-1.11894047 10.19225183 -0.75738263 5.1769492 0 0 Z " fill="#5D08D6" transform="translate(100,520)"/>
<path d="M0 0 C0.33 0 0.66 0 1 0 C1.00021737 1.10464619 1.00043474 2.20929239 1.00065869 3.34741271 C1.01057366 52.06831841 1.02671416 100.78921668 1.07429504 149.51010132 C1.0750145 150.24858601 1.07573395 150.9870707 1.0764752 151.74793372 C1.09215067 167.80010268 1.10893343 183.85227031 1.12685562 199.90443692 C1.13563889 207.77727413 1.14417766 215.6501116 1.15258789 223.52294922 C1.15342894 224.30635978 1.15426999 225.08977033 1.15513652 225.8969206 C1.18224588 251.25510088 1.19323423 276.61325676 1.19579524 301.97145041 C1.19851432 328.04668334 1.21763166 354.12185468 1.25716115 380.19705902 C1.26274647 383.8863608 1.26814579 387.57566284 1.27343178 391.26496506 C1.27447781 391.9910189 1.27552385 392.71707275 1.27660158 393.46512823 C1.29291178 405.11719 1.29211416 416.76918978 1.28479717 428.42125804 C1.27779717 440.15698876 1.28950941 451.89258268 1.3186629 463.62827988 C1.33390028 469.9782753 1.34123521 476.32801007 1.32659721 482.67801285 C1.3133438 488.50571528 1.3235394 494.3329151 1.35143773 500.16056149 C1.35749498 502.25514454 1.35536174 504.34977312 1.34362926 506.44433208 C1.208692 532.60698785 6.76298193 557.68711828 24 578 C24.97066406 579.21236328 24.97066406 579.21236328 25.9609375 580.44921875 C41.08605144 598.63022306 65.57799733 608.2917037 88.54823318 610.7879102 C92.45250995 611.1256492 96.33796121 611.13853216 100.2546196 611.12863445 C101.14581725 611.13038749 102.03701491 611.13214053 102.95521855 611.13394669 C105.93278759 611.13858779 108.91030739 611.13614607 111.88787842 611.13371277 C114.04777671 611.13558169 116.20767465 611.13788272 118.36757207 611.14057809 C124.29656847 611.14669242 130.22555076 611.14656293 136.1545496 611.14538372 C142.55143005 611.14517962 148.94830598 611.15069933 155.34518433 611.15544128 C167.87535427 611.1637463 180.40551935 611.16650902 192.9356918 611.16705366 C203.1208172 611.16751348 213.30594108 611.16957325 223.49106598 611.17275429 C226.42449419 611.17365185 229.35792239 611.17454167 232.2913506 611.17542917 C233.02064123 611.17565021 233.74993185 611.17587126 234.50132219 611.17609901 C255.01053886 611.18225185 275.51975499 611.18619971 296.02897263 611.18575573 C296.80196942 611.18574015 297.57496621 611.18572457 298.37138715 611.18570852 C302.28911802 611.18562542 306.20684889 611.18552638 310.12457976 611.18542381 C311.2916604 611.1853939 311.2916604 611.1853939 312.48231843 611.18536337 C314.05573218 611.18532294 315.62914593 611.18528114 317.20255968 611.18523798 C341.68061864 611.18462527 366.15866375 611.1921316 390.63671875 611.20581055 C418.14768537 611.22117809 445.65864289 611.22977637 473.16961408 611.22884732 C476.1042997 611.2287727 479.03898533 611.22872399 481.97367096 611.22869301 C482.69624681 611.22868135 483.41882266 611.2286697 484.16329475 611.22865769 C495.78036254 611.22862695 507.39741829 611.23500682 519.0144825 611.24362527 C530.69401872 611.25211074 542.37353342 611.25291342 554.05307147 611.24651595 C560.37764262 611.24324985 566.7021702 611.24319741 573.02673721 611.2518692 C578.82014239 611.25973095 584.6134694 611.258306 590.40687266 611.24958507 C592.49901525 611.24804938 594.59116367 611.24986882 596.68329939 611.25544515 C625.5858674 611.32735896 650.67885898 605.06926333 673 586 C673.67417969 585.42765625 674.34835937 584.8553125 675.04296875 584.265625 C684.48059549 575.54067945 690.78682643 563.56970636 696 552 C696.40089844 551.11054687 696.80179688 550.22109375 697.21484375 549.3046875 C703.28600334 534.32152383 703.44689703 517.95571769 703.43237305 502.04638672 C703.4414142 500.01419488 703.45174707 497.98200845 703.46325684 495.9498291 C703.49057688 490.49237653 703.50007697 485.03502811 703.50611091 479.57751608 C703.51556038 473.85202081 703.54176853 468.12660137 703.56611633 462.40115356 C703.60960553 451.58573182 703.63826008 440.77032495 703.66143972 429.95484269 C703.68858618 417.63055274 703.73249148 405.30633976 703.77772844 392.98210502 C703.87032265 367.65477854 703.94211826 342.32742794 704 317 C704.33 317 704.66 317 705 317 C705.75685749 342.1824043 706.20508935 367.35352631 706.36918616 392.54653621 C706.38704269 395.26414386 706.40585479 397.98174341 706.42493629 400.69934273 C706.49158944 410.21937877 706.55393101 419.73943273 706.61254883 429.25952148 C706.66702941 438.08527727 706.73221961 446.91091399 706.80188721 455.73656172 C706.86175523 463.38743884 706.91379051 471.03834397 706.95981437 478.68931681 C706.98728139 483.22908297 707.01796133 487.76877042 707.05682945 492.30845451 C707.09290728 496.54826693 707.11924587 500.78802931 707.1381073 505.02795219 C707.14666118 506.57796066 707.15868554 508.12795458 707.17449379 509.67790604 C707.19556922 511.7973405 707.20395598 513.91647108 707.20927429 516.03599548 C707.2171934 517.2190776 707.22511251 518.40215971 707.2332716 519.6210928 C706.97808734 523.31740191 706.10071872 526.47068849 705 530 C704.54035177 532.55861994 704.10368491 535.12145194 703.6875 537.6875 C701.68886662 548.96913924 697.17707301 558.40006436 691 568 C690.56171875 568.72574219 690.1234375 569.45148437 689.671875 570.19921875 C682.43004503 581.79030868 673.03144598 590.16103552 662 598 C661.16339844 598.6909375 660.32679688 599.381875 659.46484375 600.09375 C652.18539977 605.72349432 642.67795828 608.29991168 634 611 C632.865625 611.37125 631.73125 611.7425 630.5625 612.125 C619.46623566 614.85039826 609.04445882 615.13775883 597.65673828 615.02954102 C591.74678227 614.9782349 585.95004897 615.04998214 580.0625 615.5625 C574.89963931 615.98846488 569.90457546 615.887747 564.74731445 615.53564453 C552.16354317 614.78435616 539.58224052 614.85536162 526.98046875 614.8671875 C524.4212493 614.86651229 521.86202991 614.86554046 519.30281067 614.86428833 C513.98043132 614.86282505 508.65806945 614.86482567 503.33569336 614.86962891 C497.19776272 614.87510442 491.05986514 614.87327751 484.92193526 614.8678025 C478.97546883 614.86271289 473.02901262 614.86325624 467.08254433 614.86618423 C464.56715198 614.86685017 462.05175877 614.86603675 459.53636742 614.86370468 C456.03358076 614.86116589 452.53085806 614.86503444 449.02807617 614.87060547 C447.99481201 614.86858124 446.96154785 614.86655701 445.89697266 614.86447144 C441.13427552 614.87850731 436.69215195 615.09148183 432 616 C429.37962962 616.00414179 426.80180601 615.95742208 424.1875 615.84375 C423.4555542 615.81776733 422.7236084 615.79178467 421.96948242 615.76501465 C418.86243094 615.65453361 415.75598069 615.52999425 412.64941406 615.40673828 C410.37059508 615.31835641 408.09159481 615.23715348 405.8125 615.15625 C405.11858154 615.12607788 404.42466309 615.09590576 403.7097168 615.06481934 C400.77859396 614.96137425 398.06288373 614.98906662 395.16864014 615.49227905 C391.91869056 616.01302846 388.88446552 616.12700904 385.59472656 616.12939453 C384.33317749 616.13250641 383.07162842 616.13561829 381.77185059 616.13882446 C380.39477512 616.13701865 379.0176999 616.13500858 377.640625 616.1328125 C376.19453913 616.13382883 374.74845346 616.13516868 373.30236816 616.1368103 C369.42368576 616.13951037 365.54504339 616.13503827 361.66636658 616.12857056 C359.24229819 616.12498862 356.81823575 616.12337881 354.39416504 616.12231445 C333.52223678 616.1109362 312.66482082 615.9259745 291.79806519 615.42980957 C275.46845813 615.04387989 259.14669854 614.88777606 242.8125 614.875 C241.7047522 614.87250244 240.59700439 614.87000488 239.45568848 614.86743164 C236.33110353 614.86157356 233.20661711 614.86300031 230.08203125 614.8671875 C229.16156509 614.86520355 228.24109894 614.8632196 227.29273987 614.86117554 C223.53303641 614.87475998 220.03285294 614.99492164 216.30737305 615.57080078 C213 616 213 616 210.00727844 615.53292847 C204.88065916 614.7390373 199.75198225 614.87706669 194.57617188 614.90234375 C193.44522598 614.90380402 192.31428009 614.90526428 191.14906311 614.9067688 C188.70134543 614.91056482 186.25363047 614.91667083 183.80592346 614.92483521 C179.93046519 614.93762636 176.05504126 614.9441215 172.17956543 614.94897461 C163.95302799 614.96039046 155.72651932 614.97957885 147.5 615 C137.96562305 615.02366772 128.43126608 615.04399917 118.89686584 615.05593872 C115.08189718 615.06241403 111.26697856 615.07492163 107.45202637 615.08764648 C105.10929406 615.09127969 102.7665613 615.09463134 100.42382812 615.09765625 C98.83701988 615.10540573 98.83701988 615.10540573 97.21815491 615.11331177 C89.95646702 615.11383203 83.77638667 614.78655153 77 612 C74.62788093 611.48650599 72.25245688 610.98818416 69.875 610.5 C47.38571084 605.28810461 26.91478836 589.89660924 14.6875 570.5 C13.43899538 568.34441856 12.20885301 566.17806555 11 564 C10.45601562 563.06929687 9.91203125 562.13859375 9.3515625 561.1796875 C0.56322203 545.16438684 -0.73426223 528.37958156 -0.60127258 510.48042297 C-0.60345783 508.2655032 -0.60784465 506.05058471 -0.61421841 503.83567303 C-0.62531222 497.80139279 -0.60551859 491.76756265 -0.58032811 485.73333967 C-0.56085167 479.87858448 -0.56514054 474.0238763 -0.56873732 468.16909684 C-0.57527823 456.2065721 -0.55870926 444.24418636 -0.52865028 432.28170204 C-0.49899469 420.44923524 -0.47980639 408.61682643 -0.47438622 396.78432274 C-0.47404252 396.04670596 -0.47369882 395.30908918 -0.47334471 394.54912037 C-0.47165288 390.8026467 -0.47014602 387.05617298 -0.46871033 383.3096992 C-0.45822762 356.82125429 -0.42459509 330.33288486 -0.37719727 303.84448242 C-0.33122418 278.12248128 -0.29583112 252.40050084 -0.2746582 226.6784668 C-0.27400057 225.88463399 -0.27334294 225.09080119 -0.27266538 224.27291285 C-0.26607239 216.30041361 -0.25969338 208.32791422 -0.25347109 200.35541469 C-0.24079238 184.11667734 -0.22668612 167.87794133 -0.2117157 151.63920593 C-0.21102925 150.89268885 -0.2103428 150.14617176 -0.20963555 149.37703294 C-0.16368609 99.58465658 -0.08436198 49.79232449 0 0 Z " fill="#6407DA" transform="translate(159,251)"/>
<path d="M0 0 C0.33 0 0.66 0 1 0 C1.17332514 30.51468051 1.3361239 61.02939648 1.48431293 91.54420852 C1.50183375 95.15015958 1.51944394 98.75611019 1.53710938 102.36206055 C1.54062461 103.07991329 1.54413985 103.79776604 1.5477616 104.5373719 C1.60482585 116.14709023 1.66912223 127.75675775 1.736111 139.36642257 C1.80473171 151.28694363 1.86553485 163.20748625 1.91914403 175.12808436 C1.94946303 181.82035083 1.98359964 188.51255142 2.02626419 195.20475197 C2.06633185 201.5075045 2.09673098 207.81023072 2.11981392 214.11306763 C2.12995796 216.42248551 2.14359111 218.73189121 2.16103554 221.04126549 C2.18439166 224.2035209 2.19498671 227.36558116 2.20254517 230.52790833 C2.2122618 231.43358561 2.22197843 232.33926289 2.2319895 233.27238494 C2.22255723 249.5646174 -2.7768829 259.47874208 -14 271 C-14.67337402 271.69383789 -15.34674805 272.38767578 -16.04052734 273.10253906 C-18.3304195 275.4524956 -20.63142237 277.79092897 -22.9375 280.125 C-23.69579102 280.89650391 -24.45408203 281.66800781 -25.23535156 282.46289062 C-26.3080127 283.53700195 -26.3080127 283.53700195 -27.40234375 284.6328125 C-28.04679443 285.28137207 -28.69124512 285.92993164 -29.35522461 286.59814453 C-31 288 -31 288 -33 288 C-33.39288208 288.88860718 -33.39288208 288.88860718 -33.79370117 289.79516602 C-35.06573268 292.12014406 -36.34893173 293.49988628 -38.30078125 295.27734375 C-38.94853516 295.87353516 -39.59628906 296.46972656 -40.26367188 297.08398438 C-40.93978516 297.69564453 -41.61589844 298.30730469 -42.3125 298.9375 C-43.64267076 300.15413534 -44.97211221 301.37156858 -46.30078125 302.58984375 C-46.93709473 303.1722583 -47.5734082 303.75467285 -48.22900391 304.35473633 C-50.54842079 306.50948548 -52.77887639 308.74447 -55 311 C-67.09837375 323.2637812 -80.79622827 327.17806438 -97.62214661 327.36056519 C-99.17093679 327.36763182 -100.71974841 327.37092881 -102.26855469 327.37060547 C-104.62767404 327.37500499 -106.98495669 327.41150548 -109.34375 327.44921875 C-117.0550058 327.50676772 -123.44383521 327.54917557 -130 323 C-135.24730383 317.75269617 -136.24269191 312.09342478 -136.30297852 304.86474609 C-136.31141785 304.1777916 -136.31985718 303.4908371 -136.32855225 302.7830658 C-136.35418112 300.52984871 -136.36643507 298.27676231 -136.37890625 296.0234375 C-136.39509541 294.44974754 -136.41227688 292.8760675 -136.43040466 291.30239868 C-136.47596697 287.17106724 -136.51083669 283.03972222 -136.54260254 278.90826416 C-136.59459338 272.28900067 -136.65973098 265.66988336 -136.73081779 259.05080032 C-136.75359974 256.74199978 -136.76990129 254.4332177 -136.78553772 252.12435913 C-136.79894693 250.7083923 -136.81256195 249.29242739 -136.82641602 247.87646484 C-136.83592789 246.64213715 -136.84543976 245.40780945 -136.85523987 244.13607788 C-136.97544359 241.53198915 -137.32358806 239.48546217 -138 237 C-149.5855966 236.25726302 -161.10532269 235.85677536 -172.71337891 235.88647461 C-174.3098351 235.88675558 -175.90629142 235.88658977 -177.50274754 235.88602352 C-181.83239051 235.88573161 -186.16200525 235.8916096 -190.49164176 235.89859343 C-195.18276541 235.90502624 -199.87389032 235.90554111 -204.5650177 235.9067688 C-212.67598922 235.90964221 -220.78695152 235.91605929 -228.8979187 235.92483521 C-240.63560501 235.93744143 -252.37328795 235.94347783 -264.11097991 235.94776857 C-283.17343592 235.95481997 -302.23588764 235.96561048 -321.29833984 235.97949219 C-322.4369244 235.98032 -323.57550895 235.98114781 -324.74859607 235.98200071 C-332.83239746 235.98790243 -340.91619874 235.9939378 -349 236 C-358.24820957 236.00693224 -367.49641918 236.01379816 -376.74462891 236.02050781 C-377.88423915 236.02133594 -379.02384939 236.02216407 -380.19799328 236.02301729 C-399.20315873 236.03670545 -418.20832427 236.04646232 -437.21349335 236.05341816 C-448.9226494 236.05789476 -460.63179278 236.06592527 -472.34094292 236.07856297 C-480.357826 236.08699222 -488.37470617 236.09188027 -496.3915934 236.09398818 C-501.01462292 236.09533199 -505.63763606 236.09833289 -510.26066017 236.10574722 C-514.49547272 236.11251336 -518.73026163 236.11462873 -522.96507907 236.11311162 C-524.49364691 236.11338221 -526.02221564 236.11534336 -527.55077863 236.1192044 C-551.44447534 236.17673889 -551.44447534 236.17673889 -559.75 228.4375 C-566.03444274 220.31160166 -564.28035985 207.28743864 -564.24291992 197.56396484 C-564.24399491 195.93164494 -564.2459368 194.29932541 -564.24867249 192.66700745 C-564.25348861 188.2642641 -564.24590615 183.8616233 -564.23571944 179.45889235 C-564.22688621 174.83600973 -564.2286974 170.21312982 -564.2290802 165.59024048 C-564.22814597 157.83162741 -564.21949398 150.07305364 -564.20581055 142.31445312 C-564.19007657 133.36042175 -564.18481299 124.40643332 -564.1855461 115.45238912 C-564.18622291 105.89302788 -564.17927571 96.33368307 -564.1700995 86.7743268 C-564.16797428 84.03057447 -564.16725916 81.28682482 -564.16686058 78.54307175 C-564.16585182 74.22395968 -564.15971187 69.90488328 -564.14969444 65.585783 C-564.1467883 64.006025 -564.14554022 62.42626288 -564.14612198 60.8465023 C-564.14787847 53.16927614 -564.07160625 45.61578869 -563 38 C-562.67 38 -562.34 38 -562 38 C-561.99576806 38.90999001 -561.99153612 39.81998001 -561.98717594 40.75754547 C-561.88383195 62.90854473 -561.77518858 85.05951248 -561.66066074 107.21045685 C-561.60540331 117.9225202 -561.55193371 128.63458688 -561.50268555 139.34667969 C-561.45975197 148.684282 -561.41345105 158.02186054 -561.36312145 167.35942602 C-561.33659431 172.30270473 -561.31174333 177.24597895 -561.29092598 182.18928528 C-561.27126744 186.84477919 -561.24709675 191.50022815 -561.21950912 196.15568161 C-561.21018731 197.86162368 -561.20249481 199.56757558 -561.19658089 201.27353287 C-561.18823632 203.60920251 -561.17393757 205.94476547 -561.15821838 208.28039551 C-561.15176583 209.58565437 -561.14531328 210.89091324 -561.1386652 212.2357254 C-560.99056738 216.25606254 -560.68133666 220.03453572 -560 224 C-559.34 224.33 -558.68 224.66 -558 225 C-557.38125 225.825 -556.7625 226.65 -556.125 227.5 C-553.8280329 230.20231423 -553.34795195 230.52172115 -550 231 C-548.98164062 231.33257813 -547.96328125 231.66515625 -546.9140625 232.0078125 C-542.64949806 233.24134592 -538.59971384 233.25909015 -534.1875 233.1875 C-533.44435547 233.18685547 -532.70121094 233.18621094 -531.93554688 233.18554688 C-528.12981981 233.15604511 -524.41195918 232.95540705 -520.63366222 232.497859 C-513.82769247 231.8020142 -507.02770285 231.85808836 -500.19343567 231.86628723 C-498.70644199 231.86441624 -497.2194488 231.86211439 -495.73245639 231.85942191 C-491.66803528 231.85333308 -487.60363482 231.85343405 -483.5392102 231.85461628 C-479.14709845 231.85482103 -474.75499321 231.84929447 -470.36288452 231.84455872 C-461.76588881 231.83626756 -453.16889996 231.83350457 -444.57190058 231.83294634 C-437.58046638 231.83247044 -430.58903443 231.830412 -423.59760094 231.82724571 C-403.75581847 231.81844324 -383.9140414 231.81382569 -364.07225696 231.81457619 C-363.00354644 231.81461614 -361.93483592 231.8146561 -360.83374023 231.81469727 C-359.76371797 231.81473815 -358.69369571 231.81477903 -357.59124853 231.81482115 C-340.25555121 231.81522748 -322.91987561 231.80566015 -305.58418456 231.7915589 C-287.76462846 231.77717896 -269.94508294 231.77028961 -252.12552088 231.77115268 C-242.12901338 231.77148409 -232.13252865 231.76876134 -222.13602638 231.75797462 C-213.62403883 231.74884831 -205.11208439 231.74671183 -196.60009406 231.75348405 C-192.26204729 231.75673854 -187.92406398 231.75684485 -183.58602333 231.7481308 C-179.60533908 231.74021723 -175.62476809 231.74174626 -171.64408644 231.75041493 C-170.21344102 231.75193931 -168.78278693 231.75017445 -167.35215173 231.74455485 C-160.15196155 231.71817315 -153.00623971 231.93112348 -145.84740734 232.70295238 C-144.05514069 232.89103176 -144.05514069 232.89103176 -142.22666663 233.08291072 C-138.24522378 234.21452392 -136.57160951 235.79953139 -134 239 C-133.38768005 242.31880188 -133.38768005 242.31880188 -133.40405273 246.1418457 C-133.3999942 246.84173615 -133.39593567 247.54162659 -133.39175415 248.26272583 C-133.38625125 249.77629426 -133.39220531 251.28993893 -133.40841484 252.80343056 C-133.43390517 255.20512317 -133.42901449 257.60510514 -133.41651917 260.00688171 C-133.39579314 265.10894342 -133.41542369 270.21047344 -133.4375 275.3125 C-133.45865425 281.21731785 -133.4630594 287.12158149 -133.43699837 293.02638817 C-133.43365594 295.38195097 -133.45479806 297.73643729 -133.47740173 300.09187317 C-133.4922325 307.58749764 -133.38546431 313.61015652 -129 320 C-122.11717276 325.76669309 -111.20663135 324.18322466 -102.75 324.1875 C-101.49058594 324.19974609 -100.23117187 324.21199219 -98.93359375 324.22460938 C-87.89350704 324.24180577 -78.34803585 323.56049666 -68.75 317.8125 C-68.06325195 317.41393799 -67.37650391 317.01537598 -66.66894531 316.60473633 C-61.73717313 313.65639426 -57.69543474 310.42525414 -54 306 C-52 304 -52 304 -50 302 C-49.29875 301.2575 -48.5975 300.515 -47.875 299.75 C-46 298 -46 298 -44 298 C-43.7525 297.4225 -43.505 296.845 -43.25 296.25 C-41.81700012 293.67060021 -40.21575324 291.93878408 -38 290 C-37.34 290 -36.68 290 -36 290 C-35.731875 289.401875 -35.46375 288.80375 -35.1875 288.1875 C-33.24129308 284.60238199 -30.19074882 282.2613054 -27.125 279.625 C-21.86120388 275.03236185 -17.17672563 270.12636094 -12.62890625 264.83203125 C-11 263 -11 263 -8.875 261.125 C-0.84739699 252.02704992 -0.85416565 241.2978614 -0.84178162 229.80638123 C-0.83437465 228.32476764 -0.83437465 228.32476764 -0.82681805 226.81322247 C-0.81153767 223.5244904 -0.80310824 220.2357777 -0.79467773 216.94702148 C-0.78509176 214.5811903 -0.77508126 212.21536081 -0.76467896 209.84953308 C-0.73770175 203.44119033 -0.71665337 197.03284027 -0.69667697 190.62447238 C-0.67745535 184.60148718 -0.65286101 178.57852242 -0.62875474 172.55555523 C-0.58117244 160.6310434 -0.5378831 148.70652003 -0.49731445 136.78198242 C-0.45791175 125.20287175 -0.41647419 113.62377129 -0.37231445 102.04467773 C-0.36822804 100.97290609 -0.36822804 100.97290609 -0.36405908 99.8794825 C-0.35037882 96.29474098 -0.3366587 92.70999962 -0.32291877 89.12525833 C-0.20910118 59.41686041 -0.1023314 29.70843976 0 0 Z " fill="#6B07DF" transform="translate(788,512)"/>
<path d="M0 0 C2.08482697 -0.00187099 4.16965358 -0.00417284 6.25447965 -0.00686532 C11.95325472 -0.01295437 17.65201506 -0.01285315 23.35079265 -0.01167095 C29.50924958 -0.0114662 35.66770187 -0.01699285 41.82615662 -0.02172852 C53.88207701 -0.03002039 65.93799118 -0.03279571 77.99391368 -0.03334089 C87.80123337 -0.03380148 97.60855149 -0.03586521 107.41587067 -0.03904152 C110.24499106 -0.03993916 113.07411146 -0.04082897 115.90323186 -0.0417164 C116.9584215 -0.04204797 116.9584215 -0.04204797 118.03492811 -0.04238624 C137.81002206 -0.04853652 157.58511547 -0.05248722 177.36021042 -0.05204296 C178.10504067 -0.05202738 178.84987091 -0.0520118 179.61727178 -0.05199575 C183.39184366 -0.05191265 187.16641555 -0.05181361 190.94098744 -0.05171105 C191.69054396 -0.0516911 192.44010048 -0.05167115 193.21237084 -0.05165061 C194.72815759 -0.05161017 196.24394434 -0.05156837 197.75973109 -0.05152521 C221.31901392 -0.05091308 244.87828233 -0.05840924 268.43756104 -0.07209778 C294.94740524 -0.08749457 321.45723998 -0.09606179 347.96708894 -0.09513456 C350.79998159 -0.09505993 353.63287425 -0.09501122 356.46576691 -0.09498024 C357.51194684 -0.09496276 357.51194684 -0.09496276 358.57926173 -0.09494492 C369.75181681 -0.09491429 380.92435928 -0.10127142 392.09691062 -0.1099125 C403.34926089 -0.11843457 414.60159315 -0.11917368 425.85394648 -0.11280318 C431.93713175 -0.10955539 438.02027181 -0.10941769 444.10345268 -0.11815643 C506.43935093 -0.20181522 506.43935093 -0.20181522 530.24371338 6.13371277 C529.91371338 6.79371277 529.58371338 7.45371277 529.24371338 8.13371277 C528.57428711 8.01777771 527.90486084 7.90184265 527.21514893 7.78239441 C524.12125443 7.24920322 521.02625882 6.72268018 517.93121338 6.19621277 C516.87869385 6.01381042 515.82617432 5.83140808 514.74176025 5.64347839 C513.69439697 5.4662323 512.64703369 5.28898621 511.56793213 5.10636902 C510.62006836 4.94402771 509.67220459 4.7816864 508.69561768 4.61442566 C497.02390958 2.98902123 485.46083209 2.99266269 473.70065308 3.00672913 C471.60247755 3.00557601 469.50430223 3.0039872 467.40612733 3.00200188 C461.65671495 2.99783445 455.90731921 2.99988761 450.15790677 3.0029881 C443.95041368 3.00525264 437.74292343 3.00175723 431.53543091 2.99900818 C420.08086476 2.9948189 408.626306 2.99518155 397.17173989 2.99791965 C386.58280909 3.00043825 375.99388022 3.0010905 365.40494919 2.999897 C364.70171609 2.99982062 363.99848298 2.99974423 363.27393979 2.99966553 C360.41895715 2.99935417 357.56397451 2.99903577 354.70899188 2.99870577 C327.93248502 2.99564769 301.15598152 2.99841817 274.37947517 3.00380267 C250.62604887 3.00854298 226.87262792 3.00812788 203.11920166 3.00334167 C176.40580201 2.99797699 149.69240533 2.99586976 122.97900522 2.99895394 C120.12621522 2.99927463 117.27342522 2.99958747 114.42063522 2.999897 C113.71825587 2.99997608 113.01587651 3.00005516 112.29221293 3.00013663 C101.72072358 3.00127047 91.14923639 2.99995051 80.57774734 2.99741745 C68.54049679 2.99454748 56.50325394 2.99539088 44.46600361 3.00069819 C38.33081466 3.00331459 32.19563655 3.0043755 26.06044769 3.00104904 C20.43079363 2.99804304 14.80116033 2.99974968 9.17150812 3.00502659 C7.14792373 3.00613264 5.12433754 3.00560053 3.10075434 3.00315081 C-6.98176694 2.99189308 -17.04535117 3.10666667 -27.11959267 3.54008675 C-28.39566713 3.59034897 -28.39566713 3.59034897 -29.69752087 3.64162659 C-36.00451421 3.94816872 -41.83313333 4.97777231 -47.94378662 6.61027527 C-50.91069266 7.16244945 -52.8695212 6.92969588 -55.75628662 6.13371277 C-52.04027609 3.90988263 -48.08677755 3.28857539 -43.88128662 2.57121277 C-43.20581787 2.44552917 -42.53034912 2.31984558 -41.83441162 2.19035339 C-28.01114875 -0.22745174 -13.97926403 -0.01196126 0 0 Z " fill="#A110ED" transform="translate(274.75628662109375,101.86628723144531)"/>
<path d="M0 0 C1.96213949 -0.00187251 3.92427861 -0.00417496 5.88641715 -0.00686532 C11.23130385 -0.01293429 16.57617479 -0.0128556 21.92106414 -0.01167095 C27.7027852 -0.01146572 33.48450136 -0.01699696 39.26622009 -0.02172852 C50.57071949 -0.03000618 61.87521367 -0.03278195 73.17971584 -0.03334089 C82.36405112 -0.03381696 91.54838469 -0.03587619 100.73271942 -0.03904152 C122.54988222 -0.04640763 144.3670437 -0.05256731 166.18420792 -0.05204296 C166.88045246 -0.05202738 167.576697 -0.0520118 168.29403986 -0.05199575 C171.8224838 -0.05191265 175.35092773 -0.05181361 178.87937167 -0.05171105 C179.58007637 -0.0516911 180.28078107 -0.05167115 181.00271924 -0.05165061 C182.41970558 -0.05161017 183.83669191 -0.05156837 185.25367824 -0.05152521 C207.33634138 -0.05091145 229.4189892 -0.05844134 251.50164795 -0.07209778 C276.33469203 -0.08744896 301.16772597 -0.0960521 326.0007751 -0.09513456 C339.14242293 -0.09480222 352.28405345 -0.09756606 365.42569733 -0.10831261 C376.60211871 -0.11739401 387.77851492 -0.11961197 398.95493838 -0.11280318 C404.65884412 -0.10952742 410.3627015 -0.10951949 416.06660271 -0.11815643 C421.28317476 -0.12597465 426.49965972 -0.12463833 431.71622953 -0.1158723 C433.60745367 -0.11432706 435.49868417 -0.11619162 437.38990083 -0.12173238 C439.95258753 -0.1287458 442.51496468 -0.12353579 445.07764053 -0.1151762 C445.81850145 -0.12014438 446.55936237 -0.12511256 447.32267362 -0.13023129 C451.33290754 -0.10241376 454.42071264 0.35846449 458.03240967 2.13371277 C458.03240967 2.46371277 458.03240967 2.79371277 458.03240967 3.13371277 C295.01240967 3.13371277 131.99240967 3.13371277 -35.96759033 3.13371277 C-36.29759033 2.47371277 -36.62759033 1.81371277 -36.96759033 1.13371277 C-24.63136289 0.25841766 -12.36459697 -0.01133196 0 0 Z " fill="#5402CD" transform="translate(300.96759033203125,919.8662872314453)"/>
<path d="M0 0 C0.33 0 0.66 0 1 0 C1.13363771 19.62738522 1.26405849 39.25478966 1.39115143 58.88221836 C1.4502973 68.0060428 1.51031931 77.12985954 1.57275391 86.25366211 C1.92281325 137.50316705 2.07113042 188.7493051 2 240 C1.34 240 0.68 240 0 240 C0 244.95 0 249.9 0 255 C-0.33 255 -0.66 255 -1 255 C-1.0228192 223.66983534 -1.04051309 192.33967288 -1.05106533 161.00950187 C-1.05231602 157.30955723 -1.05361034 153.60961259 -1.05493164 149.90966797 C-1.05519395 149.1730846 -1.05545626 148.43650124 -1.05572652 147.67759717 C-1.06007623 135.75549108 -1.06795994 123.83338982 -1.0771528 111.91128659 C-1.08650876 99.67547399 -1.09205973 87.43966392 -1.09408849 75.20384789 C-1.09545968 67.65547859 -1.09978841 60.10712294 -1.10791647 52.55875784 C-1.11383396 46.76784246 -1.11445403 40.97693579 -1.11310768 35.18601799 C-1.11338278 32.81246799 -1.11537174 30.43891748 -1.11920547 28.06537056 C-1.12418522 24.82326518 -1.12298244 21.58121807 -1.12025452 18.33911133 C-1.12316736 17.40134983 -1.1260802 16.46358833 -1.12908131 15.49740982 C-1.11713606 10.2399076 -0.76405849 5.20322103 0 0 Z " fill="#7309E2" transform="translate(100,520)"/>
<path d="M0 0 C0.85494856 0.24321005 0.85494856 0.24321005 1.7271688 0.49133343 C4.02143787 1.00479786 6.01782942 1.13036606 8.36529922 1.1386652 C9.23714552 1.14413964 10.10899182 1.14961409 11.0072577 1.15525442 C12.43721342 1.15672158 12.43721342 1.15672158 13.89605713 1.15821838 C14.91219581 1.16315636 15.9283345 1.16809434 16.97526526 1.17318195 C20.39008403 1.18857569 23.80488396 1.19692269 27.21972656 1.20532227 C29.66363695 1.21489931 32.10754567 1.22490929 34.55145264 1.23532104 C39.81813254 1.25678191 45.08480983 1.27522256 50.35150909 1.29092598 C57.96627646 1.31363571 65.58101613 1.34177701 73.19575998 1.37124526 C85.55009078 1.41890763 97.9044329 1.46217549 110.25878906 1.50268555 C122.26010011 1.54204736 134.2614011 1.58347524 146.26269531 1.62768555 C147.00241932 1.63040982 147.74214333 1.63313409 148.50428322 1.63594092 C152.21525048 1.64962051 155.92621759 1.66334076 159.63718462 1.67708123 C190.42476897 1.79102473 221.21237443 1.89776567 252 2 C251.67 2.66 251.34 3.32 251 4 C219.45733628 4.04559623 187.91468191 4.08100437 156.37199296 4.10213066 C152.65058314 4.10463216 148.92917339 4.1072208 145.20776367 4.10986328 C144.09643537 4.11065021 144.09643537 4.11065021 142.962656 4.11145304 C130.95633292 4.12016265 118.95002894 4.13593568 106.9437172 4.15430559 C94.62995878 4.17298919 82.31621038 4.18411346 70.00243837 4.18817699 C62.40029541 4.19092525 54.79820642 4.19961459 47.19608007 4.21583293 C41.37300852 4.22762525 35.54996488 4.22891525 29.72688103 4.22621536 C27.33349016 4.2267676 24.94009734 4.23077243 22.5467186 4.23841095 C19.28967006 4.24829988 16.03285611 4.24599106 12.77580261 4.24050903 C11.81958596 4.24633472 10.86336931 4.2521604 9.87817639 4.25816262 C9.00832114 4.25418052 8.13846589 4.25019842 7.2422514 4.24609566 C6.49002542 4.2468551 5.73779945 4.24761454 4.96277875 4.24839699 C3 4 3 4 0 2 C0 1.34 0 0.68 0 0 Z " fill="#8009E6" transform="translate(397,597)"/>
<path d="M0 0 C0.33 0 0.66 0 1 0 C1.91005826 51.41469673 2.13271362 102.81503366 2.07202661 154.2370224 C2.06051678 164.17546895 2.05526965 174.11391652 2.05032361 184.05236816 C2.04008419 204.36825291 2.0226932 224.68412557 2 245 C1.67 245 1.34 245 1 245 C0.67 226.19 0.34 207.38 0 188 C-0.33 188 -0.66 188 -1 188 C-1.03072282 168.66667438 -1.05100624 149.33334577 -1.0625 130 C-1.0629343 129.2901766 -1.06336861 128.5803532 -1.06381607 127.84902 C-1.08919844 85.22532366 -1.00119197 42.61456443 0 0 Z " fill="#740AE4" transform="translate(923,528)"/>
<path d="M0 0 C7.89449065 2.05555907 15.05045277 5.12531889 22.375 8.6875 C24.03644043 9.4926001 24.03644043 9.4926001 25.73144531 10.31396484 C33.28711682 14.03156938 40.27911189 17.90139523 47 23 C48.55267578 24.13308594 48.55267578 24.13308594 50.13671875 25.2890625 C61.00218369 33.32272573 71.63577222 42.3397097 80 53 C80.39364746 53.49773926 80.78729492 53.99547852 81.19287109 54.50830078 C95.78995864 73.13701636 109.76579892 96.98233838 112 121 C111.01 121.495 111.01 121.495 110 122 C109.76925781 121.01902344 109.53851562 120.03804688 109.30078125 119.02734375 C105.16012331 101.73171823 99.88810651 85.40973031 89.72265625 70.62890625 C88 68 88 68 88 66 C87.34 66 86.68 66 86 66 C85.05193174 64.6117572 84.11185162 63.2171952 83.21875 61.79296875 C81.43119932 59.16320669 79.30901253 56.86436031 77.171875 54.515625 C76 53 76 53 76 51 C75.34 51 74.68 51 74 51 C72.4921875 49.5390625 72.4921875 49.5390625 70.875 47.625 C70.33617187 46.99851563 69.79734375 46.37203125 69.2421875 45.7265625 C68 44 68 44 68 42 C67.40687012 41.72526855 66.81374023 41.45053711 66.20263672 41.16748047 C64.09585802 40.05080836 62.53623332 38.89442955 60.7578125 37.3203125 C60.16613281 36.80339844 59.57445312 36.28648437 58.96484375 35.75390625 C58.35769531 35.21636719 57.75054688 34.67882812 57.125 34.125 C52.91600118 30.40478814 48.75397026 27.02643462 44 24 C43.19820312 23.45859375 42.39640625 22.9171875 41.5703125 22.359375 C30.08908477 14.80303982 17.83116412 9.10367349 5.01171875 4.2265625 C2 3 2 3 -1 1 C-0.67 0.67 -0.34 0.34 0 0 Z " fill="#9B0FEB" transform="translate(810,110)"/>
<path d="M0 0 C2.6936764 2.6936764 2.22977126 4.7499743 2.2319895 8.40884459 C2.22227287 9.31739176 2.21255624 10.22593892 2.20254517 11.16201782 C2.20017046 12.12336148 2.19779576 13.08470513 2.1953491 14.07518041 C2.18488028 17.31667474 2.15999541 20.55790184 2.13525391 23.79931641 C2.1248344 26.11484919 2.11529795 28.43038608 2.10658264 30.7459259 C2.08033766 37.04939505 2.04167315 43.3527352 2.00085878 49.65612459 C1.96033245 56.23713591 1.93111695 62.81819695 1.90072632 69.39926147 C1.84849183 80.45078705 1.7885684 91.5022531 1.72363281 102.55371094 C1.65675998 113.93812962 1.59409474 125.3225586 1.53710938 136.70703125 C1.53359693 137.40844976 1.53008449 138.10986828 1.52646561 138.8325419 C1.50887122 142.35125703 1.49135978 145.86997257 1.47388959 149.38868833 C1.32878704 178.59253186 1.16898245 207.79628508 1 237 C0.67 237 0.34 237 0 237 C-0.15020839 206.95204322 -0.29531336 176.90406512 -0.4332476 146.85604954 C-0.44951949 143.31231736 -0.4658351 139.76858537 -0.48217773 136.22485352 C-0.48543066 135.51933074 -0.48868358 134.81380796 -0.49203508 134.08690571 C-0.54487907 122.64828144 -0.60126874 111.20967725 -0.6589582 99.77107651 C-0.71803065 88.042689 -0.77331729 76.3142881 -0.82505554 64.58586591 C-0.85429794 57.99455057 -0.88532892 51.40325427 -0.92053413 44.81196785 C-0.95357318 38.615942 -0.98196826 32.41991273 -1.00670624 26.22384834 C-1.01665069 23.94249143 -1.0283335 21.66114137 -1.04183006 19.3798027 C-1.05991745 16.27977664 -1.07191249 13.17978717 -1.08229065 10.07972717 C-1.08909444 9.16437622 -1.09589823 8.24902526 -1.10290819 7.3059364 C-1.10671526 5.20368117 -1.05927325 3.10142291 -1 1 C-0.67 0.67 -0.34 0.34 0 0 Z " fill="#A215F3" transform="translate(160,238)"/>
<path d="M0 0 C0.495 1.98 0.495 1.98 1 4 C-1.13059998 6.43814087 -1.13059998 6.43814087 -4 9 C-5.63853581 10.66153884 -7.27525328 12.32487228 -8.91040039 13.98974609 C-13.58911571 18.74971299 -18.28017165 23.4973059 -22.9786768 28.23773766 C-25.81415528 31.09943798 -28.64471547 33.96568965 -31.46508789 36.84228516 C-34.20266042 39.6340521 -36.95215447 42.41354195 -39.71044731 45.18483353 C-40.75824869 46.24188057 -41.80163568 47.30332216 -42.84050179 48.36915207 C-44.28864654 49.8534309 -45.75152674 51.32147927 -47.21899414 52.78662109 C-48.04774551 53.62647552 -48.87649689 54.46632996 -49.73036194 55.33163452 C-50.4793425 55.88219513 -51.22832306 56.43275574 -52 57 C-53.32 56.67 -54.64 56.34 -56 56 C-37.52 37.52 -19.04 19.04 0 0 Z " fill="#A20DF7" transform="translate(447,310)"/>
<path d="M0 0 C0 0.99 0 1.98 0 3 C-0.88300781 3.4846875 -1.76601562 3.969375 -2.67578125 4.46875 C-13.53041252 10.49876292 -23.40181245 16.85936128 -31.9296875 26.01953125 C-34 28 -34 28 -36.39453125 29.38671875 C-39.73417928 31.45459677 -42.20112638 34.11070403 -44.8125 37 C-45.33585937 37.57451904 -45.85921875 38.14903809 -46.3984375 38.7409668 C-52.15940962 45.1574795 -57.59891531 51.79448248 -61.3125 59.625 C-61.869375 60.73875 -62.42625 61.8525 -63 63 C-64.485 63.495 -64.485 63.495 -66 64 C-56.17096281 36.29535631 -25.02299242 12.88446764 0 0 Z " fill="#9D0FEA" transform="translate(187,119)"/>
<path d="M0 0 C-2.13661845 1.10083386 -4.26160507 2.10677758 -6.48828125 3.015625 C-16.47130372 7.3788824 -23.38539795 14.39128553 -31 22 C-32.28104485 23.26713452 -33.5622923 24.53406425 -34.84375 25.80078125 C-37.91512442 28.8484448 -40.96359607 31.91751237 -44 35 C-44.99 34.34 -45.98 33.68 -47 33 C-46.50371094 32.5875 -46.00742187 32.175 -45.49609375 31.75 C-41.89348269 28.6874388 -38.55640614 25.61404144 -35.5 22 C-31.99806043 17.88799404 -28.16199695 14.4307302 -24 11 C-23.30003906 10.40058594 -22.60007812 9.80117187 -21.87890625 9.18359375 C-7.40510213 -2.76180965 -7.40510213 -2.76180965 0 0 Z " fill="#A50CF7" transform="translate(574,197)"/>
<path d="M0 0 C2.42325457 2.44406911 2.97851579 3.78353507 3.32279968 7.25238037 C3.29837296 8.54033508 3.27394623 9.82828979 3.2487793 11.15527344 C3.23946381 11.86786819 3.23014832 12.58046295 3.22055054 13.31465149 C3.18625269 15.66338277 3.13034858 18.01107251 3.07421875 20.359375 C3.04617802 21.99031373 3.01948842 23.62127621 2.99409485 25.2522583 C2.92370716 29.54006626 2.83497864 33.82730578 2.74243164 38.11468506 C2.6511968 42.49162593 2.577304 46.86885572 2.50195312 51.24609375 C2.35161092 59.83110709 2.18189235 68.41559744 2 77 C1.67 77 1.34 77 1 77 C0.98969254 76.11938904 0.97938507 75.23877808 0.96876526 74.33148193 C0.87078965 66.03275694 0.76827502 57.73410311 0.66066074 49.43549728 C0.60549532 45.16910098 0.55208557 40.90269774 0.50268555 36.63623047 C0.45494782 32.51890407 0.4026017 28.40165971 0.34705925 24.28443146 C0.3266783 22.71358533 0.30795825 21.14271675 0.29092598 19.57183075 C0.26678748 17.37169788 0.23674615 15.17171889 0.20532227 12.97167969 C0.18977798 11.71925476 0.1742337 10.46682983 0.15821838 9.17645264 C0.09437356 5.82790529 0.09437356 5.82790529 -1 2 C-4.63 1.67 -8.26 1.34 -12 1 C-12 0.67 -12 0.34 -12 0 C-2.85043988 -1.37243402 -2.85043988 -1.37243402 0 0 Z " fill="#6F0DE5" transform="translate(651,747)"/>
<path d="M0 0 C0.495 1.485 0.495 1.485 1 3 C-1.95025726 6.00803572 -4.91149669 9.0050179 -7.875 12 C-8.71675781 12.85851562 -9.55851562 13.71703125 -10.42578125 14.6015625 C-11.23144531 15.41367187 -12.03710938 16.22578125 -12.8671875 17.0625 C-13.61081543 17.81660156 -14.35444336 18.57070313 -15.12060547 19.34765625 C-17 21 -17 21 -19 21 C-19.35964844 21.84498047 -19.35964844 21.84498047 -19.7265625 22.70703125 C-21.26937715 25.48504414 -23.13502106 27.43635838 -25.375 29.6875 C-26.14585937 30.47511719 -26.91671875 31.26273437 -27.7109375 32.07421875 C-30.00362972 34.00305367 -31.15888105 34.41915067 -34 35 C-29.97251947 30.16701194 -25.75620587 25.61889996 -21.2890625 21.19140625 C-20.36956314 20.27402931 -20.36956314 20.27402931 -19.43148804 19.33811951 C-17.49835436 17.41052441 -15.56175013 15.48646072 -13.625 13.5625 C-12.30315301 12.24567596 -10.98153628 10.92862074 -9.66015625 9.61132812 C-6.44275701 6.40487627 -3.22224319 3.20158371 0 0 Z " fill="#A40EF6" transform="translate(482,275)"/>
<path d="M0 0 C0 0.33 0 0.66 0 1 C-0.84425537 1.02187378 -0.84425537 1.02187378 -1.70556641 1.04418945 C-12.14200952 1.34513844 -22.0594426 1.77078246 -32.1875 4.4765625 C-35.15440604 5.02873668 -37.11323458 4.79598311 -40 4 C-28.41561502 -2.78471652 -12.75426365 -1.16202402 0 0 Z " fill="#A00EF1" transform="translate(259,104)"/>
<path d="M0 0 C0.33 0.99 0.66 1.98 1 3 C-5.93 9.93 -12.86 16.86 -20 24 C-20.99 23.67 -21.98 23.34 -23 23 C-15.41 15.41 -7.82 7.82 0 0 Z " fill="#A60EF6" transform="translate(526,231)"/>
<path d="M0 0 C2 3 2 3 1.5625 6.6875 C-0.95948549 15.4186776 -9.35602791 21.33529818 -16 27 C-16.66 26.34 -17.32 25.68 -18 25 C-15.88046983 22.99390948 -13.75486559 20.99506397 -11.625 19 C-11.02171875 18.42765625 -10.4184375 17.8553125 -9.796875 17.265625 C-9.21679688 16.72421875 -8.63671875 16.1828125 -8.0390625 15.625 C-7.50490723 15.12226563 -6.97075195 14.61953125 -6.42041016 14.1015625 C-5 13 -5 13 -3 13 C-1.90154282 8.67940177 -0.82187261 4.38332057 0 0 Z " fill="#A10EF5" transform="translate(782,202)"/>
<path d="M0 0 C0.87591797 0.52400391 0.87591797 0.52400391 1.76953125 1.05859375 C0.61453125 1.30609375 -0.54046875 1.55359375 -1.73046875 1.80859375 C-5.53455377 2.75125805 -8.69847059 4.2193176 -12.1484375 6.04296875 C-16.92441586 8.37271429 -22.07715746 9.81669216 -27.23046875 11.05859375 C-27.56046875 10.39859375 -27.89046875 9.73859375 -28.23046875 9.05859375 C-3.2951408 -1.39076871 -3.2951408 -1.39076871 0 0 Z " fill="#9F0FEF" transform="translate(217.23046875,108.94140625)"/>
<path d="M0 0 C0.33 0.66 0.66 1.32 1 2 C0.67 2.66 0.34 3.32 0 4 C0.66 4 1.32 4 2 4 C2.82544266 14.48947132 3.08101063 24.50588146 2 35 C1.67 35 1.34 35 1 35 C0.35684672 26.73479618 -0.17460507 18.46526911 -0.625 10.1875 C-0.67712646 9.29772461 -0.72925293 8.40794922 -0.78295898 7.49121094 C-0.89585225 5.32921026 -0.95327015 3.16444176 -1 1 C-0.67 0.67 -0.34 0.34 0 0 Z " fill="#9F0DF0" transform="translate(862,236)"/>
<path d="M0 0 C0.33 0.99 0.66 1.98 1 3 C-5 9 -11 15 -17 21 C-17.66 20.34 -18.32 19.68 -19 19 C-12.73 12.73 -6.46 6.46 0 0 Z " fill="#A50EF6" transform="translate(502,255)"/>
<path d="M0 0 C8.35020652 2.80328362 14.73407758 10.15430086 20 17 C19.01 17 18.02 17 17 17 C16.7525 16.38125 16.505 15.7625 16.25 15.125 C15.20035727 12.89482966 15.20035727 12.89482966 13.2109375 12.12109375 C10.50994246 10.75150792 8.59937424 8.98704884 6.375 6.9375 C3.41210833 4.14219542 3.41210833 4.14219542 0 2 C0 1.34 0 0.68 0 0 Z " fill="#A40DF6" transform="translate(822,178)"/>
<path d="M0 0 C8.04709807 2.68236602 13.03312357 15.98260766 17 23 C16.01 23.33 15.02 23.66 14 24 C13.23816406 22.53240234 13.23816406 22.53240234 12.4609375 21.03515625 C8.65306267 13.7617813 4.78742128 6.69150929 0 0 Z " fill="#A20DF4" transform="translate(841,196)"/>
<path d="M0 0 C2.7885289 -0.22107787 5.34653181 -0.28107535 8.125 -0.1875 C8.87910156 -0.17396484 9.63320313 -0.16042969 10.41015625 -0.14648438 C12.27374127 -0.11109985 14.13695978 -0.05729167 16 0 C16.33 0.99 16.66 1.98 17 3 C10.73 3 4.46 3 -2 3 C-1.34 2.01 -0.68 1.02 0 0 Z " fill="#5E06DD" transform="translate(248,920)"/>
<path d="M0 0 C0.33 0.99 0.66 1.98 1 3 C-1.33333333 5.33333333 -3.66666667 7.66666667 -6 10 C-6.99 9.67 -7.98 9.34 -9 9 C-6.03 6.03 -3.06 3.06 0 0 Z " fill="#A00EF5" transform="translate(378,379)"/>
<path d="M0 0 C3 1 3 1 3.984375 2.890625 C6.52201258 10.71069182 6.52201258 10.71069182 5 15 C3.26830404 11.8377726 2.2871024 8.73257278 1.375 5.25 C1.11460937 4.26515625 0.85421875 3.2803125 0.5859375 2.265625 C0.39257812 1.51796875 0.19921875 0.7703125 0 0 Z " fill="#A30FF5" transform="translate(856,221)"/>
<path d="M0 0 C-3.12781414 2.52631142 -6.29577411 4.42373366 -10 6 C-10.99 5.67 -11.98 5.34 -13 5 C-4.82022472 -1.60674157 -4.82022472 -1.60674157 0 0 Z " fill="#A10DF5" transform="translate(220,168)"/>
<path d="M0 0 C0.66 0 1.32 0 2 0 C2 0.66 2 1.32 2 2 C2.62648438 2.17015625 3.25296875 2.3403125 3.8984375 2.515625 C5.12433594 2.87914062 5.12433594 2.87914062 6.375 3.25 C7.18710937 3.48203125 7.99921875 3.7140625 8.8359375 3.953125 C11 5 11 5 13 9 C8.05 6.69 3.1 4.38 -2 2 C-1.34 1.34 -0.68 0.68 0 0 Z " fill="#A30CF3" transform="translate(806,168)"/>
<path d="M0 0 C0.66 0.99 1.32 1.98 2 3 C-0.31 5.64 -2.62 8.28 -5 11 C-5.33 10.34 -5.66 9.68 -6 9 C-4.29864224 5.76742026 -2.23960447 2.87949147 0 0 Z " fill="#A20DF5" transform="translate(182,192)"/>
<path d="M0 0 C0.33 0.99 0.66 1.98 1 3 C-0.65 4.65 -2.3 6.3 -4 8 C-4.99 7.67 -5.98 7.34 -7 7 C-4.69 4.69 -2.38 2.38 0 0 Z " fill="#A20EF6" transform="translate(390,367)"/>
<path d="M0 0 C1.32 0.33 2.64 0.66 4 1 C1.03 2.65 -1.94 4.3 -5 6 C-3 2 -3 2 0 0 Z " fill="#A00CF1" transform="translate(204,174)"/>
<path d="" fill="#6810E0" transform="translate(0,0)"/>
<path d="" fill="#A019EF" transform="translate(0,0)"/>
<path d="M0 0 C2 1 2 1 2 1 Z " fill="#650EE6" transform="translate(541,924)"/>
<path d="M0 0 C2 1 2 1 2 1 Z " fill="#630DE4" transform="translate(382,924)"/>
<path d="M0 0 C2 1 2 1 2 1 Z " fill="#AF17F7" transform="translate(756,193)"/>
<path d="M0 0 C2 1 2 1 2 1 Z " fill="#B017FA" transform="translate(708,193)"/>
<path d="M0 0 C2 1 2 1 2 1 Z " fill="#B019F8" transform="translate(684,193)"/>
<path d="M0 0 C2 1 2 1 2 1 Z " fill="#B017F8" transform="translate(620,193)"/>
<path d="M0 0 C2 1 2 1 2 1 Z " fill="#B018F9" transform="translate(604,193)"/>
<path d="" fill="#640EE2" transform="translate(0,0)"/>
<path d="" fill="#640FE2" transform="translate(0,0)"/>
<path d="" fill="#640CE4" transform="translate(0,0)"/>
<path d="" fill="#640EE5" transform="translate(0,0)"/>
<path d="" fill="#640EE4" transform="translate(0,0)"/>
<path d="" fill="#650CE7" transform="translate(0,0)"/>
<path d="" fill="#650DE4" transform="translate(0,0)"/>
<path d="" fill="#640CE5" transform="translate(0,0)"/>
<path d="" fill="#640DE6" transform="translate(0,0)"/>
<path d="" fill="#640EE4" transform="translate(0,0)"/>
<path d="" fill="#640EE5" transform="translate(0,0)"/>
<path d="" fill="#630CE1" transform="translate(0,0)"/>
<path d="" fill="#670FE3" transform="translate(0,0)"/>
<path d="" fill="#640DDF" transform="translate(0,0)"/>
<path d="" fill="#640CE0" transform="translate(0,0)"/>
<path d="" fill="#660FE1" transform="translate(0,0)"/>
<path d="" fill="#6C13ED" transform="translate(0,0)"/>
<path d="" fill="#6D13ED" transform="translate(0,0)"/>
<path d="" fill="#6F13EA" transform="translate(0,0)"/>
<path d="" fill="#6E13E9" transform="translate(0,0)"/>
<path d="" fill="#6D11EB" transform="translate(0,0)"/>
<path d="" fill="#6D12E9" transform="translate(0,0)"/>
<path d="" fill="#6B12E8" transform="translate(0,0)"/>
<path d="" fill="#6D11E9" transform="translate(0,0)"/>
<path d="" fill="#6C15E9" transform="translate(0,0)"/>
<path d="" fill="#6D12E9" transform="translate(0,0)"/>
<path d="" fill="#6C11EA" transform="translate(0,0)"/>
<path d="" fill="#6C13EB" transform="translate(0,0)"/>
<path d="" fill="#7514EF" transform="translate(0,0)"/>
<path d="" fill="#6C12E4" transform="translate(0,0)"/>
<path d="" fill="#6B11E1" transform="translate(0,0)"/>
<path d="" fill="#7710EE" transform="translate(0,0)"/>
<path d="" fill="#7511ED" transform="translate(0,0)"/>
<path d="" fill="#6E12E3" transform="translate(0,0)"/>
<path d="" fill="#700FE2" transform="translate(0,0)"/>
<path d="" fill="#7712E4" transform="translate(0,0)"/>
<path d="" fill="#7E11E8" transform="translate(0,0)"/>
<path d="" fill="#7E13E7" transform="translate(0,0)"/>
<path d="" fill="#7E11E5" transform="translate(0,0)"/>
<path d="" fill="#8112E9" transform="translate(0,0)"/>
<path d="" fill="#8112E9" transform="translate(0,0)"/>
<path d="" fill="#9915F9" transform="translate(0,0)"/>
<path d="" fill="#9A17F8" transform="translate(0,0)"/>
<path d="" fill="#9916F9" transform="translate(0,0)"/>
<path d="" fill="#9916F6" transform="translate(0,0)"/>
<path d="" fill="#9915F7" transform="translate(0,0)"/>
<path d="" fill="#9A18F8" transform="translate(0,0)"/>
<path d="" fill="#9714F6" transform="translate(0,0)"/>
<path d="" fill="#9714F7" transform="translate(0,0)"/>
<path d="" fill="#9818FA" transform="translate(0,0)"/>
<path d="" fill="#8413EA" transform="translate(0,0)"/>
<path d="" fill="#8712EA" transform="translate(0,0)"/>
<path d="" fill="#8814EA" transform="translate(0,0)"/>
<path d="" fill="#8613E8" transform="translate(0,0)"/>
<path d="" fill="#8912EB" transform="translate(0,0)"/>
<path d="" fill="#8B13EC" transform="translate(0,0)"/>
<path d="" fill="#9F13FB" transform="translate(0,0)"/>
<path d="" fill="#8C12ED" transform="translate(0,0)"/>
<path d="" fill="#8A14E9" transform="translate(0,0)"/>
<path d="" fill="#8D12ED" transform="translate(0,0)"/>
<path d="" fill="#9F12F9" transform="translate(0,0)"/>
<path d="" fill="#A012FB" transform="translate(0,0)"/>
<path d="" fill="#9312EE" transform="translate(0,0)"/>
<path d="" fill="#9514EF" transform="translate(0,0)"/>
<path d="" fill="#9614EE" transform="translate(0,0)"/>
<path d="" fill="#9914EE" transform="translate(0,0)"/>
<path d="" fill="#9C17EE" transform="translate(0,0)"/>
<path d="" fill="#9C17EE" transform="translate(0,0)"/>
<path d="" fill="#9C16EC" transform="translate(0,0)"/>
<path d="" fill="#9D16EE" transform="translate(0,0)"/>
<path d="" fill="#9D16F0" transform="translate(0,0)"/>
<path d="" fill="#A018EE" transform="translate(0,0)"/>
<path d="" fill="#9B17EE" transform="translate(0,0)"/>
<path d="" fill="#A018EE" transform="translate(0,0)"/>
<path d="" fill="#9E17EB" transform="translate(0,0)"/>
<path d="" fill="#9E16EE" transform="translate(0,0)"/>
<path d="" fill="#9E16EF" transform="translate(0,0)"/>
<path d="" fill="#9F1AEF" transform="translate(0,0)"/>
<path d="" fill="#9F17EF" transform="translate(0,0)"/>
<path d="" fill="#A016EE" transform="translate(0,0)"/>
<path d="" fill="#A116EC" transform="translate(0,0)"/>
<path d="" fill="#9F17EF" transform="translate(0,0)"/>
<path d="" fill="#A016F0" transform="translate(0,0)"/>
<path d="" fill="#A219F1" transform="translate(0,0)"/>
<path d="" fill="#A117ED" transform="translate(0,0)"/>
<path d="" fill="#AA19F6" transform="translate(0,0)"/>
<path d="" fill="#A016EE" transform="translate(0,0)"/>
<path d="" fill="#A912F9" transform="translate(0,0)"/>
<path d="" fill="#B219FC" transform="translate(0,0)"/>
<path d="" fill="#A118EB" transform="translate(0,0)"/>
<path d="" fill="#A418EB" transform="translate(0,0)"/>
<path d="" fill="#9F1AE8" transform="translate(0,0)"/>
<path d="" fill="#B31CFE" transform="translate(0,0)"/>
<path d="" fill="#A018E8" transform="translate(0,0)"/>
<path d="" fill="#B01AF7" transform="translate(0,0)"/>
<path d="" fill="#B318F9" transform="translate(0,0)"/>
<path d="" fill="#AF17F6" transform="translate(0,0)"/>
<path d="" fill="#B118F9" transform="translate(0,0)"/>
<path d="" fill="#B319FA" transform="translate(0,0)"/>
<path d="" fill="#B218FB" transform="translate(0,0)"/>
<path d="" fill="#B318FA" transform="translate(0,0)"/>
<path d="" fill="#B217FA" transform="translate(0,0)"/>
<path d="" fill="#B218F8" transform="translate(0,0)"/>
<path d="" fill="#B218FA" transform="translate(0,0)"/>
<path d="" fill="#AE16F9" transform="translate(0,0)"/>
<path d="" fill="#B217FB" transform="translate(0,0)"/>
<path d="" fill="#B117F9" transform="translate(0,0)"/>
<path d="" fill="#B118F8" transform="translate(0,0)"/>
<path d="" fill="#B319FA" transform="translate(0,0)"/>
<path d="" fill="#B216F8" transform="translate(0,0)"/>
<path d="" fill="#B217FA" transform="translate(0,0)"/>
<path d="" fill="#B317FA" transform="translate(0,0)"/>
<path d="" fill="#B217F9" transform="translate(0,0)"/>
<path d="" fill="#B217FA" transform="translate(0,0)"/>
<path d="" fill="#B119F9" transform="translate(0,0)"/>
<path d="" fill="#B317FA" transform="translate(0,0)"/>
<path d="" fill="#B119FA" transform="translate(0,0)"/>
<path d="" fill="#B31AFB" transform="translate(0,0)"/>
<path d="" fill="#B118FA" transform="translate(0,0)"/>
<path d="" fill="#B319FA" transform="translate(0,0)"/>
<path d="" fill="#B418FB" transform="translate(0,0)"/>
<path d="" fill="#B319F9" transform="translate(0,0)"/>
<path d="" fill="#B018F9" transform="translate(0,0)"/>
<path d="" fill="#B318FA" transform="translate(0,0)"/>
<path d="" fill="#B418FA" transform="translate(0,0)"/>
<path d="" fill="#B218FA" transform="translate(0,0)"/>
<path d="" fill="#B418FA" transform="translate(0,0)"/>
<path d="" fill="#B318FA" transform="translate(0,0)"/>
<path d="" fill="#B41AFA" transform="translate(0,0)"/>
<path d="" fill="#B119FB" transform="translate(0,0)"/>
<path d="" fill="#B519FC" transform="translate(0,0)"/>
<path d="" fill="#B518FB" transform="translate(0,0)"/>
<path d="" fill="#A01BE7" transform="translate(0,0)"/>
<path d="" fill="#B219FB" transform="translate(0,0)"/>
<path d="" fill="#B418FC" transform="translate(0,0)"/>
<path d="" fill="#B016FB" transform="translate(0,0)"/>
<path d="" fill="#B617FD" transform="translate(0,0)"/>
<path d="" fill="#B219FD" transform="translate(0,0)"/>
<path d="" fill="#A519E9" transform="translate(0,0)"/>
<path d="" fill="#B516FF" transform="translate(0,0)"/>
<path d="" fill="#A519EA" transform="translate(0,0)"/>
<path d="" fill="#B716FF" transform="translate(0,0)"/>
<path d="" fill="#AC16F5" transform="translate(0,0)"/>
<path d="" fill="#A619EB" transform="translate(0,0)"/>
<path d="" fill="#A61BEA" transform="translate(0,0)"/>
<path d="" fill="#A519EB" transform="translate(0,0)"/>
<path d="" fill="#A51AEA" transform="translate(0,0)"/>
<path d="" fill="#A418EC" transform="translate(0,0)"/>
<path d="" fill="#A519EC" transform="translate(0,0)"/>
<path d="" fill="#A718EC" transform="translate(0,0)"/>
<path d="" fill="#A417EB" transform="translate(0,0)"/>
<path d="" fill="#A71AEA" transform="translate(0,0)"/>
<path d="" fill="#A41AEA" transform="translate(0,0)"/>
<path d="" fill="#A81AEA" transform="translate(0,0)"/>
<path d="" fill="#A61AEE" transform="translate(0,0)"/>
<path d="" fill="#A61BED" transform="translate(0,0)"/>
<path d="" fill="#A518EC" transform="translate(0,0)"/>
<path d="" fill="#A51BEB" transform="translate(0,0)"/>
<path d="" fill="#A61DEC" transform="translate(0,0)"/>
<path d="" fill="#A619EA" transform="translate(0,0)"/>
<path d="" fill="#A719EF" transform="translate(0,0)"/>
<path d="" fill="#AB1AF1" transform="translate(0,0)"/>
</svg>
