<svg xmlns="http://www.w3.org/2000/svg" style="display: none;">


  <!-- SECTION FOOTER -->

  <symbol id="twitter" viewBox="0 0 24 24">
    <path
      d="M13.795 10.533 20.68 2h-3.073l-5.255 6.517L7.69 2H1l7.806 10.91L1.47 22h3.074l5.705-7.07L15.31 22H22l-8.205-11.467Zm-2.38 2.95L9.97 11.464 4.36 3.627h2.31l4.528 6.317 1.443 2.02 6.018 8.409h-2.31l-4.934-6.89Z" />
  </symbol>

  <symbol id="instagram" viewBox="0 0 24 24">
    <path fill="currentColor" fill-rule="evenodd"
      d="M3 8a5 5 0 0 1 5-5h8a5 5 0 0 1 5 5v8a5 5 0 0 1-5 5H8a5 5 0 0 1-5-5V8Zm5-3a3 3 0 0 0-3 3v8a3 3 0 0 0 3 3h8a3 3 0 0 0 3-3V8a3 3 0 0 0-3-3H8Zm7.597 2.214a1 1 0 0 1 1-1h.01a1 1 0 1 1 0 2h-.01a1 1 0 0 1-1-1ZM12 9a3 3 0 1 0 0 6 3 3 0 0 0 0-6Zm-5 3a5 5 0 1 1 10 0 5 5 0 0 1-10 0Z"
      clip-rule="evenodd" />
  </symbol>

  <symbol id="linkedin" viewBox="0 0 24 24">
    <path fill-rule="evenodd"
      d="M12.51 8.796v1.697a3.738 3.738 0 0 1 3.288-1.684c3.455 0 4.202 2.16 4.202 4.97V19.5h-3.2v-5.072c0-1.21-.244-2.766-2.128-2.766-1.827 0-2.139 1.317-2.139 2.676V19.5h-3.19V8.796h3.168ZM7.2 6.106a1.61 1.61 0 0 1-.988 1.483 1.595 1.595 0 0 1-1.743-.348A1.607 1.607 0 0 1 5.6 4.5a1.601 1.601 0 0 1 1.6 1.606Z"
      clip-rule="evenodd" />
    <path d="M7.2 8.809H4V19.5h3.2V8.809Z" />
  </symbol>

  <symbol id="facebook" viewBox="0 0 24 24">
    <path fill-rule="evenodd"
      d="M13.135 6H15V3h-1.865a4.147 4.147 0 0 0-4.142 4.142V9H7v3h2v9.938h3V12h2.021l.592-3H12V6.591A.6.6 0 0 1 12.592 6h.543Z"
      clip-rule="evenodd" />
  </symbol>

  <!-- SECTION ABOUT -->

  <symbol id="aboutCap" viewBox="0 0 2048 2048">
    <path fill="currentColor"
      d="M1582 1065q41 72 61 150t21 161v103l-640 321l-640-321q0-60 1-112t9-101t24-98t48-103L256 960v587q29 10 52 28t41 42t26 52t9 59v320H0v-320q0-30 9-58t26-53t40-42t53-28V896L0 832l1024-512l1024 512l-466 233zM256 1728q0-26-19-45t-45-19q-26 0-45 19t-19 45v192h128v-192zm30-896l738 369l738-369l-738-369l-738 369zm1250 568q0-77-15-143t-53-135l-444 222l-444-222q-33 58-50 122t-18 132v24l512 256l512-256z" />
  </symbol>

  <symbol id="aboutBook" viewBox="0 0 24 24">
    <path fill="none" stroke="currentColor" stroke-linecap="round" stroke-linejoin="round"
      stroke-width="2"
      d="M3 19a9 9 0 0 1 9 0a9 9 0 0 1 9 0M3 6a9 9 0 0 1 9 0a9 9 0 0 1 9 0M3 6v13m9-13v13m9-13v13" />
  </symbol>

  <symbol id="aboutThink" viewBox="0 0 48 48">
    <g fill="none" stroke="currentColor">
      <path stroke-linecap="round" stroke-linejoin="round" stroke-width="4.667"
        d="M19.036 44c-.98-3.195-2.458-5.578-4.435-7.147c-2.965-2.353-7.676-.89-9.416-3.318c-1.74-2.428 1.219-6.892 2.257-9.526c1.039-2.634-3.98-3.565-3.394-4.313c.39-.499 2.927-1.937 7.609-4.316C12.987 7.794 17.9 4 26.398 4C39.144 4 44 14.806 44 21.68c0 6.872-5.88 14.276-14.256 15.873c-.749 1.09.331 3.24 3.24 6.447" />
      <path stroke-linejoin="round" stroke-width="4"
        d="M19.5 14.5c-.654 2.534-.46 4.314.583 5.339c1.042 1.024 2.818 1.695 5.328 2.01c-.57 3.269.125 4.802 2.083 4.6c1.958-.201 3.135-1.015 3.53-2.44c3.06.86 4.719.14 4.976-2.16c.385-3.45-1.475-6.201-2.238-6.201c-.762 0-2.738-.093-2.738-1.148s-2.308-1.65-4.391-1.65s-.83-1.405-3.69-.85c-1.907.37-3.055 1.203-3.443 2.5Z"
        clip-rule="evenodd" />
      <path stroke-linecap="round" stroke-width="4"
        d="M30.5 25.5c-1.017.631-2.412 1.68-3 2.5c-1.469 2.05-2.66 3.298-2.92 4.608" />
    </g>
  </symbol>

  <symbol id="aboutSolver" viewBox="0 0 24 24">
    <path fill="currentColor"
      d="M11.415 2.311c-.309.171-.6.331-.655.356a52.09 52.09 0 0 0-1.115.606c-.037.023-.995.544-1.093.594c-.05.025-.858.467-1.66.906c-.244.134-.461.25-.482.258a1.253 1.253 0 0 0-.126.064c-.048.028-.353.2-.678.375l-.885.486c-.162.09-.347.189-.41.219a9.057 9.057 0 0 0-.464.25c-.049.029-.329.183-.623.344l-.8.438c-.145.08-.269.146-.277.147a.4.4 0 0 0-.085.04l-.07.039V19.7h1.171v-3.864h1.126V19.7h4.263v-1.17H5.47v-3.864H3.163V8.143l.3-.163l.681-.374l.519-.282C4.866 7.216 6 6.6 6.142 6.518a25.5 25.5 0 0 1 .661-.361c.12-.061 1.549-.839 1.645-.9c.13-.076.484-.268.574-.31c.071-.034.382-.2.553-.3a.945.945 0 0 1 .1-.051s.005.288 0 .64v.641l-.175.097c-.094.051-.268.144-.388.205s-.308.162-.416.222c-.108.06-.442.244-.743.408c-.301.164-.576.316-.612.338c-.1.061-.374.207-.386.207c-.012 0-.757.4-.767.415c-.01.015-.249.139-.547.3c-.298.161-.58.316-.628.345a1.236 1.236 0 0 1-.205.109s-.125.063-.266.139l-.256.14v4.738h2.681v3.76h1.169v-3.88c0-2.194 0-3.88-.009-3.88A1.3 1.3 0 0 0 8 9.611a1.111 1.111 0 0 1-.135.072c-.007 0-.129.069-.27.152l-.44.258l-.183.107v2.16H5.47V9.506l.29-.16c.818-.45 1.533-.84 1.6-.874a60.094 60.094 0 0 0 1.1-.6a52.98 52.98 0 0 1 1.067-.58c.189-.098 1.2-.648 1.265-.691l.063-.039V3.946l.117-.064a24.884 24.884 0 0 0 .956-.514l.062-.038l.074.043c.144.084.748.409.816.439c.037.017.122.062.188.1l.7.384c.318.174.584.32.59.325c.021.017.612.336.667.361c.055.025.374.2.574.311l.082.047v1.28l-.134-.074c-.359-.2-.63-.346-.669-.363a6.52 6.52 0 0 1-.309-.163c-.146-.08-.536-.3-.868-.478a32.074 32.074 0 0 1-.671-.37a1.831 1.831 0 0 0-.2-.1c-.076-.031-.29-.152-.484-.257c-.194-.105-.346-.194-.346-.191c0 .003-.008 1.213-.012 2.69A203.71 203.71 0 0 1 11.972 10a.109.109 0 0 1-.033-.02a11.2 11.2 0 0 0-.524-.3a7.21 7.21 0 0 1-.336-.191c-.439-.257-1.4-.816-1.414-.82c-.014-.004-.009.894-.009 2v2l.035.023c.062.041.745.432.773.443c.028.011.348.192.372.212c.009.007.28.166.6.352c.32.186.637.37.7.408l.2.119c.109.06.11.052-.011.113a3.794 3.794 0 0 0-.222.123c-.066.04-.376.22-.688.4c-.312.18-.576.337-.585.345c-.009.008-.017-.016-.019-.279v-.3l-.052-.033a8.513 8.513 0 0 0-.441-.251a6.738 6.738 0 0 1-.352-.2a6.157 6.157 0 0 0-.309-.176c-.003 0 0 .733 0 1.628v1.629s.234-.131.511-.292l.522-.3l1.2-.688a.336.336 0 0 0 .049-.032s.181-.107.4-.23a210.185 210.185 0 0 0 2.236-1.295a1.561 1.561 0 0 0 .192-.12a2.029 2.029 0 0 0-.219-.136c-.12-.07-.232-.137-.25-.149c-.018-.012-.3-.174-.617-.36s-.6-.346-.615-.357a40.467 40.467 0 0 1-1.101-.632a43.497 43.497 0 0 0-1.087-.623a.078.078 0 0 1-.041-.011l-.023-.019v-1.293l.06.035l.109.062c.1.054.959.549 1.022.59c.112.071 1.033.6 1.045.6a.579.579 0 0 1 .119.065a2.043 2.043 0 0 0 .381.2l.25-.14c.746-.427.891-.512.891-.522a1.747 1.747 0 0 0-.21-.133a43.59 43.59 0 0 0-1.036-.594c-.008 0-.076-.038-.157-.084l-.149-.084V9.469c0-.668 0-1.592.007-2.052l.008-.838l.044.027c.044.026.782.427 1.755.954c.262.141.515.28.563.308c.172.1 1.119.612 1.135.612a.023.023 0 0 1 .02.009a1.337 1.337 0 0 0 .178.1s.006-.585.006-1.3v-1.3l.243.124c.134.069.359.188.5.267l.853.467c.328.178.6.331.612.338a59.595 59.595 0 0 1 1.432.777l.322.178v6.124H19.7V8.8l-.232-.124a21.316 21.316 0 0 0-.358-.189a2.16 2.16 0 0 1-.142-.076c-.027-.022-.946-.52-.96-.52a5.141 5.141 0 0 0-.008.664v.665l.268.145l.267.146V11l-.13-.076a1.312 1.312 0 0 0-.141-.076c-.012 0-.391-.218-.455-.262a26.47 26.47 0 0 0-.623-.366c-.323-.185-.636-.37-.705-.412a1.545 1.545 0 0 0-.186-.1a24.328 24.328 0 0 1-.814-.468a60.237 60.237 0 0 0-1.18-.683c-.009 0-.006.3-.006.675v.674l.04.027l.614.359c.314.183.6.349.63.369c.03.02.109.065.175.1c.131.069.918.523.944.545c.026.022.507.3 1.511.874l.325.187v3.065h2.3v5.4H19.7v-4.264h-1.17v4.263h-7.672V19.7h6.547v-1.17h-3.312v-1.06l.074-.046c.04-.025.334-.2.653-.381l.623-.364a.928.928 0 0 1 .093-.052c.052-.025.962-.551 1.054-.609a33.1 33.1 0 0 1 .432-.254l.377-.219v-2.411l-.373-.216c-.206-.118-.381-.22-.388-.227a27.11 27.11 0 0 0-.81-.462a3.183 3.183 0 0 0-.309.175c-.024.016-.224.133-.446.262a4.389 4.389 0 0 0-.4.245a2.727 2.727 0 0 0 .363.214c.067.035.2.113.306.173c.106.06.345.2.539.314l.352.205v1.049l-.358.209l-.546.32c-.1.061-.2.116-.218.122a24.15 24.15 0 0 0-.753.434c-.009.007-.269.16-.579.339c-.31.179-.583.339-.608.356a.263.263 0 0 1-.056.031a.688.688 0 0 0-.1.051l-.088.05v1.757h-3.25v2.3H1.994V22h20.012V7.431L21.9 7.38a13.97 13.97 0 0 1-.631-.34c-.03-.018-.288-.159-.574-.314s-.543-.3-.573-.315a7.235 7.235 0 0 0-.409-.22c-.026-.008-.2-.1-.4-.216c-1.006-.552-1.535-.84-1.729-.943c-.118-.062-.383-.207-.591-.32c-.715-.393-1.448-.794-1.541-.842c-.093-.048-.741-.4-1.659-.905a14.6 14.6 0 0 0-.52-.278a.818.818 0 0 1-.122-.063A41.74 41.74 0 0 0 11.993 2c-.015 0-.268.141-.578.311" />
  </symbol>

  <!-- SECTION SKILLS -->
  <symbol id="typescript" viewBox="0 0 256 256">
    <path
      d="M20 0h216c11.046 0 20 8.954 20 20v216c0 11.046-8.954 20-20 20H20c-11.046 0-20-8.954-20-20V20C0 8.954 8.954 0 20 0Z"
      fill="#3178C6" />
    <path
      d="M150.518 200.475v27.62c4.492 2.302 9.805 4.028 15.938 5.179 6.133 1.151 12.597 1.726 19.393 1.726 6.622 0 12.914-.633 18.874-1.899 5.96-1.266 11.187-3.352 15.678-6.257 4.492-2.906 8.048-6.704 10.669-11.394 2.62-4.689 3.93-10.486 3.93-17.391 0-5.006-.749-9.394-2.246-13.163a30.748 30.748 0 0 0-6.479-10.055c-2.821-2.935-6.205-5.567-10.149-7.898-3.945-2.33-8.394-4.531-13.347-6.602-3.628-1.497-6.881-2.949-9.761-4.359-2.879-1.41-5.327-2.848-7.342-4.316-2.016-1.467-3.571-3.021-4.665-4.661-1.094-1.64-1.641-3.495-1.641-5.567 0-1.899.489-3.61 1.468-5.135s2.362-2.834 4.147-3.927c1.785-1.094 3.973-1.942 6.565-2.547 2.591-.604 5.471-.906 8.638-.906 2.304 0 4.737.173 7.299.518 2.563.345 5.14.877 7.732 1.597a53.669 53.669 0 0 1 7.558 2.719 41.7 41.7 0 0 1 6.781 3.797v-25.807c-4.204-1.611-8.797-2.805-13.778-3.582-4.981-.777-10.697-1.165-17.147-1.165-6.565 0-12.784.705-18.658 2.115-5.874 1.409-11.043 3.61-15.506 6.602-4.463 2.993-7.99 6.805-10.582 11.437-2.591 4.632-3.887 10.17-3.887 16.615 0 8.228 2.375 15.248 7.127 21.06 4.751 5.811 11.963 10.731 21.638 14.759a291.458 291.458 0 0 1 10.625 4.575c3.283 1.496 6.119 3.049 8.509 4.66 2.39 1.611 4.276 3.366 5.658 5.265 1.382 1.899 2.073 4.057 2.073 6.474a9.901 9.901 0 0 1-1.296 4.963c-.863 1.524-2.174 2.848-3.93 3.97-1.756 1.122-3.945 1.999-6.565 2.632-2.62.633-5.687.95-9.2.95-5.989 0-11.92-1.05-17.794-3.151-5.875-2.1-11.317-5.25-16.327-9.451Zm-46.036-68.733H140V109H41v22.742h35.345V233h28.137V131.742Z"
      fill="#FFF" />
  </symbol>

  <symbol id="javascript" viewBox="0 0 1052 1052">
    <path fill="#f0db4f" d="M0 0h1052v1052H0z" />
    <path
      d="M965.9 801.1c-7.7-48-39-88.3-131.7-125.9-32.2-14.8-68.1-25.399-78.8-49.8-3.8-14.2-4.3-22.2-1.9-30.8 6.9-27.9 40.2-36.6 66.6-28.6 17 5.7 33.1 18.801 42.8 39.7 45.4-29.399 45.3-29.2 77-49.399-11.6-18-17.8-26.301-25.4-34-27.3-30.5-64.5-46.2-124-45-10.3 1.3-20.699 2.699-31 4-29.699 7.5-58 23.1-74.6 44-49.8 56.5-35.6 155.399 25 196.1 59.7 44.8 147.4 55 158.6 96.9 10.9 51.3-37.699 67.899-86 62-35.6-7.4-55.399-25.5-76.8-58.4-39.399 22.8-39.399 22.8-79.899 46.1 9.6 21 19.699 30.5 35.8 48.7 76.2 77.3 266.899 73.5 301.1-43.5 1.399-4.001 10.6-30.801 3.199-72.101zm-394-317.6h-98.4c0 85-.399 169.4-.399 254.4 0 54.1 2.8 103.7-6 118.9-14.4 29.899-51.7 26.2-68.7 20.399-17.3-8.5-26.1-20.6-36.3-37.699-2.8-4.9-4.9-8.7-5.601-9-26.699 16.3-53.3 32.699-80 49 13.301 27.3 32.9 51 58 66.399 37.5 22.5 87.9 29.4 140.601 17.3 34.3-10 63.899-30.699 79.399-62.199 22.4-41.3 17.6-91.3 17.4-146.6.5-90.2 0-180.4 0-270.9z"
      fill="#323330" />
  </symbol>

  <symbol id="css" viewBox="0 0 512 512">
    <path fill="#264de4" d="M71.357 460.819 30.272 0h451.456l-41.129 460.746L255.724 512z" />
    <path fill="#2965f1" d="m405.388 431.408 35.148-393.73H256v435.146z" />
    <path fill="#ebebeb"
      d="m124.46 208.59 5.065 56.517H256V208.59zm-5.041-57.875H256V94.197H114.281zM256 355.372l-.248.066-62.944-16.996-4.023-45.076h-56.736l7.919 88.741 115.772 32.14.26-.073z" />
    <path fill="#fff"
      d="M255.805 208.59v56.517H325.4l-6.56 73.299-63.035 17.013v58.8l115.864-32.112.85-9.549 13.28-148.792 1.38-15.176 10.203-114.393H255.805v56.518h79.639L330.3 208.59z" />
  </symbol>

  <symbol id="html" viewBox="0 0 452 520">
    <path fill="#e34f26" d="M41 460L0 0h451l-41 460-185 52" />
    <path fill="#ef652a" d="M226 472l149-41 35-394H226" />
    <path fill="#ecedee"
      d="M226 208h-75l-5-58h80V94H84l15 171h127zm0 147l-64-17-4-45h-56l7 89 117 32z" />
    <path fill="#fff" d="M226 265h69l-7 73-62 17v59l115-32 16-174H226zm0-171v56h136l5-56z" />
  </symbol>

  <symbol id="tailwindcss" viewBox="0 0 54 33">
    <g clip-path="url(#a)">
      <path fill="#38bdf8" fill-rule="evenodd"
        d="M27 0c-7.2 0-11.7 3.6-13.5 10.8 2.7-3.6 5.85-4.95 9.45-4.05 2.054.513 3.522 2.004 5.147 3.653C30.744 13.09 33.808 16.2 40.5 16.2c7.2 0 11.7-3.6 13.5-10.8-2.7 3.6-5.85 4.95-9.45 4.05-2.054-.513-3.522-2.004-5.147-3.653C36.756 3.11 33.692 0 27 0zM13.5 16.2C6.3 16.2 1.8 19.8 0 27c2.7-3.6 5.85-4.95 9.45-4.05 2.054.514 3.522 2.004 5.147 3.653C17.244 29.29 20.308 32.4 27 32.4c7.2 0 11.7-3.6 13.5-10.8-2.7 3.6-5.85 4.95-9.45 4.05-2.054-.513-3.522-2.004-5.147-3.653C23.256 19.31 20.192 16.2 13.5 16.2z"
        clip-rule="evenodd" />
    </g>
    <defs>
      <clipPath id="a">
        <path fill="#fff" d="M0 0h54v32.4H0z" />
      </clipPath>
    </defs>
  </symbol>

  <symbol id="postman" viewBox="0 0 256 256">
    <path
      d="M254.953 144.253c8.959-70.131-40.569-134.248-110.572-143.206C74.378-7.912 10.005 41.616 1.047 111.619c-8.959 70.003 40.569 134.248 110.572 143.334 70.131 8.959 134.248-40.569 143.334-110.7Z"
      fill="#FF6C37" />
    <path d="m174.2 82.184-54.007 54.007-15.229-15.23c53.11-53.11 58.358-48.503 69.236-38.777Z"
      fill="#FFF" />
    <path
      d="M120.193 137.47c-.384 0-.64-.128-.895-.384l-15.358-15.229a1.237 1.237 0 0 1 0-1.792c54.007-54.006 59.638-48.887 71.028-38.649.255.256.383.512.383.896s-.128.64-.383.896l-54.007 53.878c-.128.256-.512.384-.768.384Zm-13.437-16.509 13.437 13.438 52.087-52.087c-9.47-8.446-15.87-11.006-65.524 38.65Z"
      fill="#FF6C37" />
    <path d="m135.679 151.676-14.718-14.718 54.007-54.006c14.46 14.59-7.167 38.265-39.29 68.724Z"
      fill="#FFF" />
    <path
      d="M135.679 152.956c-.384 0-.64-.128-.896-.384l-14.718-14.718c-.256-.256-.256-.512-.256-.896s.128-.64.384-.895L174.2 82.056a1.237 1.237 0 0 1 1.791 0 15.58 15.58 0 0 1 4.991 11.902c-.256 14.206-16.38 32.25-44.28 58.614-.383.256-.767.384-1.023.384Zm-12.926-15.998c8.19 8.319 11.646 11.646 12.926 12.926 21.5-20.476 42.36-41.464 42.488-55.926.128-3.327-1.152-6.655-3.327-9.214l-52.087 52.214Z"
      fill="#FF6C37" />
    <path
      d="m105.22 121.345 10.878 10.878c.256.256.256.512 0 .768-.128.128-.128.128-.256.128l-22.524 4.863c-1.152.128-2.175-.64-2.431-1.791-.128-.64.128-1.28.512-1.664l13.053-13.054c.256-.256.64-.384.768-.128Z"
      fill="#FFF" />
    <path
      d="M92.934 139.262c-1.92 0-3.327-1.536-3.327-3.455 0-.896.384-1.792 1.024-2.432l13.053-13.054c.768-.64 1.792-.64 2.56 0l10.878 10.878c.768.64.768 1.792 0 2.56-.256.256-.512.384-.896.512l-22.524 4.863c-.256 0-.512.128-.768.128Zm11.902-16.51-12.542 12.543c-.256.256-.383.64-.128 1.024.128.383.512.511.896.383l21.116-4.607-9.342-9.342Z"
      fill="#FF6C37" />
    <path
      d="M202.739 52.238c-8.191-7.935-21.373-7.679-29.307.64-7.935 8.318-7.679 21.372.64 29.306A20.678 20.678 0 0 0 199.155 85l-14.59-14.59 18.174-18.172Z"
      fill="#FFF" />
    <path
      d="M188.405 89.223c-12.158 0-22.012-9.854-22.012-22.012 0-12.158 9.854-22.012 22.012-22.012 5.631 0 11.134 2.176 15.23 6.143.255.256.383.512.383.896s-.128.64-.384.895L186.357 70.41l13.566 13.566c.512.512.512 1.28 0 1.792l-.256.256c-3.327 2.047-7.295 3.199-11.262 3.199Zm0-41.337c-10.75 0-19.452 8.703-19.324 19.453 0 10.75 8.702 19.452 19.452 19.324 2.944 0 5.887-.64 8.575-2.047l-13.438-13.31c-.256-.256-.384-.512-.384-.896s.128-.64.384-.895l17.149-17.15c-3.456-2.943-7.807-4.479-12.414-4.479Z"
      fill="#FF6C37" />
    <path
      d="m203.122 52.622-.255-.256-18.301 18.044 14.461 14.462c1.408-.896 2.816-1.92 3.967-3.072a20.51 20.51 0 0 0 .128-29.178Z"
      fill="#FFF" />
    <path
      d="M199.155 86.28c-.384 0-.64-.128-.896-.384l-14.589-14.59c-.256-.256-.384-.512-.384-.896s.128-.64.384-.895l18.173-18.173a1.237 1.237 0 0 1 1.791 0l.384.256c8.575 8.574 8.575 22.396.128 31.098-1.28 1.28-2.687 2.432-4.223 3.328-.384.128-.64.256-.768.256Zm-12.798-15.87 12.926 12.926c1.024-.64 2.048-1.536 2.816-2.304 7.294-7.294 7.678-19.196.64-26.875L186.357 70.41Z"
      fill="#FF6C37" />
    <path
      d="M176.375 84.488a7.879 7.879 0 0 0-11.134 0l-48.247 48.247 8.063 8.063 51.062-44.792c3.328-2.816 3.584-7.807.768-11.134-.256-.128-.384-.256-.512-.384Z"
      fill="#FFF" />
    <path
      d="M124.929 142.077c-.384 0-.64-.128-.896-.383l-8.063-8.063a1.237 1.237 0 0 1 0-1.792l48.247-48.247a9.115 9.115 0 0 1 12.926 0 9.115 9.115 0 0 1 0 12.926l-.384.384-51.063 44.792c-.128.255-.384.383-.767.383Zm-6.143-9.342 6.27 6.271 50.167-44.024c2.816-2.304 3.072-6.527.768-9.342-2.303-2.816-6.526-3.072-9.342-.768-.128.128-.256.256-.512.384l-47.351 47.48Z"
      fill="#FF6C37" />
    <path
      d="M80.009 187.637c-.512.256-.768.768-.64 1.28l2.175 9.214c.512 1.28-.256 2.816-1.663 3.2-1.024.384-2.176 0-2.816-.768l-14.077-13.95 45.943-45.943 15.87.256 10.75 10.75c-2.56 2.175-18.045 17.149-55.542 35.961Z"
      fill="#FFF" />
    <path
      d="M78.985 202.61c-1.024 0-2.048-.383-2.688-1.151l-13.95-13.95c-.255-.256-.383-.512-.383-.896 0-.383.128-.64.384-.895l45.944-45.944c.256-.256.64-.384.895-.384l15.87.256c.383 0 .64.128.895.384l10.75 10.75c.256.256.384.64.384 1.024s-.128.64-.512.896l-.895.767c-13.566 11.902-31.995 23.804-54.902 35.194l2.175 9.086c.384 1.664-.384 3.456-1.92 4.352-.767.384-1.407.512-2.047.512Zm-14.078-15.997 13.182 13.054c.384.64 1.152.896 1.792.512.64-.384.896-1.152.512-1.792l-2.176-9.214c-.256-1.152.256-2.176 1.28-2.688 22.652-11.39 40.952-23.163 54.39-34.81l-9.47-9.47-14.718-.256-44.792 44.664Z"
      fill="#FF6C37" />
    <path
      d="m52.11 197.62 11.006-11.007 16.38 16.381-26.107-1.791c-1.151-.128-1.92-1.152-1.791-2.304 0-.512.128-1.024.512-1.28Z"
      fill="#FFF" />
    <path
      d="m79.497 204.146-26.236-1.791c-1.92-.128-3.199-1.792-3.071-3.712.128-.768.384-1.535 1.024-2.047L62.22 185.59a1.237 1.237 0 0 1 1.792 0l16.38 16.38c.385.385.512.897.257 1.408-.256.512-.64.768-1.152.768Zm-16.381-15.74-10.11 10.11c-.384.255-.384.895 0 1.151.127.128.255.256.511.256l22.652 1.536-13.053-13.054ZM104.452 146.557c-.768 0-1.28-.64-1.28-1.28 0-.384.128-.64.384-.896l12.414-12.414a1.237 1.237 0 0 1 1.792 0l8.062 8.063c.384.384.512.768.384 1.28-.128.384-.512.767-1.023.895l-20.477 4.352h-.256Zm12.414-11.902-8.446 8.446 13.821-2.943-5.375-5.503Z"
      fill="#FF6C37" />
    <path
      d="m124.8 140.926-14.077 3.071c-1.024.256-2.048-.384-2.303-1.408-.128-.64 0-1.28.511-1.791l7.807-7.807 8.063 7.935Z"
      fill="#FFF" />
    <path
      d="M110.467 145.277a3.168 3.168 0 0 1-3.2-3.2c0-.895.385-1.663.897-2.303l7.806-7.807a1.237 1.237 0 0 1 1.792 0l8.062 8.063c.384.384.512.768.384 1.28-.128.384-.512.767-1.023.895l-14.078 3.072h-.64Zm6.399-10.622-6.91 6.91c-.257.257-.257.512-.129.768s.384.384.768.384l11.774-2.56-5.503-5.502ZM203.25 64.907c-.256-.767-1.151-1.151-1.92-.895-.767.255-1.151 1.151-.895 1.92 0 .127.128.255.128.383.768 1.536.512 3.455-.512 4.863-.512.64-.384 1.536.128 2.048.64.512 1.536.384 2.048-.256 1.92-2.432 2.303-5.503 1.023-8.063Z"
      fill="#FF6C37" />
  </symbol>

  <symbol id="redux" viewBox="0 -6 256 256">
    <path
      d="M177.381 169.733c9.447-.978 16.614-9.122 16.288-18.896-.325-9.773-8.47-17.592-18.243-17.592h-.651c-10.1.326-17.918 8.796-17.592 18.895.326 4.887 2.28 9.122 5.212 12.054-11.076 21.828-28.016 37.791-53.426 51.148-17.266 9.122-35.183 12.38-53.1 10.1-14.66-1.955-26.062-8.47-33.23-19.222-10.424-15.963-11.401-33.23-2.605-50.496 6.19-12.38 15.962-21.502 22.152-26.063-1.303-4.235-3.258-11.402-4.235-16.614-47.237 34.207-42.35 80.468-28.016 102.295 10.75 16.29 32.577 26.389 56.684 26.389 6.515 0 13.03-.652 19.546-2.28 41.699-8.145 73.299-32.905 91.216-69.718zm57.336-40.397c-24.759-28.995-61.245-44.958-102.944-44.958h-5.212c-2.932-5.864-9.122-9.774-15.963-9.774h-.652C99.848 74.93 92.03 83.4 92.355 93.5c.326 9.773 8.47 17.592 18.243 17.592h.651c7.167-.326 13.357-4.887 15.963-11.077h5.864c24.759 0 48.214 7.167 69.39 21.176 16.288 10.751 28.016 24.76 34.531 41.7 5.538 13.683 5.212 27.04-.652 38.443-9.121 17.266-24.432 26.714-44.63 26.714-13.031 0-25.41-3.91-31.926-6.842-3.583 3.258-10.099 8.47-14.66 11.729 14.009 6.515 28.343 10.099 42.025 10.099 31.274 0 54.404-17.267 63.2-34.533 9.447-18.896 8.795-51.474-15.637-79.165zM69.225 175.27c.326 9.774 8.47 17.592 18.243 17.592h.652c10.099-.325 17.917-8.796 17.591-18.895-.325-9.774-8.47-17.592-18.243-17.592h-.651c-.652 0-1.63 0-2.28.325-13.357-22.153-18.895-46.26-16.94-72.323 1.302-19.547 7.818-36.488 19.22-50.497 9.447-12.054 27.69-17.918 40.07-18.243 34.531-.652 49.19 42.351 50.168 59.618 4.235.977 11.402 3.258 16.289 4.887C189.434 27.366 156.857 0 125.584 0c-29.32 0-56.359 21.176-67.11 52.451-14.985 41.7-5.212 81.771 13.031 113.372-1.628 2.28-2.606 5.864-2.28 9.448z"
      fill="#764ABC" />
  </symbol>

  <symbol id="materialUI" viewBox="0 0 256 222">
    <path
      d="M215.8 151.1a7.1 7.1 0 0 0 3.5-6.1l.2-41.2c0-2.5 1.3-4.9 3.5-6.1l22.3-12.8A7.1 7.1 0 0 1 256 91v74.8c0 2.6-1.4 5-3.6 6.2l-84.2 48.4a7.1 7.1 0 0 1-7 0L95 182.6a7.1 7.1 0 0 1-3.6-6.2v-37.7h.1v-.1l.1-.1 54.5-31.3v-.1h-.1V70a7.1 7.1 0 0 0-10.6-6.2L95.1 87.2a7.1 7.1 0 0 1-7.1 0L47.4 63.8A7.1 7.1 0 0 0 36.7 70v66.8a7.1 7.1 0 0 1-10.6 6.2L3.6 130A7.1 7.1 0 0 1 0 124L.2 7.1A7.1 7.1 0 0 1 10.9.9l77 44.3a7.1 7.1 0 0 0 7.2 0L172 1a7.1 7.1 0 0 1 10.7 6.2V124c0 2.5-1.3 4.9-3.6 6.1L139 153.4a7.1 7.1 0 0 0 0 12.3l22.3 12.7a7.1 7.1 0 0 0 7 0l47.6-27.3Zm4.6-104.8a7.1 7.1 0 0 0 10.8 6l21.3-12.7a7.1 7.1 0 0 0 3.5-6.1V7.4a7.1 7.1 0 0 0-10.8-6.1L224 14.1a7.1 7.1 0 0 0-3.5 6v26.2Z"
      fill="#007FFF" />
  </symbol>

  <symbol id="node" viewBox="0 0 32 32">
    <g id="SVGRepo_bgCarrier" stroke-width="0"></g>
    <g id="SVGRepo_tracerCarrier" stroke-linecap="round" stroke-linejoin="round"></g>
    <g id="SVGRepo_iconCarrier">
      <path
        d="M17.1725 2.29872C16.4627 1.89953 15.5373 1.90132 14.8269 2.29872C11.2689 4.26227 7.71082 6.22641 4.15216 8.18906C3.45969 8.55335 2.99264 9.29698 3.00009 10.0688V21.9328C2.99509 22.7197 3.48622 23.4705 4.19655 23.8298C5.21871 24.3736 6.2118 24.9726 7.25244 25.4802C8.45451 26.0709 9.95843 26.2015 11.1752 25.5855C12.1629 25.075 12.6016 23.9395 12.6003 22.896C12.6083 18.9806 12.6016 15.0651 12.6034 11.1496C12.6269 10.9756 12.4962 10.7896 12.3064 10.7938C11.8517 10.7866 11.3964 10.7896 10.9417 10.7926C10.7699 10.7764 10.6022 10.9191 10.6152 11.0918C10.6091 14.982 10.6164 18.8734 10.6115 22.7642C10.6214 23.3024 10.2578 23.8196 9.73913 24.0014C8.5412 24.4213 5.12198 22.2012 5.12198 22.2012C4.9965 22.1431 4.91682 22.007 4.92912 21.8718C4.92912 17.9576 4.92973 14.0433 4.92912 10.1297C4.91187 9.97191 5.00912 9.8298 5.15402 9.76538C8.70033 7.8134 12.2448 5.85654 15.7911 3.90336C15.9143 3.82115 16.086 3.8214 16.2089 3.90396C19.7552 5.85654 23.3003 7.81161 26.8472 9.76368C26.9926 9.828 27.0857 9.9725 27.0709 10.1297C27.0703 14.0433 27.0721 17.9576 27.0697 21.8713C27.0802 22.0098 27.0086 22.144 26.8793 22.2048C23.3661 24.1462 19.8129 26.025 16.3315 28.0228C16.1796 28.1099 16.0075 28.2086 15.8373 28.1126C14.9218 27.6062 14.0174 27.0801 13.1049 26.5688C13.0057 26.5069 12.8794 26.4803 12.7759 26.5496C12.3668 26.7652 11.982 26.9398 11.5122 27.1258C10.8524 27.387 10.9578 27.4938 11.5529 27.8405C12.62 28.4444 13.6889 29.0459 14.756 29.6504C15.4585 30.0888 16.4024 30.12 17.1275 29.7149C20.6861 27.7538 24.2436 25.7904 27.8029 23.8293C28.5113 23.468 29.0049 22.7202 28.9999 21.9327V10.0688C29.0068 9.31264 28.5576 8.58227 27.886 8.21259C24.3156 6.23947 20.7435 4.27064 17.1725 2.29872Z"
        fill="#8CC84B"></path>
      <path
        d="M22.5419 11.2062C21.1452 10.459 19.4836 10.4192 17.9315 10.5169C16.8102 10.6277 15.6309 10.9371 14.814 11.7409C13.9761 12.5489 13.7937 13.8537 14.1917 14.9085C14.4769 15.6539 15.1948 16.1386 15.9372 16.395C16.8935 16.7326 17.8979 16.837 18.9026 16.9414C19.819 17.0366 20.7357 17.1319 21.6165 17.4042C21.9763 17.5234 22.3953 17.7058 22.5055 18.0973C22.6073 18.5609 22.4957 19.0998 22.1193 19.4219C20.9237 20.3682 17.5979 20.2232 16.4166 19.4784C15.939 19.1611 15.7332 18.5994 15.6495 18.0641C15.6402 17.8973 15.5059 17.7443 15.3248 17.757C14.8713 17.7516 14.4178 17.7528 13.9643 17.7564C13.8061 17.7431 13.6416 17.8557 13.6329 18.0172C13.5397 20.4689 15.7914 21.5377 17.9039 21.773C19.1108 21.888 20.3442 21.8814 21.5327 21.6224C22.4261 21.419 23.3219 21.0444 23.9369 20.3563C24.6953 19.52 24.8444 18.2749 24.5043 17.2332C24.2443 16.4559 23.5012 15.9573 22.7416 15.7008C21.7086 15.3466 20.4844 15.1562 19.5488 15.0671C18.1889 14.9376 16.5729 14.9905 16.188 14.0969C16.0345 13.629 16.1651 13.048 16.5951 12.7602C17.7328 11.9885 20.0483 12.091 21.2265 12.6675C21.7675 12.9384 22.081 13.4948 22.2104 14.0565C22.2344 14.2215 22.3454 14.3937 22.5364 14.3865C22.9868 14.3955 23.4372 14.3889 23.8875 14.3895C24.0422 14.4003 24.2116 14.313 24.2418 14.1546C24.2227 12.9806 23.6232 11.7788 22.5419 11.2062Z"
        fill="#8CC84B"></path>
    </g>
  </symbol>

  <symbol id="java" viewBox="0 0 256 346">
    <path
      d="M83 267s-14 8 9 11c27 3 41 2 71-3 0 0 8 5 19 9-67 29-153-2-99-17M74 230s-15 11 8 13c29 3 52 3 92-4 0 0 6 5 15 8-82 24-173 2-115-17"
      fill="#5382A1" />
    <path d="M144 166c17 19-4 36-4 36s42-22 22-49c-18-26-32-38 44-82 0 0-119 29-62 95"
      fill="#E76F00" />
    <path
      d="M233 295s10 8-10 15c-39 12-163 15-197 0-12-5 11-13 18-14l12-2c-14-9-89 19-38 28 138 22 251-10 215-27M89 190s-63 15-22 21c17 2 51 2 83-1 26-2 52-7 52-7l-16 9c-64 16-187 8-151-9 30-14 54-13 54-13M202 253c64-33 34-66 13-61l-7 2s2-3 6-5c41-14 73 43-14 66l2-2"
      fill="#5382A1" />
    <path d="M162 0s36 36-34 91c-56 45-12 70 0 99-32-30-56-56-40-80 23-35 89-53 74-110"
      fill="#E76F00" />
    <path d="M95 345c62 4 158-3 160-32 0 0-4 11-51 20-53 10-119 9-158 2 0 0 8 7 49 10"
      fill="#5382A1" />
  </symbol>

  <symbol id="bash" viewBox="-16 0 256 256">
    <g>
      <path
        d="M207.953496,52.161792 L127.317154,4.28699154 C117.73318,-1.42899718 105.786545,-1.42899718 96.2025707,4.28699154 L15.5500822,52.161792 C5.848665,58.0143618 -0.0579442252,68.5395346 0.000428679482,79.8694336 L0.000428679482,175.602888 C-0.0522462707,186.927041 5.85362572,197.444768 15.5500822,203.294383 L96.186424,251.153037 C105.771373,256.86549 117.716059,256.86549 127.301008,251.153037 L207.937349,203.294383 C217.644962,197.44581 223.55812,186.9199 223.50315,175.586741 L223.50315,79.8694336 C223.561523,68.5395346 217.654913,58.0143618 207.953496,52.161792 Z"
        fill="#FFFFFF" />
      <path
        d="M208.411532,52.276683 L127.597582,4.29643402 C117.992498,-1.43214467 106.019549,-1.43214467 96.4144654,4.29643402 L15.5843327,52.276683 C5.86154721,58.1421436 -0.0580718526,68.6904991 0.000429623687,80.0453532 L0.000429623687,175.989669 C-0.0523613478,187.338765 5.86651886,197.879657 15.5843327,203.742157 L96.3982832,251.706224 C106.004343,257.431259 117.975339,257.431259 127.581399,251.706224 L208.39535,203.742157 C218.124345,197.880703 224.050527,187.331607 223.995435,175.973487 L223.995435,80.0453532 C224.053937,68.6904991 218.134318,58.1421436 208.411532,52.276683 Z M99.2301697,246.803014 L18.4162192,198.838948 C10.4300926,193.999639 5.56585934,185.327547 5.59969728,175.989669 L5.59969728,80.0453532 C5.56264048,70.7066408 10.4277023,62.033071 18.4162192,57.1960744 L99.2301697,9.21582548 C107.095348,4.52357839 116.900517,4.52357839 124.765695,9.21582548 L205.514917,57.1960744 C212.17156,61.2279088 216.712503,67.9889997 217.926671,75.6761569 C215.240424,69.9638372 209.20446,68.3941629 202.1652,72.4397151 L125.768992,119.756494 C116.237671,125.306991 109.214593,131.569506 109.19841,143.058874 L109.19841,237.271693 C109.19841,244.149132 111.965568,248.59924 116.237671,249.909999 C114.838668,250.166379 113.420175,250.301731 111.997932,250.314554 C107.503971,250.311263 103.093756,249.098314 99.2301697,246.803014 Z"
        fill="#000000" />
      <path
        d="M187.007319,185.05984 L166.920894,197.072944 C166.382945,197.289147 166.022425,197.801466 166.000535,198.380822 L166.000535,203.660774 C166.000535,204.30664 166.436494,204.564987 166.969334,204.2582 L187.362545,191.857577 C187.861962,191.483188 188.100868,190.854486 187.976118,190.242913 L187.976118,185.608826 C187.959971,185.0114 187.491719,184.753054 187.007319,185.05984 Z"
        fill="#3AB14A" />
      <path
        d="M144.262952,140.831868 C144.908817,140.508935 145.441657,140.831868 145.457803,141.752226 L145.52239,148.75987 C147.937868,147.662506 150.63266,147.335523 153.240486,147.823365 C153.741032,147.952538 153.950938,148.630697 153.757179,149.438029 L152.223247,155.5899 C152.106964,156.054178 151.867023,156.478259 151.528942,156.817045 C151.410206,156.934194 151.274035,157.032237 151.125276,157.107685 C150.94275,157.206405 150.732219,157.240546 150.52785,157.204565 C147.984993,156.641458 145.323113,157.068744 143.084247,158.399417 C139.810579,159.87411 137.670697,163.093345 137.578241,166.682645 C137.578241,169.911974 139.192905,170.800039 144.828084,170.896919 C152.271687,171.026092 155.501016,174.271568 155.581749,181.779758 C155.404525,189.616874 151.790949,196.979831 145.700003,201.914623 L145.829176,208.793094 C145.817697,209.647405 145.37394,210.437656 144.650471,210.892157 L140.581517,213.233421 C139.935651,213.556354 139.402812,213.233421 139.386665,212.329209 L139.386665,205.563765 C135.89899,207.016963 132.362875,207.356042 130.102345,206.45183 C129.682532,206.290364 129.488772,205.660645 129.666385,204.934046 L131.13573,198.717587 C131.24746,198.225629 131.499922,197.776809 131.862329,197.425856 C131.977267,197.315759 132.107853,197.223261 132.249848,197.151363 C132.460373,197.056728 132.701336,197.056728 132.911861,197.151363 C135.790274,197.931772 138.860474,197.542919 141.453436,196.069538 C145.195213,194.264929 147.626918,190.533412 147.766774,186.381551 C147.766774,182.893876 145.845323,181.440678 141.308116,181.408385 C135.446884,181.408385 130.005465,180.27812 129.892438,171.720398 C130.027305,164.244122 133.498017,157.21978 139.354372,152.570478 L139.063732,145.530541 C139.061125,144.663931 139.507025,143.857647 140.242437,143.399184 L144.262952,140.831868 Z"
        fill="#FFFFFF" />
    </g>
  </symbol>

  <symbol id="slack" viewBox="0 0 2447.6 2452.5">
    <g clip-rule="evenodd" fill-rule="evenodd">
      <path
        d="m897.4 0c-135.3.1-244.8 109.9-244.7 245.2-.1 135.3 109.5 245.1 244.8 245.2h244.8v-245.1c.1-135.3-109.5-245.1-244.9-245.3.1 0 .1 0 0 0m0 654h-652.6c-135.3.1-244.9 109.9-244.8 245.2-.2 135.3 109.4 245.1 244.7 245.3h652.7c135.3-.1 244.9-109.9 244.8-245.2.1-135.4-109.5-245.2-244.8-245.3z"
        fill="#36c5f0"
      />
      <path
        d="m2447.6 899.2c.1-135.3-109.5-245.1-244.8-245.2-135.3.1-244.9 109.9-244.8 245.2v245.3h244.8c135.3-.1 244.9-109.9 244.8-245.3zm-652.7 0v-654c.1-135.2-109.4-245-244.7-245.2-135.3.1-244.9 109.9-244.8 245.2v654c-.2 135.3 109.4 245.1 244.7 245.3 135.3-.1 244.9-109.9 244.8-245.3z"
        fill="#2eb67d"
      />
      <path
        d="m1550.1 2452.5c135.3-.1 244.9-109.9 244.8-245.2.1-135.3-109.5-245.1-244.8-245.2h-244.8v245.2c-.1 135.2 109.5 245 244.8 245.2zm0-654.1h652.7c135.3-.1 244.9-109.9 244.8-245.2.2-135.3-109.4-245.1-244.7-245.3h-652.7c-135.3.1-244.9 109.9-244.8 245.2-.1 135.4 109.4 245.2 244.7 245.3z"
        fill="#ecb22e"
      />
      <path
        d="m0 1553.2c-.1 135.3 109.5 245.1 244.8 245.2 135.3-.1 244.9-109.9 244.8-245.2v-245.2h-244.8c-135.3.1-244.9 109.9-244.8 245.2zm652.7 0v654c-.2 135.3 109.4 245.1 244.7 245.3 135.3-.1 244.9-109.9 244.8-245.2v-653.9c.2-135.3-109.4-245.1-244.7-245.3-135.4 0-244.9 109.8-244.8 245.1 0 0 0 .1 0 0"
        fill="#e01e5a"
      />
    </g>
  </symbol>

  <symbol id="git" viewBox="0 0 256 256">
    <path
      d="M251.17 116.6 139.4 4.82a16.49 16.49 0 0 0-23.31 0l-23.21 23.2 29.44 29.45a19.57 19.57 0 0 1 24.8 24.96l28.37 28.38a19.61 19.61 0 1 1-11.75 11.06L137.28 95.4v69.64a19.62 19.62 0 1 1-16.13-.57V94.2a19.61 19.61 0 0 1-10.65-25.73L81.46 39.44 4.83 116.08a16.49 16.49 0 0 0 0 23.32L116.6 251.17a16.49 16.49 0 0 0 23.32 0l111.25-111.25a16.5 16.5 0 0 0 0-23.33"
      fill="#DE4C36" />
  </symbol>

  <symbol id="github" viewBox="0 0 20 20">
    <g id="SVGRepo_bgCarrier" stroke-width="0"></g>
    <g id="SVGRepo_tracerCarrier" stroke-linecap="round" stroke-linejoin="round"></g>
    <g id="SVGRepo_iconCarrier">
      <title>github [#ffffff]</title>
      <desc>Created with Sketch.</desc>
      <defs> </defs>
      <g id="Page-1" stroke="none" stroke-width="1" fill="none" fill-rule="evenodd">
        <g id="Dribbble-Light-Preview" transform="translate(-140.000000, -7559.000000)"
          fill="#ffffff">
          <g id="icons" transform="translate(56.000000, 160.000000)">
            <path
              d="M94,7399 C99.523,7399 104,7403.59 104,7409.253 C104,7413.782 101.138,7417.624 97.167,7418.981 C96.66,7419.082 96.48,7418.762 96.48,7418.489 C96.48,7418.151 96.492,7417.047 96.492,7415.675 C96.492,7414.719 96.172,7414.095 95.813,7413.777 C98.04,7413.523 100.38,7412.656 100.38,7408.718 C100.38,7407.598 99.992,7406.684 99.35,7405.966 C99.454,7405.707 99.797,7404.664 99.252,7403.252 C99.252,7403.252 98.414,7402.977 96.505,7404.303 C95.706,7404.076 94.85,7403.962 94,7403.958 C93.15,7403.962 92.295,7404.076 91.497,7404.303 C89.586,7402.977 88.746,7403.252 88.746,7403.252 C88.203,7404.664 88.546,7405.707 88.649,7405.966 C88.01,7406.684 87.619,7407.598 87.619,7408.718 C87.619,7412.646 89.954,7413.526 92.175,7413.785 C91.889,7414.041 91.63,7414.493 91.54,7415.156 C90.97,7415.418 89.522,7415.871 88.63,7414.304 C88.63,7414.304 88.101,7413.319 87.097,7413.247 C87.097,7413.247 86.122,7413.234 87.029,7413.87 C87.029,7413.87 87.684,7414.185 88.139,7415.37 C88.139,7415.37 88.726,7417.2 91.508,7416.58 C91.513,7417.437 91.522,7418.245 91.522,7418.489 C91.522,7418.76 91.338,7419.077 90.839,7418.982 C86.865,7417.627 84,7413.783 84,7409.253 C84,7403.59 88.478,7399 94,7399"
              id="github-[#ffffff]"> </path>
          </g>
        </g>
      </g>
    </g>
  </symbol>

  <symbol id="postgreSql" viewBox="0 0 432.071 445.383">
    <g
      style="fill-rule:nonzero;clip-rule:nonzero;fill:none;stroke:#fff;stroke-width:12.4651;stroke-linecap:round;stroke-linejoin:round;stroke-miterlimit:4">
      <path
        d="M323.205 324.227c2.833-23.601 1.984-27.062 19.563-23.239l4.463.392c13.517.615 31.199-2.174 41.587-7 22.362-10.376 35.622-27.7 13.572-23.148-50.297 10.376-53.755-6.655-53.755-6.655 53.111-78.803 75.313-178.836 56.149-203.322-52.27-66.789-142.748-35.206-144.262-34.386l-.482.089c-9.938-2.062-21.06-3.294-33.554-3.496-22.761-.374-40.032 5.967-53.133 15.904 0 0-161.408-66.498-153.899 83.628 1.597 31.936 45.777 241.655 98.47 178.31 19.259-23.163 37.871-42.748 37.871-42.748 9.242 6.14 20.307 9.272 31.912 8.147l.897-.765c-.281 2.876-.157 5.689.359 9.019-13.572 15.167-9.584 17.83-36.723 23.416-27.457 5.659-11.326 15.734-.797 18.367 12.768 3.193 42.305 7.716 62.268-20.224l-.795 3.188c5.325 4.26 4.965 30.619 5.72 49.452.756 18.834 2.017 36.409 5.856 46.771 3.839 10.36 8.369 37.05 44.036 29.406 29.809-6.388 52.6-15.582 54.677-101.107"
        style="fill:#000;stroke:#000;stroke-width:37.3953;stroke-linecap:butt;stroke-linejoin:miter" />
      <path stroke="none"
        d="M402.395 271.23c-50.302 10.376-53.76-6.655-53.76-6.655 53.111-78.808 75.313-178.843 56.153-203.326-52.27-66.785-142.752-35.2-144.262-34.38l-.486.087c-9.938-2.063-21.06-3.292-33.56-3.496-22.761-.373-40.026 5.967-53.127 15.902 0 0-161.411-66.495-153.904 83.63 1.597 31.938 45.776 241.657 98.471 178.312 19.26-23.163 37.869-42.748 37.869-42.748 9.243 6.14 20.308 9.272 31.908 8.147l.901-.765c-.28 2.876-.152 5.689.361 9.019-13.575 15.167-9.586 17.83-36.723 23.416-27.459 5.659-11.328 15.734-.796 18.367 12.768 3.193 42.307 7.716 62.266-20.224l-.796 3.188c5.319 4.26 9.054 27.711 8.428 48.969-.626 21.259-1.044 35.854 3.147 47.254 4.191 11.4 8.368 37.05 44.042 29.406 29.809-6.388 45.256-22.942 47.405-50.555 1.525-19.631 4.976-16.729 5.194-34.28l2.768-8.309c3.192-26.611.507-35.196 18.872-31.203l4.463.392c13.517.615 31.208-2.174 41.591-7 22.358-10.376 35.618-27.7 13.573-23.148z"
        style="fill:#336791;stroke:none" />
      <path
        d="M215.866 286.484c-1.385 49.516.348 99.377 5.193 111.495 4.848 12.118 15.223 35.688 50.9 28.045 29.806-6.39 40.651-18.756 45.357-46.051 3.466-20.082 10.148-75.854 11.005-87.281M173.104 38.256S11.583-27.76 19.092 122.365c1.597 31.938 45.779 241.664 98.473 178.316 19.256-23.166 36.671-41.335 36.671-41.335M260.349 26.207c-5.591 1.753 89.848-34.889 144.087 34.417 19.159 24.484-3.043 124.519-56.153 203.329" />
      <path
        d="M348.282 263.953s3.461 17.036 53.764 6.653c22.04-4.552 8.776 12.774-13.577 23.155-18.345 8.514-59.474 10.696-60.146-1.069-1.729-30.355 21.647-21.133 19.96-28.739-1.525-6.85-11.979-13.573-18.894-30.338-6.037-14.633-82.796-126.849 21.287-110.183 3.813-.789-27.146-99.002-124.553-100.599-97.385-1.597-94.19 119.762-94.19 119.762"
        style="stroke-linejoin:bevel" />
      <path
        d="M188.604 274.334c-13.577 15.166-9.584 17.829-36.723 23.417-27.459 5.66-11.326 15.733-.797 18.365 12.768 3.195 42.307 7.718 62.266-20.229 6.078-8.509-.036-22.086-8.385-25.547-4.034-1.671-9.428-3.765-16.361 3.994z" />
      <path
        d="M187.715 274.069c-1.368-8.917 2.93-19.528 7.536-31.942 6.922-18.626 22.893-37.255 10.117-96.339-9.523-44.029-73.396-9.163-73.436-3.193-.039 5.968 2.889 30.26-1.067 58.548-5.162 36.913 23.488 68.132 56.479 64.938" />
      <path
        d="M172.517 141.7c-.288 2.039 3.733 7.48 8.976 8.207 5.234.73 9.714-3.522 9.998-5.559.284-2.039-3.732-4.285-8.977-5.015-5.237-.731-9.719.333-9.996 2.367z"
        style="fill:#fff;stroke-width:4.155;stroke-linecap:butt;stroke-linejoin:miter" />
      <path
        d="M331.941 137.543c.284 2.039-3.732 7.48-8.976 8.207-5.238.73-9.718-3.522-10.005-5.559-.277-2.039 3.74-4.285 8.979-5.015 5.239-.73 9.718.333 10.002 2.368z"
        style="fill:#fff;stroke-width:2.0775;stroke-linecap:butt;stroke-linejoin:miter" />
      <path
        d="M350.676 123.432c.863 15.994-3.445 26.888-3.988 43.914-.804 24.748 11.799 53.074-7.191 81.435" />
    </g>
  </symbol>

  <symbol id="mongodb" viewBox="0 0 256 549">
    <path fill="#01EC64"
      d="M175.622 61.108C152.612 33.807 132.797 6.078 128.749.32a1.03 1.03 0 0 0-1.492 0c-4.048 5.759-23.863 33.487-46.874 60.788-197.507 251.896 31.108 421.89 31.108 421.89l1.917 1.28c1.704 26.234 5.966 63.988 5.966 63.988h17.045s4.26-37.54 5.965-63.987l1.918-1.494c.213.214 228.828-169.78 31.32-421.677Zm-47.726 418.05s-10.227-8.744-12.997-13.222v-.428l12.358-274.292c0-.853 1.279-.853 1.279 0l12.357 274.292v.428c-2.77 4.478-12.997 13.223-12.997 13.223Z" />
  </symbol>

  <symbol id="nextjs" viewBox="0 0 180 180">
    <mask id="mask0_408_139" style="mask-type:alpha" maskUnits="userSpaceOnUse" x="0" y="0"
      width="180" height="180">
      <circle cx="90" cy="90" r="90" fill="black" />
    </mask>
    <g mask="url(#mask0_408_139)">
      <circle cx="90" cy="90" r="87" fill="black" stroke="white" stroke-width="6" />
      <path
        d="M149.508 157.52L69.142 54H54V125.97H66.1136V69.3836L139.999 164.845C143.333 162.614 146.509 160.165 149.508 157.52Z"
        fill="url(#paint0_linear_408_139)" />
      <rect x="115" y="54" width="12" height="72" fill="url(#paint1_linear_408_139)" />
    </g>
    <defs>
      <linearGradient id="paint0_linear_408_139" x1="109" y1="116.5" x2="144.5" y2="160.5"
        gradientUnits="userSpaceOnUse">
        <stop stop-color="white" />
        <stop offset="1" stop-color="white" stop-opacity="0" />
      </linearGradient>
      <linearGradient id="paint1_linear_408_139" x1="121" y1="54" x2="120.799" y2="106.875"
        gradientUnits="userSpaceOnUse">
        <stop stop-color="white" />
        <stop offset="1" stop-color="white" stop-opacity="0" />
      </linearGradient>
    </defs>
  </symbol>

  <symbol id="jest" viewBox="0 0 256 283">
    <path
      d="M240 139a26 26 0 0 0-29-26L247 6H93l36 107a26 26 0 0 0-28 26c0 12 8 22 19 25a115 115 0 0 1-58 49c-16-8-23-27-17-43l3-5a26 26 0 1 0-21-4c-7 14-16 30-19 48-4 21 0 44 18 57 44 30 91-18 140-31 18-4 38-3 54-13 12-6 20-18 22-31 2-12-1-25-9-35 4-5 7-11 7-17"
      fill="#99425B" />
    <path
      d="M236 190c-2 11-9 21-19 27-10 5-21 7-33 9l-19 3c-17 4-34 12-50 20-32 16-59 30-85 12-19-13-18-38-16-51 2-12 8-24 13-35l3-5 8 2c-5 18 3 37 21 47l3 1 2-1c15-5 28-13 39-24 8-7 14-15 20-24a33 33 0 0 0 37-28h21a33 33 0 0 0 51 23c4 7 5 16 4 24ZM42 119a20 20 0 1 1 0 40 20 20 0 0 1 0-40Zm66 20a20 20 0 1 1 40 0 20 20 0 0 1-40 0Zm83-24c-5 4-8 10-9 15h-23c-1-6-5-11-10-15l21-42 21 42ZM102 13h136l-32 94-4 1-32-64-32 64-4-1-32-94Zm131 126a20 20 0 0 1-20 20 20 20 0 1 1 20-20Zm13 0c0-16-12-29-27-32L256 0H84l37 107a33 33 0 0 0-11 60 110 110 0 0 1-47 39c-12-8-17-21-12-33l1-1 1-2a33 33 0 1 0-34-8l-4 8c-5 11-11 24-14 38-4 28 3 51 22 63 11 8 22 11 34 11 21 0 43-11 64-21 15-8 31-16 47-19l18-4c13-1 26-3 37-10a51 51 0 0 0 18-72c3-5 5-11 5-17Z"
      fill="#FFF" />
  </symbol>

  <symbol id="express" viewBox="0 0 24 24">
    <path fill="#ffffff" stroke="#ffffff"
      d="M24 18.588a1.529 1.529 0 0 1-1.895-.72l-3.45-4.771-.5-.667-4.003 5.444a1.466 1.466 0 0 1-1.802.708l5.158-6.92-4.798-6.251a1.595 1.595 0 0 1 1.9.666l3.576 4.83 3.596-4.81a1.435 1.435 0 0 1 1.788-.668L21.708 7.9l-2.522 3.283a.666.666 0 0 0 0 .994l4.804 6.412zM.002 11.576l.42-2.075c1.154-4.103 5.858-5.81 9.094-3.27 1.895 1.489 2.368 3.597 2.275 5.973H1.116C.943 16.447 4.005 19.009 7.92 17.7a4.078 4.078 0 0 0 2.582-2.876c.207-.666.548-.78 1.174-.588a5.417 5.417 0 0 1-2.589 3.957 6.272 6.272 0 0 1-7.306-.933 6.575 6.575 0 0 1-1.64-3.858c0-.235-.08-.455-.134-.666A88.33 88.33 0 0 1 0 11.577zm1.127-.286h9.654c-.06-3.076-2.001-5.258-4.59-5.278-2.882-.04-4.944 2.094-5.071 5.264z" />
  </symbol>

  <symbol id="vite" viewBox="0 0 32 32">
    <g id="SVGRepo_bgCarrier" stroke-width="0"></g>
    <g id="SVGRepo_tracerCarrier" stroke-linecap="round" stroke-linejoin="round"></g>
    <g id="SVGRepo_iconCarrier">
      <title>file_type_vite</title>
      <path
        d="M29.8836 6.146L16.7418 29.6457c-.2714.4851-.9684.488-1.2439.0052L2.0956 6.1482c-.3-.5262.1498-1.1635.746-1.057l13.156 2.3516a.7144.7144 0 00.2537-.0004l12.8808-2.3478c.5942-.1083 1.0463.5241.7515 1.0513z"
        fill="url(#paint0_linear)"></path>
      <path
        d="M22.2644 2.0069l-9.7253 1.9056a.3571.3571 0 00-.2879.3294l-.5982 10.1038c-.014.238.2045.4227.4367.3691l2.7077-.6248c.2534-.0585.4823.1647.4302.4194l-.8044 3.9393c-.0542.265.1947.4918.4536.4132l1.6724-.5082c.2593-.0787.5084.1487.4536.414l-1.2784 6.1877c-.08.387.4348.598.6495.2662L16.5173 25 24.442 9.1848c.1327-.2648-.096-.5667-.387-.5106l-2.787.5379c-.262.0505-.4848-.1934-.4109-.4497l1.8191-6.306c.074-.2568-.1496-.5009-.4118-.4495z"
        fill="url(#paint1_linear)"></path>
      <defs id="defs50">
        <linearGradient id="paint0_linear" x1="6.0002" y1="32.9999" x2="235" y2="344"
          gradientUnits="userSpaceOnUse"
          gradientTransform="matrix(.07142 0 0 .07142 1.3398 1.8944)">
          <stop stop-color="#41D1FF" id="stop38"></stop>
          <stop offset="1" stop-color="#BD34FE" id="stop40"></stop>
        </linearGradient>
        <linearGradient id="paint1_linear" x1="194.651" y1="8.8182" x2="236.076" y2="292.989"
          gradientUnits="userSpaceOnUse"
          gradientTransform="matrix(.07142 0 0 .07142 1.3398 1.8944)">
          <stop stop-color="#FFEA83" id="stop43"></stop>
          <stop offset=".0833" stop-color="#FFDD35" id="stop45"></stop>
          <stop offset="1" stop-color="#FFA800" id="stop47"></stop>
        </linearGradient>
      </defs>
    </g>
  </symbol>

  <symbol id="vscode" viewBox="0 0 100 100">
    <mask id="a" width="100" height="100" x="0" y="0" mask-type="alpha" maskUnits="userSpaceOnUse">
      <path fill="#fff" fill-rule="evenodd"
        d="M70.912 99.317a6.223 6.223 0 0 0 4.96-.19l20.589-9.907A6.25 6.25 0 0 0 100 83.587V16.413a6.25 6.25 0 0 0-3.54-5.632L75.874.874a6.226 6.226 0 0 0-7.104 1.21L29.355 38.04 12.187 25.01a4.162 4.162 0 0 0-5.318.236l-5.506 5.009a4.168 4.168 0 0 0-.004 6.162L16.247 50 1.36 63.583a4.168 4.168 0 0 0 .004 6.162l5.506 5.01a4.162 4.162 0 0 0 5.318.236l17.168-13.032L68.77 97.917a6.217 6.217 0 0 0 2.143 1.4ZM75.015 27.3 45.11 50l29.906 22.701V27.3Z"
        clip-rule="evenodd" />
    </mask>
    <g mask="url(#a)">
      <path fill="#0065A9"
        d="M96.461 10.796 75.857.876a6.23 6.23 0 0 0-7.107 1.207l-67.451 61.5a4.167 4.167 0 0 0 .004 6.162l5.51 5.009a4.167 4.167 0 0 0 5.32.236l81.228-61.62c2.725-2.067 6.639-.124 6.639 3.297v-.24a6.25 6.25 0 0 0-3.539-5.63Z" />
      <g filter="url(#b)">
        <path fill="#007ACC"
          d="m96.461 89.204-20.604 9.92a6.229 6.229 0 0 1-7.107-1.207l-67.451-61.5a4.167 4.167 0 0 1 .004-6.162l5.51-5.009a4.167 4.167 0 0 1 5.32-.236l81.228 61.62c2.725 2.067 6.639.124 6.639-3.297v.24a6.25 6.25 0 0 1-3.539 5.63Z" />
      </g>
      <g filter="url(#c)">
        <path fill="#1F9CF0"
          d="M75.858 99.126a6.232 6.232 0 0 1-7.108-1.21c2.306 2.307 6.25.674 6.25-2.588V4.672c0-3.262-3.944-4.895-6.25-2.589a6.232 6.232 0 0 1 7.108-1.21l20.6 9.908A6.25 6.25 0 0 1 100 16.413v67.174a6.25 6.25 0 0 1-3.541 5.633l-20.601 9.906Z" />
      </g>
      <path fill="url(#d)" fill-rule="evenodd"
        d="M70.851 99.317a6.224 6.224 0 0 0 4.96-.19L96.4 89.22a6.25 6.25 0 0 0 3.54-5.633V16.413a6.25 6.25 0 0 0-3.54-5.632L75.812.874a6.226 6.226 0 0 0-7.104 1.21L29.294 38.04 12.126 25.01a4.162 4.162 0 0 0-5.317.236l-5.507 5.009a4.168 4.168 0 0 0-.004 6.162L16.186 50 1.298 63.583a4.168 4.168 0 0 0 .004 6.162l5.507 5.009a4.162 4.162 0 0 0 5.317.236L29.294 61.96l39.414 35.958a6.218 6.218 0 0 0 2.143 1.4ZM74.954 27.3 45.048 50l29.906 22.701V27.3Z"
        clip-rule="evenodd" opacity=".25" style="mix-blend-mode:overlay" />
    </g>
    <defs>
      <filter id="b" width="116.727" height="92.246" x="-8.394" y="15.829"
        color-interpolation-filters="sRGB" filterUnits="userSpaceOnUse">
        <feFlood flood-opacity="0" result="BackgroundImageFix" />
        <feColorMatrix in="SourceAlpha" values="0 0 0 0 0 0 0 0 0 0 0 0 0 0 0 0 0 0 127 0" />
        <feOffset />
        <feGaussianBlur stdDeviation="4.167" />
        <feColorMatrix values="0 0 0 0 0 0 0 0 0 0 0 0 0 0 0 0 0 0 0.25 0" />
        <feBlend in2="BackgroundImageFix" mode="overlay" result="effect1_dropShadow" />
        <feBlend in="SourceGraphic" in2="effect1_dropShadow" result="shape" />
      </filter>
      <filter id="c" width="47.917" height="116.151" x="60.417" y="-8.076"
        color-interpolation-filters="sRGB" filterUnits="userSpaceOnUse">
        <feFlood flood-opacity="0" result="BackgroundImageFix" />
        <feColorMatrix in="SourceAlpha" values="0 0 0 0 0 0 0 0 0 0 0 0 0 0 0 0 0 0 127 0" />
        <feOffset />
        <feGaussianBlur stdDeviation="4.167" />
        <feColorMatrix values="0 0 0 0 0 0 0 0 0 0 0 0 0 0 0 0 0 0 0.25 0" />
        <feBlend in2="BackgroundImageFix" mode="overlay" result="effect1_dropShadow" />
        <feBlend in="SourceGraphic" in2="effect1_dropShadow" result="shape" />
      </filter>
      <linearGradient id="d" x1="49.939" x2="49.939" y1=".258" y2="99.742"
        gradientUnits="userSpaceOnUse">
        <stop stop-color="#fff" />
        <stop offset="1" stop-color="#fff" stop-opacity="0" />
      </linearGradient>
    </defs>
  </symbol>


  <symbol id="reactRouter" viewBox="0 -58 256 256">
    <g id="SVGRepo_bgCarrier" stroke-width="0"></g>
    <g id="SVGRepo_tracerCarrier" stroke-linecap="round" stroke-linejoin="round"></g>
    <g id="SVGRepo_iconCarrier">
      <g>
        <path
          d="M78.0659341,92.5875806 C90.8837956,92.5875806 101.274726,82.1966508 101.274726,69.3787894 C101.274726,56.5609279 90.8837956,46.1699982 78.0659341,46.1699982 C65.2480726,46.1699982 54.8571429,56.5609279 54.8571429,69.3787894 C54.8571429,82.1966508 65.2480726,92.5875806 78.0659341,92.5875806 Z M23.2087913,139.005163 C36.0266526,139.005163 46.4175825,128.614233 46.4175825,115.796372 C46.4175825,102.97851 36.0266526,92.5875806 23.2087913,92.5875806 C10.3909298,92.5875806 0,102.97851 0,115.796372 C0,128.614233 10.3909298,139.005163 23.2087913,139.005163 Z M232.791209,139.005163 C245.60907,139.005163 256,128.614233 256,115.796372 C256,102.97851 245.60907,92.5875806 232.791209,92.5875806 C219.973347,92.5875806 209.582418,102.97851 209.582418,115.796372 C209.582418,128.614233 219.973347,139.005163 232.791209,139.005163 Z"
          fill="#ffffff"> </path>
        <path
          d="M156.565464,70.3568084 C155.823426,62.6028163 155.445577,56.1490255 149.505494,51.6131676 C141.982638,45.8687002 133.461166,49.5960243 122.964463,45.8072968 C112.650326,43.3121427 105,34.1545727 105,23.2394367 C105,10.4046502 115.577888,0 128.626373,0 C138.29063,0 146.599638,5.70747659 150.259573,13.8825477 C155.861013,24.5221258 152.220489,35.3500418 159.258242,40.8041273 C167.591489,47.2621895 178.826167,42.5329154 191.362109,48.6517412 C195.390112,50.5026944 198.799584,53.4384578 201.202056,57.0769224 C203.604528,60.7153869 205,65.0565524 205,69.7183101 C205,80.633446 197.349674,89.7910161 187.035538,92.2861702 C176.538834,96.0748977 168.017363,92.3475736 160.494506,98.092041 C152.03503,104.551712 156.563892,115.358642 149.669352,126.774447 C145.756163,134.291567 137.802119,139.43662 128.626373,139.43662 C115.577888,139.43662 105,129.03197 105,116.197184 C105,106.873668 110.581887,98.832521 118.637891,95.1306146 C131.173833,89.0117889 142.408511,93.7410629 150.741758,87.2830007 C155.549106,83.5574243 156.565464,77.8102648 156.565464,70.3568084 Z"
          fill="#D0021B"> </path>
      </g>
    </g>
  </symbol>

  <symbol id="react" viewBox="0 0 569 512">
    <g fill="none" fill-rule="evenodd">
      <g fill="#087EA4" fill-rule="nonzero">
        <path
          d="M285.5,201 C255.400481,201 231,225.400481 231,255.5 C231,285.599519 255.400481,310 285.5,310 C315.599519,310 340,285.599519 340,255.5 C340,225.400481 315.599519,201 285.5,201"
          id="Path"></path>
        <path
          d="M568.959856,255.99437 C568.959856,213.207656 529.337802,175.68144 466.251623,150.985214 C467.094645,145.423543 467.85738,139.922107 468.399323,134.521063 C474.621631,73.0415145 459.808523,28.6686204 426.709856,9.5541429 C389.677085,-11.8291748 337.36955,3.69129898 284.479928,46.0162134 C231.590306,3.69129898 179.282771,-11.8291748 142.25,9.5541429 C109.151333,28.6686204 94.3382249,73.0415145 100.560533,134.521063 C101.102476,139.922107 101.845139,145.443621 102.708233,151.02537 C97.4493791,153.033193 92.2908847,155.161486 87.3331099,157.39017 C31.0111824,182.708821 0,217.765415 0,255.99437 C0,298.781084 39.6220545,336.307301 102.708233,361.003527 C101.845139,366.565197 101.102476,372.066633 100.560533,377.467678 C94.3382249,438.947226 109.151333,483.32012 142.25,502.434597 C153.629683,508.887578 166.52439,512.186771 179.603923,511.991836 C210.956328,511.991836 247.567589,495.487529 284.479928,465.972527 C321.372196,495.487529 358.003528,511.991836 389.396077,511.991836 C402.475265,512.183856 415.36922,508.884856 426.75,502.434597 C459.848667,483.32012 474.661775,438.947226 468.439467,377.467678 C467.897524,372.066633 467.134789,366.565197 466.291767,361.003527 C529.377946,336.347457 569,298.761006 569,255.99437 M389.155214,27.1025182 C397.565154,26.899606 405.877839,28.9368502 413.241569,33.0055186 C436.223966,46.2772304 446.540955,82.2775015 441.522965,131.770345 C441.181741,135.143488 440.780302,138.556788 440.298575,141.990165 C414.066922,134.08804 387.205771,128.452154 360.010724,125.144528 C343.525021,103.224055 325.192524,82.7564475 305.214266,63.9661533 C336.586743,39.7116483 366.032313,27.1025182 389.135142,27.1025182 M378.356498,310.205598 C368.204912,327.830733 357.150626,344.919965 345.237759,361.405091 C325.045049,363.479997 304.758818,364.51205 284.459856,364.497299 C264.167589,364.51136 243.888075,363.479308 223.702025,361.405091 C211.820914,344.919381 200.80007,327.83006 190.683646,310.205598 C180.532593,292.629285 171.306974,274.534187 163.044553,255.99437 C171.306974,237.454554 180.532593,219.359455 190.683646,201.783142 C200.784121,184.229367 211.770999,167.201087 223.601665,150.764353 C243.824636,148.63809 264.145559,147.579168 284.479928,147.591877 C304.772146,147.579725 325.051559,148.611772 345.237759,150.68404 C357.109048,167.14607 368.136094,184.201112 378.27621,201.783142 C388.419418,219.363718 397.644825,237.458403 405.915303,255.99437 C397.644825,274.530337 388.419418,292.625022 378.27621,310.205598 M419.724813,290.127366 C426.09516,307.503536 431.324985,325.277083 435.380944,343.334682 C417.779633,348.823635 399.836793,353.149774 381.668372,356.285142 C388.573127,345.871232 395.263781,335.035679 401.740334,323.778483 C408.143291,312.655143 414.144807,301.431411 419.805101,290.207679 M246.363271,390.377981 C258.848032,391.140954 271.593728,391.582675 284.5,391.582675 C297.406272,391.582675 310.232256,391.140954 322.737089,390.377981 C310.880643,404.583418 298.10766,417.997563 284.5,430.534446 C270.921643,417.999548 258.18192,404.585125 246.363271,390.377981 Z M187.311556,356.244986 C169.137286,353.123646 151.187726,348.810918 133.578912,343.334682 C137.618549,325.305649 142.828222,307.559058 149.174827,290.207679 C154.754833,301.431411 160.736278,312.655143 167.239594,323.778483 C173.74291,334.901824 180.467017,345.864539 187.311556,356.285142 M149.174827,221.760984 C142.850954,204.473938 137.654787,186.794745 133.619056,168.834762 C151.18418,163.352378 169.085653,159.013101 187.211197,155.844146 C180.346585,166.224592 173.622478,176.986525 167.139234,188.210257 C160.65599,199.433989 154.734761,210.517173 149.074467,221.760984 M322.616657,121.590681 C310.131896,120.827708 297.3862,120.385987 284.379568,120.385987 C271.479987,120.385987 258.767744,120.787552 246.242839,121.590681 C258.061488,107.383537 270.801211,93.9691137 284.379568,81.4342157 C297.99241,93.9658277 310.765727,107.380324 322.616657,121.590681 Z M401.70019,188.210257 C395.196875,176.939676 388.472767,166.09743 381.527868,155.68352 C399.744224,158.819049 417.734224,163.151949 435.380944,168.654058 C431.331963,186.680673 426.122466,204.426664 419.785029,221.781062 C414.205023,210.55733 408.203506,199.333598 401.720262,188.230335 M127.517179,131.790423 C122.438973,82.3176579 132.816178,46.2973086 155.778503,33.0255968 C163.144699,28.9632474 171.455651,26.9264282 179.864858,27.1225964 C202.967687,27.1225964 232.413257,39.7317265 263.785734,63.9862316 C243.794133,82.7898734 225.448298,103.270812 208.949132,125.204763 C181.761691,128.528025 154.90355,134.14313 128.661281,141.990165 C128.199626,138.556788 127.778115,135.163566 127.456963,131.790423 M98.4529773,182.106474 C101.54406,180.767925 104.695358,179.429376 107.906872,178.090828 C114.220532,204.735668 122.781793,230.7969 133.498624,255.99437 C122.761529,281.241316 114.193296,307.357063 107.8868,334.058539 C56.7434387,313.076786 27.0971497,284.003505 27.0971497,255.99437 C27.0971497,229.450947 53.1907013,202.526037 98.4529773,182.106474 Z M155.778503,478.963143 C132.816178,465.691432 122.438973,429.671082 127.517179,380.198317 C127.838331,376.825174 128.259842,373.431953 128.721497,369.978497 C154.953686,377.878517 181.814655,383.514365 209.009348,386.824134 C225.500295,408.752719 243.832321,429.233234 263.805806,448.042665 C220.069,481.834331 180.105722,492.97775 155.838719,478.963143 M441.502893,380.198317 C446.520883,429.691161 436.203894,465.691432 413.221497,478.963143 C388.974566,493.017906 348.991216,481.834331 305.274481,448.042665 C325.241364,429.232737 343.566681,408.752215 360.050868,386.824134 C387.245915,383.516508 414.107066,377.880622 440.338719,369.978497 C440.820446,373.431953 441.221885,376.825174 441.563109,380.198317 M461.193488,334.018382 C454.869166,307.332523 446.294494,281.231049 435.561592,255.99437 C446.289797,230.744081 454.857778,204.629101 461.173416,177.930202 C512.216417,198.911955 541.942994,227.985236 541.942994,255.99437 C541.942994,284.003505 512.296705,313.076786 461.153344,334.058539"
          id="Shape"></path>
      </g>
    </g>
  </symbol>

  <symbol id="jwt" viewBox="0 0 256 257">
    <path fill="#FFF"
      d="M147.386 69.071 147.129 0h-38.515l.257 69.071 19.257 26.448zM108.871 187.442v69.328h38.515v-69.328l-19.258-26.447z" />
    <path fill="#00F2E6"
      d="m147.386 187.442 40.57 55.976 31.069-22.596-40.57-55.975-31.069-10.015zM108.871 69.071 68.044 13.095 36.975 35.691l40.57 55.976 31.326 10.014z" />
    <path fill="#00B9F1"
      d="M77.545 91.667 11.811 70.355 0 106.816l65.733 21.569 31.069-10.271zM159.198 138.399l19.257 26.448 65.734 21.311L256 149.697l-65.733-21.312z" />
    <path fill="#D63AFF"
      d="M190.267 128.385 256 106.816l-11.811-36.461-65.734 21.312-19.257 26.447zM65.733 128.385 0 149.697l11.811 36.461 65.734-21.311 19.257-26.448z" />
    <path fill="#FB015B"
      d="m77.545 164.847-40.57 55.975 31.069 22.596 40.827-55.976v-32.61zM178.455 91.667l40.57-55.976-31.069-22.596-40.57 55.976v32.61z" />
  </symbol>

  <symbol id="npm" viewBox="0 0 32 32">
    <g id="SVGRepo_bgCarrier" stroke-width="0"></g>
    <g id="SVGRepo_tracerCarrier" stroke-linecap="round" stroke-linejoin="round"></g>
    <g id="SVGRepo_iconCarrier">
      <path d="M0 10V20H9V22H16V20H32V10H0Z" fill="#CB3837"></path>
      <path
        d="M5.46205 12H2V18H5.46205V13.6111H7.22344V18H8.98482V12H5.46205ZM10.7462 12V20H14.269V18H17.731V12H10.7462ZM15.9696 16.3889H14.269V13.6111H15.9696V16.3889ZM22.9545 12H19.4924V18H22.9545V13.6111H24.7158V18H26.4772V13.6111H28.2386V18H30V12H22.9545Z"
        fill="white"></path>
    </g>
  </symbol>

  <symbol id="firebase" viewBox="0 0 600 600">
    <path fill="#FF9100"
      d="M213.918 560.499c23.248 9.357 48.469 14.909 74.952 15.834 35.84 1.252 69.922-6.158 100.391-20.234-36.537-14.355-69.627-35.348-97.869-61.448-18.306 29.31-45.382 52.462-77.474 65.848Z" />
    <path fill="#FFC400"
      d="M291.389 494.66c-64.466-59.622-103.574-145.917-100.269-240.568.108-3.073.27-6.145.46-9.216a166.993 166.993 0 0 0-36.004-5.241 167.001 167.001 0 0 0-51.183 6.153c-17.21 30.145-27.594 64.733-28.888 101.781-3.339 95.611 54.522 179.154 138.409 212.939 32.093-13.387 59.168-36.51 77.475-65.848Z" />
    <path fill="#FF9100"
      d="M291.39 494.657c14.988-23.986 24.075-52.106 25.133-82.403 2.783-79.695-50.792-148.251-124.942-167.381-.19 3.071-.352 6.143-.46 9.216-3.305 94.651 35.803 180.946 100.269 240.568Z" />
    <path fill="#DD2C00"
      d="M308.231 20.858C266 54.691 232.652 99.302 212.475 150.693c-11.551 29.436-18.81 61.055-20.929 94.2 74.15 19.13 127.726 87.686 124.943 167.38-1.058 30.297-10.172 58.39-25.134 82.404 28.24 26.127 61.331 47.093 97.868 61.447 73.337-33.9 125.37-106.846 128.383-193.127 1.952-55.901-19.526-105.724-49.875-147.778-32.051-44.477-159.5-194.36-159.5-194.36Z" />
  </symbol>

  <symbol id="docker" viewBox="0 0 16 16">
    <g id="SVGRepo_bgCarrier" stroke-width="0"></g>
    <g id="SVGRepo_tracerCarrier" stroke-linecap="round" stroke-linejoin="round"></g>
    <g id="SVGRepo_iconCarrier">
      <path fill="#2396ED"
        d="M12.342 4.536l.15-.227.262.159.116.083c.28.216.869.768.996 1.684.223-.04.448-.06.673-.06.534 0 .893.124 1.097.227l.105.057.068.045.191.156-.066.2a2.044 2.044 0 01-.47.73c-.29.299-.8.652-1.609.698l-.178.005h-.148c-.37.977-.867 2.078-1.702 3.066a7.081 7.081 0 01-1.74 1.488 7.941 7.941 0 01-2.549.968c-.644.125-1.298.187-1.953.185-1.45 0-2.73-.288-3.517-.792-.703-.449-1.243-1.182-1.606-2.177a8.25 8.25 0 01-.461-2.83.516.516 0 01.432-.516l.068-.005h10.54l.092-.007.149-.016c.256-.034.646-.11.92-.27-.328-.543-.421-1.178-.268-1.854a3.3 3.3 0 01.3-.81l.108-.187zM2.89 5.784l.04.007a.127.127 0 01.077.082l.006.04v1.315l-.006.041a.127.127 0 01-.078.082l-.039.006H1.478a.124.124 0 01-.117-.088l-.007-.04V5.912l.007-.04a.127.127 0 01.078-.083l.039-.006H2.89zm1.947 0l.039.007a.127.127 0 01.078.082l.006.04v1.315l-.007.041a.127.127 0 01-.078.082l-.039.006H3.424a.125.125 0 01-.117-.088L3.3 7.23V5.913a.13.13 0 01.085-.123l.039-.007h1.413zm1.976 0l.039.007a.127.127 0 01.077.082l.007.04v1.315l-.007.041a.127.127 0 01-.078.082l-.039.006H5.4a.124.124 0 01-.117-.088l-.006-.04V5.912l.006-.04a.127.127 0 01.078-.083l.039-.006h1.413zm1.952 0l.039.007a.127.127 0 01.078.082l.007.04v1.315a.13.13 0 01-.085.123l-.04.006H7.353a.124.124 0 01-.117-.088l-.006-.04V5.912l.006-.04a.127.127 0 01.078-.083l.04-.006h1.412zm1.97 0l.039.007a.127.127 0 01.078.082l.006.04v1.315a.13.13 0 01-.085.123l-.039.006H9.322a.124.124 0 01-.117-.088l-.006-.04V5.912l.006-.04a.127.127 0 01.078-.083l.04-.006h1.411zM4.835 3.892l.04.007a.127.127 0 01.077.081l.007.041v1.315a.13.13 0 01-.085.123l-.039.007H3.424a.125.125 0 01-.117-.09l-.007-.04V4.021a.13.13 0 01.085-.122l.039-.007h1.412zm1.976 0l.04.007a.127.127 0 01.077.081l.007.041v1.315a.13.13 0 01-.085.123l-.039.007H5.4a.125.125 0 01-.117-.09l-.006-.04V4.021l.006-.04a.127.127 0 01.078-.082l.039-.007h1.412zm1.953 0c.054 0 .1.037.117.088l.007.041v1.315a.13.13 0 01-.085.123l-.04.007H7.353a.125.125 0 01-.117-.09l-.006-.04V4.021l.006-.04a.127.127 0 01.078-.082l.04-.007h1.412zm0-1.892c.054 0 .1.037.117.088l.007.04v1.316a.13.13 0 01-.085.123l-.04.006H7.353a.124.124 0 01-.117-.088l-.006-.04V2.128l.006-.04a.127.127 0 01.078-.082L7.353 2h1.412z"></path>
    </g>
  </symbol>

  <symbol id="cloudinary" viewBox="0 0 256 168">
    <path fill="#3448C5"
      d="M75.06 75.202a.7.7 0 0 1 .498.208l23.56 23.581a.7.7 0 0 1-.488 1.188h-6.022c-.39 0-.71.31-.721.7v53.015a12.724 12.724 0 0 0 3.71 8.949l3.52 3.52a.7.7 0 0 1-.487 1.187H70.85c-7.027 0-12.723-5.696-12.723-12.723v-53.948a.7.7 0 0 0-.7-.7h-5.938a.7.7 0 0 1-.509-1.188l23.581-23.58a.7.7 0 0 1 .499-.21Zm52.103 13.656a.7.7 0 0 1 .498.209l23.581 23.496a.7.7 0 0 1-.509 1.188h-6.022c-.39.011-.7.33-.7.72v39.423a12.724 12.724 0 0 0 3.69 8.949l3.541 3.52a.7.7 0 0 1-.509 1.187h-27.716c-7.027 0-12.724-5.696-12.724-12.723v-40.313c0-.39-.31-.71-.7-.721h-6a.7.7 0 0 1-.488-1.188l23.56-23.538a.7.7 0 0 1 .498-.209Zm52.114 13.51c.183 0 .36.075.487.207l23.581 23.56a.7.7 0 0 1-.487 1.209h-6.044a.7.7 0 0 0-.7.7v25.85a12.724 12.724 0 0 0 3.711 8.949l3.52 3.52a.7.7 0 0 1-.487 1.187h-27.801c-7.027 0-12.724-5.696-12.724-12.723v-26.784a.7.7 0 0 0-.7-.7h-5.937a.7.7 0 0 1-.488-1.208l23.58-23.56a.679.679 0 0 1 .489-.207ZM126.686-.002c37.04.27 69.71 24.323 80.964 59.614C235.16 63.202 255.8 86.54 256 114.28c0 22.895-14.319 41.921-37.438 49.842l-.86.289-1.06.339v-17.092c14.695-6.192 23.326-18.428 23.326-33.378-.075-21.097-16.782-38.323-37.78-39.126l-.709-.02h-6.361l-1.527-6.066c-7.494-30.93-35.08-52.79-66.905-53.015-26.187-.125-50.1 14.755-61.576 38.23l-2.36 4.861-4.454.467c-20.112 2.151-36.627 16.862-41.08 36.593-4.39 19.449 3.898 39.527 20.646 50.231l.734.46v18.025h-.106l-1.59-.721C11.744 152.636-2.99 126.08.51 98.616 4.012 71.153 24.938 49.142 52.19 44.258 66.912 16.851 95.575-.177 126.686-.002Z" />
  </symbol>

  <!-- SECTION PROJECTS -->

  <symbol id="demo" viewBox="0 0 24 24">
    <g id="SVGRepo_bgCarrier" stroke-width="0"></g>
    <g id="SVGRepo_tracerCarrier" stroke-linecap="round" stroke-linejoin="round"></g>
    <g id="SVGRepo_iconCarrier">
      <path
        d="M16 11L15.5 19M16 11C16 6.5 14.5 4 11.9999 2C9.5 4 8 6.5 8 11M16 11L18 12.5C19.259 13.4443 20 14.9262 20 16.5V19.4612C20 20.1849 19.2551 20.669 18.5939 20.375L15.5 19M8 11L8.5 19M8 11L6 12.5C4.74097 13.4443 4 14.9262 4 16.5V19.4612C4 20.1849 4.74485 20.669 5.40614 20.375L8.5 19M8.5 19H15.5M12 9V11"
        stroke="#ffffff" stroke-width="2" stroke-linecap="round" stroke-linejoin="round"></path>
    </g>
  </symbol>


  <!-- SECTION CONTACT -->

  <symbol id="contactLinkedin" viewBox="0 0 256 256">
    <g id="SVGRepo_bgCarrier" stroke-width="0"></g>
    <g id="SVGRepo_tracerCarrier" stroke-linecap="round" stroke-linejoin="round"></g>
    <g id="SVGRepo_iconCarrier">
      <g fill="none">
        <path
          d="M0 18.338C0 8.216 8.474 0 18.92 0h218.16C247.53 0 256 8.216 256 18.338v219.327C256 247.79 247.53 256 237.08 256H18.92C8.475 256 0 247.791 0 237.668V18.335z"
          fill="#069"></path>
        <path
          d="M77.796 214.238V98.986H39.488v115.252H77.8zM58.65 83.253c13.356 0 21.671-8.85 21.671-19.91-.25-11.312-8.315-19.915-21.417-19.915-13.111 0-21.674 8.603-21.674 19.914 0 11.06 8.312 19.91 21.169 19.91h.248zM99 214.238h38.305v-64.355c0-3.44.25-6.889 1.262-9.346 2.768-6.885 9.071-14.012 19.656-14.012 13.858 0 19.405 10.568 19.405 26.063v61.65h38.304v-66.082c0-35.399-18.896-51.872-44.099-51.872-20.663 0-29.738 11.549-34.78 19.415h.255V98.99H99.002c.5 10.812-.003 115.252-.003 115.252z"
          fill="#ffffff"></path>
      </g>
    </g>
  </symbol>

  <symbol id="contactInstagram" viewBox="0 0 32 32">
    <g id="SVGRepo_bgCarrier" stroke-width="0"></g>
    <g id="SVGRepo_tracerCarrier" stroke-linecap="round" stroke-linejoin="round"></g>
    <g id="SVGRepo_iconCarrier">
      <rect x="2" y="2" width="28" height="28" rx="6" fill="url(#paint0_radial_87_7153)"></rect>
      <rect x="2" y="2" width="28" height="28" rx="6" fill="url(#paint1_radial_87_7153)"></rect>
      <rect x="2" y="2" width="28" height="28" rx="6" fill="url(#paint2_radial_87_7153)"></rect>
      <path
        d="M23 10.5C23 11.3284 22.3284 12 21.5 12C20.6716 12 20 11.3284 20 10.5C20 9.67157 20.6716 9 21.5 9C22.3284 9 23 9.67157 23 10.5Z"
        fill="white"></path>
      <path fill-rule="evenodd" clip-rule="evenodd"
        d="M16 21C18.7614 21 21 18.7614 21 16C21 13.2386 18.7614 11 16 11C13.2386 11 11 13.2386 11 16C11 18.7614 13.2386 21 16 21ZM16 19C17.6569 19 19 17.6569 19 16C19 14.3431 17.6569 13 16 13C14.3431 13 13 14.3431 13 16C13 17.6569 14.3431 19 16 19Z"
        fill="white"></path>
      <path fill-rule="evenodd" clip-rule="evenodd"
        d="M6 15.6C6 12.2397 6 10.5595 6.65396 9.27606C7.2292 8.14708 8.14708 7.2292 9.27606 6.65396C10.5595 6 12.2397 6 15.6 6H16.4C19.7603 6 21.4405 6 22.7239 6.65396C23.8529 7.2292 24.7708 8.14708 25.346 9.27606C26 10.5595 26 12.2397 26 15.6V16.4C26 19.7603 26 21.4405 25.346 22.7239C24.7708 23.8529 23.8529 24.7708 22.7239 25.346C21.4405 26 19.7603 26 16.4 26H15.6C12.2397 26 10.5595 26 9.27606 25.346C8.14708 24.7708 7.2292 23.8529 6.65396 22.7239C6 21.4405 6 19.7603 6 16.4V15.6ZM15.6 8H16.4C18.1132 8 19.2777 8.00156 20.1779 8.0751C21.0548 8.14674 21.5032 8.27659 21.816 8.43597C22.5686 8.81947 23.1805 9.43139 23.564 10.184C23.7234 10.4968 23.8533 10.9452 23.9249 11.8221C23.9984 12.7223 24 13.8868 24 15.6V16.4C24 18.1132 23.9984 19.2777 23.9249 20.1779C23.8533 21.0548 23.7234 21.5032 23.564 21.816C23.1805 22.5686 22.5686 23.1805 21.816 23.564C21.5032 23.7234 21.0548 23.8533 20.1779 23.9249C19.2777 23.9984 18.1132 24 16.4 24H15.6C13.8868 24 12.7223 23.9984 11.8221 23.9249C10.9452 23.8533 10.4968 23.7234 10.184 23.564C9.43139 23.1805 8.81947 22.5686 8.43597 21.816C8.27659 21.5032 8.14674 21.0548 8.0751 20.1779C8.00156 19.2777 8 18.1132 8 16.4V15.6C8 13.8868 8.00156 12.7223 8.0751 11.8221C8.14674 10.9452 8.27659 10.4968 8.43597 10.184C8.81947 9.43139 9.43139 8.81947 10.184 8.43597C10.4968 8.27659 10.9452 8.14674 11.8221 8.0751C12.7223 8.00156 13.8868 8 15.6 8Z"
        fill="white"></path>
      <defs>
        <radialGradient id="paint0_radial_87_7153" cx="0" cy="0" r="1"
          gradientUnits="userSpaceOnUse"
          gradientTransform="translate(12 23) rotate(-55.3758) scale(25.5196)">
          <stop stop-color="#B13589"></stop>
          <stop offset="0.79309" stop-color="#C62F94"></stop>
          <stop offset="1" stop-color="#8A3AC8"></stop>
        </radialGradient>
        <radialGradient id="paint1_radial_87_7153" cx="0" cy="0" r="1"
          gradientUnits="userSpaceOnUse"
          gradientTransform="translate(11 31) rotate(-65.1363) scale(22.5942)">
          <stop stop-color="#E0E8B7"></stop>
          <stop offset="0.444662" stop-color="#FB8A2E"></stop>
          <stop offset="0.71474" stop-color="#E2425C"></stop>
          <stop offset="1" stop-color="#E2425C" stop-opacity="0"></stop>
        </radialGradient>
        <radialGradient id="paint2_radial_87_7153" cx="0" cy="0" r="1"
          gradientUnits="userSpaceOnUse"
          gradientTransform="translate(0.500002 3) rotate(-8.1301) scale(38.8909 8.31836)">
          <stop offset="0.156701" stop-color="#406ADC"></stop>
          <stop offset="0.467799" stop-color="#6A45BE"></stop>
          <stop offset="1" stop-color="#6A45BE" stop-opacity="0"></stop>
        </radialGradient>
      </defs>
    </g>
  </symbol>

  <symbol id="contactFacebook" viewBox="0 0 512 512">
    <g id="SVGRepo_bgCarrier" stroke-width="0"></g>
    <g id="SVGRepo_tracerCarrier" stroke-linecap="round" stroke-linejoin="round"></g>
    <g id="SVGRepo_iconCarrier">
      <rect width="512" height="512" rx="15%" fill="#1877f2"></rect>
      <path
        d="M355.6 330l11.4-74h-71v-48c0-20.2 9.9-40 41.7-40H370v-63s-29.3-5-57.3-5c-58.5 0-96.7 35.4-96.7 99.6V256h-65v74h65v182h80V330h59.6z"
        fill="#ffffff"></path>
    </g>
  </symbol>

  <symbol id="contactTwitter" viewBox="0,0,256,256">
    <g fill="#ffffff" fill-rule="nonzero" stroke="none" stroke-width="1" stroke-linecap="butt"
      stroke-linejoin="miter" stroke-miterlimit="10" stroke-dasharray="" stroke-dashoffset="0"
      font-family="none" font-weight="none" font-size="none" text-anchor="none"
      style="mix-blend-mode: normal">
      <g transform="scale(5.12,5.12)">
        <path
          d="M11,4c-3.85433,0 -7,3.14567 -7,7v28c0,3.85433 3.14567,7 7,7h28c3.85433,0 7,-3.14567 7,-7v-28c0,-3.85433 -3.14567,-7 -7,-7zM11,6h28c2.77367,0 5,2.22633 5,5v28c0,2.77367 -2.22633,5 -5,5h-28c-2.77367,0 -5,-2.22633 -5,-5v-28c0,-2.77367 2.22633,-5 5,-5zM13.08594,13l9.22266,13.10352l-9.30859,10.89648h2.5l7.9375,-9.29297l6.53906,9.29297h7.9375l-10.125,-14.38672l8.21094,-9.61328h-2.5l-6.83984,8.00977l-5.63672,-8.00977zM16.91406,15h3.06445l14.10742,20h-3.06445z"></path>
      </g>
    </g>
  </symbol>

</svg>